<ttFont>
          <CharString index="0">
            526 695 rmoveto
            -107 callgsubr
            return
          </CharString>
          <CharString index="1">
            11 21 6 20 21 vvcurveto
            19 -5 19 -12 19 vhcurveto
            11 -17 -17 6 -17 hhcurveto
            -16 -16 -5 -12 -16 hvcurveto
            -105 callsubr
            return
          </CharString>
          <CharString index="2">
            -104 callgsubr
            190 hmoveto
            -106 callgsubr
            return
          </CharString>
          <CharString index="3">
            -105 callgsubr
            endchar
          </CharString>
          <CharString index="4">
            -20 hstemhm
            93 238 hintmask 11011110
            -96 callgsubr
            hintmask 11100110
            -90 callgsubr
            hintmask 11011110
            -98 callsubr
            return
          </CharString>
          <CharString index="5">
            -20 4 callsubr
            hintmask 1001011010000000
            620 -92 callsubr
            -45 84 callsubr
            39 35 callgsubr
            69 callsubr
            -58 callgsubr
            hintmask 1000111100000000
            -52 callgsubr
            69 callsubr
            -85 callgsubr
            hintmask 0110011010000000
            -84 callsubr
            69 callsubr
            37 callgsubr
            return
          </CharString>
          <CharString index="6">
            -101 callgsubr
            endchar
          </CharString>
          <CharString index="7">
            -12 callgsubr
            hintmask 0110011100000000
            -53 callgsubr
            hintmask 1010011010000000
            -91 callgsubr
            hintmask 1001011100000000
            -97 callgsubr
            hintmask 0100111100000000
            -63 callsubr
            69 callsubr
            -69 callgsubr
            return
          </CharString>
          <CharString index="8">
            -53 -21 -53 rrcurveto
            -6 8 8 41 callsubr
            11 12 4 4 12 hvcurveto
            54 33 48 39 32 55 rrcurveto
            return
          </CharString>
          <CharString index="9">
            -21 callgsubr
            -16 -66 -5 -65 -61 vvcurveto
            -61 5 -58 7 -52 -32 callgsubr
            -31 vvcurveto
            -28 0 -7 9 -12 -93 callsubr
            return
          </CharString>
          <CharString index="10">
            492 75 callsubr
            -59 -4 -59 -58 vvcurveto
            -66 69 -88 78 -44 33 rrcurveto
            -2 7 8 callgsubr
            17 16 5 8 11 hvcurveto
            7 17 3 19 17 vvcurveto
            36 -13 33 -17 7 vhcurveto
            7 -14 -51 2 -46 hhcurveto
            -111 -38 -12 -15 -13 -1 callsubr
            -10 10 15 -4 14 hhcurveto
            6 7 1 89 callgsubr
            -22 callgsubr
            1 -5 -5 1 -6 hhcurveto
            -15 -15 -6 -8 -12 hvcurveto
            -10 -4 -5 -25 -25 vvcurveto
            -26 5 -26 10 -7 77 callsubr
            109 hhcurveto
            32 66 1 8 15 hvcurveto
            16 8 13 47 36 vvcurveto
            17 -3 14 -6 7 vhcurveto
            8 -9 -18 4 -17 hhcurveto
            -8 -7 -1 -1 -6 hvcurveto
            5 59 5 72 1 65 58 -69 72 -69 66 -54 rrcurveto
            1 -5 -4 1 -6 hhcurveto
            -15 -16 -6 -8 -9 hvcurveto
            -10 -6 -5 -22 -23 vvcurveto
            -25 6 -28 9 -9 77 callsubr
            113 hhcurveto
            57 39 3 6 13 hvcurveto
            17 12 13 45 35 vvcurveto
            17 -3 13 -7 7 vhcurveto
            8 -9 -16 5 -17 hhcurveto
            -8 -8 -1 -2 -7 -15 callsubr
            9 13 4 17 17 vvcurveto
            36 -16 39 -17 7 vhcurveto
            4 -9 -25 5 -74 hhcurveto
            -114 -38 -12 -15 -13 hvcurveto
            -10 -7 -4 -21 -23 vvcurveto
            -23 4 -25 10 -14 vhcurveto
            -11 12 14 -2 13 hhcurveto
            7 6 0 89 callgsubr
            return
          </CharString>
          <CharString index="11">
            -87 callsubr
            6 74 6 74 78 vvcurveto
            56 -3 59 -9 61 vhcurveto
            -86 callgsubr
            endchar
          </CharString>
          <CharString index="12">
            323 70 callgsubr
            -5 callsubr
            -110 71 -97 158 151 118 88 189 126 -52 117 -146 hvcurveto
            -107 -284 -75 callgsubr
            return
          </CharString>
          <CharString index="13">
            682 525 rmoveto
            -2 6 7 0 7 hhcurveto
            17 17 4 9 8 hvcurveto
            12 19 5 22 21 vvcurveto
            27 -8 27 -11 19 vhcurveto
            21 -26 -61 9 -62 hhcurveto
            -62 -65 -9 -14 -30 hvcurveto
            -11 -16 -6 -30 -31 vvcurveto
            -30 6 -31 11 -17 vhcurveto
            -6 3 9 -3 9 hhcurveto
            14 16 6 5 2 hvcurveto
            return
          </CharString>
          <CharString index="14">
            vhcurveto
            -21 46 130 -16 129 hhcurveto
            108 108 11 32 56 -90 callsubr
            return
          </CharString>
          <CharString index="15">
            -81 callsubr
            -68 callgsubr
            -16 callsubr
            return
          </CharString>
          <CharString index="16">
            rmoveto
            32 -55 48 -39 54 -33 rrcurveto
            -4 12 12 -4 11 hhcurveto
            9 8 2 6 8 hvcurveto
            -21 53 return
          </CharString>
          <CharString index="17">
            -82 callgsubr
            -10 -19 -29 -8 -30 hhcurveto
            -30 -31 8 21 -25 hvcurveto
            return
          </CharString>
          <CharString index="18">
            hstem
            35 callsubr
            vstem
            -95 callsubr
            return
          </CharString>
          <CharString index="19">
            -55 callgsubr
            -75 callsubr
            return
          </CharString>
          <CharString index="20">
            -40 callsubr
            -15 13 38 -12 111 hhcurveto
            46 51 2 7 14 -77 callsubr
            return
          </CharString>
          <CharString index="21">
            -5 -5 -2 -9 -10 vvcurveto
            -14 4 -15 3 -9 vhcurveto
            -11 11 37 -4 37 hhcurveto
            33 52 3 4 14 hvcurveto
            8 11 4 19 17 48 callsubr
            7 -2 6 vhcurveto
            4 -7 -9 3 -8 hhcurveto
            -3 -2 0 -1 -2 hvcurveto
            5 28 4 75 72 vvcurveto
            61 -3 59 -6 24 vhcurveto
            5 -10 -16 3 -18 hhcurveto
            -44 -57 -17 -22 -21 hvcurveto
            -5 -9 -2 -14 -15 vvcurveto
            -14 2 -14 5 -9 vhcurveto
            24 2 1 6 14 9 rrcurveto
            return
          </CharString>
          <CharString index="22">
            7 -13 3 -13 20 -1 29 16 67 31 4 34 -9 49 -26 44 -46 25 rrcurveto
            1 -5 -5 101 callgsubr
            -32 -40 -17 -19 -23 hvcurveto
            -2 -6 -1 -6 -5 vvcurveto
            return
          </CharString>
          <CharString index="23">
            -9 18 27 -3 27 hhcurveto
            58 63 14 7 12 hvcurveto
            9 12 14 69 36 76 callgsubr
            8 -3 3 vhcurveto
            1 -6 -5 0 -5 48 callgsubr
            -14 hvcurveto
            return
          </CharString>
          <CharString index="24">
            5 callsubr
            7 -44 1 -92 2 -44 rrcurveto
            -17 callgsubr
            -56 callsubr
            5 41 -2 98 9 41 107 69 24 66 33 48 rrcurveto
            return
          </CharString>
          <CharString index="25">
            -72 callsubr
            6 -6 -145 5 -41 hhcurveto
            -41 -118 -63 callgsubr
            116 -6 45 hhcurveto
            32 124 3 10 32 hvcurveto
            return
          </CharString>
          <CharString index="26">
            -37 callgsubr
            16 10 13 24 46 vvcurveto
            13 -1 12 -12 13 vhcurveto
            21 -20 -37 9 -64 hhcurveto
            -83 -57 -15 -20 -43 hvcurveto
            return
          </CharString>
          <CharString index="27">
            -74 callsubr
            42 -7 21 vhcurveto
            18 -53 return
          </CharString>
          <CharString index="28">
            -4 4 18 -3 15 hhcurveto
            9 7 1 3 3 hvcurveto
            -19 -1 15 -32 vvcurveto
            -260 66 -220 229 213 105 192 223 49 -5 41 -6 30 vhcurveto
            return
          </CharString>
          <CharString index="29">
            185 rmoveto
            4 38 7 44 32 vvcurveto
            41 -66 callgsubr
            return
          </CharString>
          <CharString index="30">
            hvcurveto
            8 13 15 70 29 vvcurveto
            8 -1 6 -2 3 -68 callsubr
            return
          </CharString>
          <CharString index="31">
            -16 24 24 -8 22 hhcurveto
            63 30 60 59 55 -27 54 -51 -18 -18 -7 -16 -19 hvcurveto
            -2 1 52 1 -5 hvcurveto
            -33 -6 0 -3 -3 hvcurveto
            -1 -8 -3 -28 -36 vvcurveto
            -29 2 -6 7 -11 vhcurveto
            -3 7 94 callsubr
            6 2 3 6 hvcurveto
            1 1 0 2 1 vvcurveto
            1 0 1 -1 1 vhcurveto
            endchar
          </CharString>
          <CharString index="32">
            -198 -397 rmoveto
            89 76 116 103 75 46 -61 -73 -104 -95 -95 -89 -72 -44 61 67 vhcurveto
            return
          </CharString>
          <CharString index="33">
            -21 32 38 -12 38 hhcurveto
            16 15 2 4 16 hvcurveto
            13 43 10 33 42 vvcurveto
            23 -3 return
          </CharString>
          <CharString index="34">
            83 callsubr
            9 -3 5 -68 callsubr
            -17 callsubr
            8 -2 23 hhcurveto
            17 3 1 4 3 hvcurveto
            return
          </CharString>
          <CharString index="35">
            9 16 6 16 16 vvcurveto
            49 callgsubr
            -11 13 vhcurveto
            return
          </CharString>
          <CharString index="36">
            rmoveto
            17 -13 -31 28 -23 hhcurveto
            -4 -4 0 -2 -3 hvcurveto
            -45 -11 -5 -7 -25 hhcurveto
            return
          </CharString>
          <CharString index="37">
            12 15 5 29 27 vvcurveto
            16 -73 callgsubr
            return
          </CharString>
          <CharString index="38">
            -59 callgsubr
            76 callsubr
            6 8 vvcurveto
            29 -15 70 -8 13 vhcurveto
            return
          </CharString>
          <CharString index="39">
            vhcurveto
            9 -18 -16 2 -14 -23 callsubr
            -6 hvcurveto
            return
          </CharString>
          <CharString index="40">
            vhcurveto
            -21 15 50 -7 65 hhcurveto
            73 48 9 25 55 -58 callsubr
            -4 19 -2 18 16 vvcurveto
            87 54 45 51 29 callgsubr
            vhcurveto
            return
          </CharString>
          <CharString index="41">
            8 -3 -47 3 -43 hhcurveto
            -35 -32 -2 -2 -4 hvcurveto
            -11 -9 -11 -11 -104 vvcurveto
            -31 1 -46 21 -27 vhcurveto
            -12 19 21 -5 22 hhcurveto
            25 26 6 10 26 hvcurveto
            7 11 7 8 13 vvcurveto
            3 0 2 -1 4 vhcurveto
            5 10 33 0 56 hhcurveto
            60 32 -24 1 4 hvcurveto
            -115 -164 -287 -3 -344 vvcurveto
            -2 4 32 -2 35 hhcurveto
            43 47 3 8 3 61 callgsubr
            -4 46 49 -2 49 hhcurveto
            99 25 8 22 65 hvcurveto
            2 -21 2 -20 5 -1 rrcurveto
            return
          </CharString>
          <CharString index="42">
            rmoveto
            -106 callsubr
            return
          </CharString>
          <CharString index="43">
            35 -82 41 -82 70 -74 -75 -66 -41 -78 -24 -84 rrcurveto
            -21 13 11 -7 12 hhcurveto
            13 12 8 4 12 hvcurveto
            73 65 55 82 36 97 -40 85 -49 82 -72 71 rrcurveto
            12 -27 -18 5 -12 hhcurveto
            -15 -7 -7 -10 -3 hvcurveto
            return
          </CharString>
          <CharString index="44">
            -10 callgsubr
            -167 -136 -119 52 -106 97 hvcurveto
            return
          </CharString>
          <CharString index="45">
            -23 callgsubr
            -61 callgsubr
            -2 callsubr
            return
          </CharString>
          <CharString index="46">
            327 70 callgsubr
            -211 -93 -168 -120 -121 94 -115 189 39 33 5 16 43 hvcurveto
            return
          </CharString>
          <CharString index="47">
            -11 13 20 -5 22 hhcurveto
            29 31 9 16 20 hvcurveto
            7 42 5 39 38 vvcurveto
            51 -9 47 -26 39 vhcurveto
            12 -31 -32 8 -34 hhcurveto
            -27 -27 -5 -12 -26 hvcurveto
            -2 -1 -1 -4 vvcurveto
            -5 2 -9 1 -6 vhcurveto
            return
          </CharString>
          <CharString index="48">
            2 14 1 37 22 vvcurveto
            22 -1 31 -6 24 vhcurveto
            -188 -155 rmoveto
            14 19 26 56 24 19 rrcurveto
            -22 -1 -54 -18 vvcurveto
            1 -17 -10 0 -13 hhcurveto
            -7 -9 0 -1 -7 hvcurveto
            5 363 -60 callgsubr
            return
          </CharString>
          <CharString index="49">
            hvcurveto
            7 51 3 9 22 vvcurveto
            34 -8 6 -2 -26 callsubr
            return
          </CharString>
          <CharString index="50">
            -81 callgsubr
            1 6 4 9 21 76 callgsubr
            8 -6 5 vhcurveto
            return
          </CharString>
          <CharString index="51">
            -16 11 72 0 76 hhcurveto
            82 52 3 6 8 hvcurveto
            7 14 6 47 36 vvcurveto
            14 -1 13 -3 5 vhcurveto
            8 -15 -17 6 -23 hhcurveto
            return
          </CharString>
          <CharString index="52">
            hvcurveto
            3 7 1 11 79 callgsubr
            -1 11 -3 7 vhcurveto
            -2 return
          </CharString>
          <CharString index="53">
            -3 -23 -3 -41 -38 vvcurveto
            -191 76 -53 94 76 78 34 46 62 vhcurveto
            -121 -10 -44 -46 -111 hhcurveto
            -59 -37 13 17 -71 hvcurveto
            1 6 0 6 4 vvcurveto
            9 -1 6 -1 vhcurveto
            return
          </CharString>
          <CharString index="54">
            -29 3 -31 -52 vvcurveto
            -113 -14 -115 -91 -92 -17 119 100 49 4 32 1 30 vhcurveto
            return
          </CharString>
          <CharString index="55">
            -3 8 -2 -3 11 hhcurveto
            9 11 2 5 8 hvcurveto
            return
          </CharString>
          <CharString index="56">
            -46 callgsubr
            -71 20 -36 callsubr
            return
          </CharString>
          <CharString index="57">
            -52 callsubr
            12 16 6 return
          </CharString>
          <CharString index="58">
            2 -17 6 -8 vhcurveto
            -2 5 7 -1 8 hhcurveto
            7 7 1 89 callgsubr
            9 -8 4 -9 -8 vvcurveto
            -20 -22 -18 -23 -5 -6 1 2 -5 vhcurveto
            3 3 76 callsubr
            3 -24 37 rcurveline
            -47 -11 -36 -69 -3 -9 rrcurveto
            -14 8 -17 10 -10 vhcurveto
            2 5 2 3 7 hvcurveto
            -24 26 27 -9 39 hhcurveto
            103 61 64 67 28 -11 24 -25 24 hvcurveto
            endchar
          </CharString>
          <CharString index="59">
            hvcurveto
            -2 -3 -1 -4 -5 vvcurveto
            -11 4 -13 3 -8 vhcurveto
            return
          </CharString>
          <CharString index="60">
            rmoveto
            97 43 105 56 28 64 -26 -57 vhcurveto
            -2 -3 -1 -7 -6 vvcurveto
            -3 0 -4 1 -2 vhcurveto
            -12 26 24 -8 31 hhcurveto
            33 31 9 11 29 hvcurveto
            27 39 9 48 51 vvcurveto
            return
          </CharString>
          <CharString index="61">
            -80 callgsubr
            endchar
          </CharString>
          <CharString index="62">
            -30 -8 157 -144 -21 363 7 callsubr
            return
          </CharString>
          <CharString index="63">
            -1 11 8 -1 13 hhcurveto
            44 44 11 25 38 hvcurveto
            2 14 1 14 13 vvcurveto
            62 -22 53 -39 43 vhcurveto
            4 -18 -15 3 -20 hhcurveto
            -39 -37 -11 -23 -32 hvcurveto
            7 -27 return
          </CharString>
          <CharString index="64">
            -11 callgsubr
            -8 -27 -45 -84 -35 -21 -37 39 -52 65 -9 28 rrcurveto
            7 10 2 7 14 hvcurveto
            13 6 12 6 5 vvcurveto
            return
          </CharString>
          <CharString index="65">
            30 callsubr
            -231 -199 -149 96 -133 218 return
          </CharString>
          <CharString index="66">
            43 28 -36 -44 -15 callgsubr
            return
          </CharString>
          <CharString index="67">
            -1 -10 40 callsubr
            -14 -2 -14 -3 -7 -4 -38 callsubr
            return
          </CharString>
          <CharString index="68">
            -51 callgsubr
            -8 -14 -5 -34 -32 vvcurveto
            -29 4 -27 8 -14 28 callgsubr
            return
          </CharString>
          <CharString index="69">
            rrcurveto
            -4 -4 -2 -24 -26 40 callgsubr
            4 -5 vhcurveto
            return
          </CharString>
          <CharString index="70">
            20 18 30 9 31 hhcurveto
            26 26 -6 -11 19 hvcurveto
            -170 -101 -142 -151 -1 -87 rrcurveto
            -18 32 72 -11 72 hhcurveto
            69 130 10 30 39 hvcurveto
            1 -16 2 -15 4 -1 rrcurveto
            -6 3 37 -2 34 hhcurveto
            24 22 1 2 6 hvcurveto
            12 4 9 63 58 vvcurveto
            43 -5 39 -14 10 vhcurveto
            return
          </CharString>
          <CharString index="71">
            rmoveto
            -52 -17 -43 -42 -41 -19 42 53 52 18 43 42 41 18 -42 -53 vhcurveto
            return
          </CharString>
          <CharString index="72">
            -57 callgsubr
            hintmask 0011010110000000
            -35 callgsubr
            hintmask 0101010110000000
            -32 callsubr
            return
          </CharString>
          <CharString index="73">
            -295 218 111 hstem
            302 231 -25 callgsubr
            8 -37 -36 97 callsubr
            -46 -63 callgsubr
            45 -6 48 hhcurveto
            34 37 74 callsubr
          </CharString>
          <CharString index="74">
            -11 callsubr
            -2 -8 -1 -2 -13 hvcurveto
            return
          </CharString>
          <CharString index="75">
            33 -3 25 -6 7 vhcurveto
            4 -26 -14 77 callgsubr
            -7 -2 -1 -1 hvcurveto
            return
          </CharString>
          <CharString index="76">
            -5 -7 -2 -25 -25 vvcurveto
            -25 2 -25 5 -6 vhcurveto
            return
          </CharString>
          <CharString index="77">
            -4 5 rlineto
            -13 -30 -6 -7 -2 hvcurveto
            -18 16 -69 9 -4 vhcurveto
            -1 5 6 17 callsubr
            11 12 3 9 5 hvcurveto
            -1 3 0 2 3 vvcurveto
            1 4 4 1 4 hhcurveto
            21 21 -20 -20 -7 -3 -7 -6 -6 hvcurveto
            2 -3 -8 1 -9 hhcurveto
            -13 -14 -2 -4 -2 hvcurveto
            return
          </CharString>
          <CharString index="78">
            -4 9 34 -2 33 hhcurveto
            33 83 2 2 13 hvcurveto
            3 6 1 10 9 vvcurveto
            15 -3 25 -8 6 vhcurveto
            4 -8 -7 1 -6 hhcurveto
            -2 -3 0 -1 -2 hvcurveto
            3 11 2 25 13 vvcurveto
            5 0 5 -1 5 vhcurveto
            -1 2 4 0 4 hhcurveto
            5 4 0 2 3 hvcurveto
            return
          </CharString>
          <CharString index="79">
            24 -43 -48 12 -44 hhcurveto
            -128 -121 -99 -150 -166 147 -9 85 -5 hvcurveto
            45 -2 65 -3 -51 vvcurveto
            -41 -42 -31 -73 -30 -26 5 29 -25 vhcurveto
            -1 14 1 7 -7 17 rrcurveto
            11 -11 -22 6 -21 hhcurveto
            -14 -13 -3 -4 -10 hvcurveto
            endchar
          </CharString>
          <CharString index="80">
            hvcurveto
            -4 -5 -2 -27 -27 vvcurveto
            -26 2 -24 return
          </CharString>
          <CharString index="81">
            vhcurveto
            4 -3 -10 1 -9 hhcurveto
            -17 -9 -4 -3 -5 hvcurveto
            return
          </CharString>
          <CharString index="82">
            33 callgsubr
            -16 callsubr
            -45 84 callsubr
            39 81 17 2 28 4 20 vhcurveto
            -50 callsubr
            27 26 vvcurveto
            30 -8 29 -15 17 vhcurveto
            return
          </CharString>
          <CharString index="83">
            59 -255 158 -158 242 -237 -20 32 -21 249 171 178 161 -142 142 10 -20 return
          </CharString>
          <CharString index="84">
            hhcurveto
            -6 -5 0 -1 return
          </CharString>
          <CharString index="85">
            -1 -6 -4 -10 -18 vvcurveto
            -13 2 -9 7 -5 vhcurveto
            return
          </CharString>
          <CharString index="86">
            -33 3 -25 6 -7 -8 callgsubr
            return
          </CharString>
          <CharString index="87">
            -48 72 hhcurveto
            52 28 25 89 12 hvcurveto
            return
          </CharString>
          <CharString index="88">
            9 -16 -16 6 -16 hhcurveto
            -13 -13 -4 -11 -13 hvcurveto
            -8 -37 -3 -86 -36 vvcurveto
            -46 5 -126 6 -45 vhcurveto
            -9 13 49 callgsubr
            hhcurveto
            16 16 5 8 16 hvcurveto
            7 47 6 125 49 vvcurveto
            34 -3 86 -10 35 vhcurveto
            return
          </CharString>
          <CharString index="89">
            -12 -7 -12 hvcurveto
            -9 -12 -14 -69 -36 vvcurveto
            -10 1 -8 3 -3 vhcurveto
            -1 9 7 -3 8 10 7 5 8 hhcurveto
            return
          </CharString>
          <CharString index="90">
            -2 1 -1 8 40 vvcurveto
            89 5 54 6 38 vhcurveto
            -3 6 return
          </CharString>
          <CharString index="91">
            4 -19 2 -18 -16 vvcurveto
            -87 -54 return
          </CharString>
          <CharString index="92">
            hvcurveto
            27 callsubr
            6 5 0 6 hhcurveto
            14 16 2 9 18 hvcurveto
            return
          </CharString>
          <CharString index="93">
            485 31 callsubr
            -102 -491 rmoveto
            71 112 108 94 71 111 73 113 34 131 73 112 rrcurveto
            return
          </CharString>
          <CharString index="94">
            -11 22 23 -4 22 hhcurveto
            28 25 6 9 26 hvcurveto
            31 13 28 48 73 vvcurveto
            13 0 14 -3 15 vhcurveto
            return
          </CharString>
          <CharString index="95">
            -97 -14 138 -123 -21 212 101 113 104 return
          </CharString>
          <CharString index="96">
            98 392 rmoveto
            -8 -18 -2 -36 -38 vvcurveto
            -70 7 -36 4 -42 vhcurveto
            return
          </CharString>
          <CharString index="97">
            -10 15 23 -5 21 hhcurveto
            12 11 2 3 10 hvcurveto
            32 7 9 73 63 vvcurveto
            29 -2 29 -4 12 vhcurveto
            10 -10 -27 8 -27 hhcurveto
            -17 -18 -3 -7 -13 hvcurveto
            -14 -11 -3 -11 -4 -20 rrcurveto
            return
          </CharString>
          <CharString index="98">
            34 callgsubr
            12 11 4 5 5 hvcurveto
            8 9 3 34 27 -3 callgsubr
            return
          </CharString>
          <CharString index="99">
            4 -17 9 -10 vhcurveto
            -13 4 97 52 callgsubr
            11 12 4 18 17 vvcurveto
            20 -6 20 -9 6 vhcurveto
            11 -7 -29 7 -20 hhcurveto
            -6 -16 0 -1 -4 hvcurveto
            return
          </CharString>
          <CharString index="100">
            -160 8 -165 13 -164 vhcurveto
            -8 14 13 -4 12 hhcurveto
            16 14 8 17 11 hvcurveto
            return
          </CharString>
          <CharString index="101">
            8 -17 -60 1 -32 hhcurveto
            -113 -78 callgsubr
            return
          </CharString>
          <CharString index="102">
            -176 -124 -168 -145 return
          </CharString>
          <CharString index="103">
            hstem
            28 212 300 170 vstem
            return
          </CharString>
          <CharString index="104">
            127 -36 rmoveto
            12 -17 -33 11 -26 hhcurveto
            -11 -9 -2 -3 -7 hvcurveto
            -13 -13 -26 return
          </CharString>
          <CharString index="105">
            -31 callsubr
            16 -10 23 0 19 -2 rrcurveto
            return
          </CharString>
          <CharString index="106">
            hvcurveto
            -31 callsubr
            return
          </CharString>
          <CharString index="107">
            9 -24 -29 3 -29 hhcurveto
            -57 -56 -18 callsubr
            return
          </CharString>
          <CharString index="108">
            -32 callsubr
            2 return
          </CharString>
          <CharString index="109">
            hvcurveto
            -28 -3 -22 -5 -9 -5 rrcurveto
            -9 -12 -4 -50 -31 vvcurveto
            -15 1 -7 3 -3 vhcurveto
            -1 7 30 -3 5 14 11 1 2 hhcurveto
            -70 2 return
          </CharString>
          <CharString index="110">
            vhcurveto
            -3 4 6 17 callsubr
            12 14 4 5 7 hvcurveto
            1 6 0 3 3 vvcurveto
            16 6 28 11 27 hhcurveto
            20 19 -6 -23 hvcurveto
            endchar
          </CharString>
          <CharString index="111">
            96 callsubr
            20 callgsubr
            return
          </CharString>
          <CharString index="112">
            36 callgsubr
            5 -18 58 -106 92 -59 return
          </CharString>
          <CharString index="113">
            -107 -10 159 37 callsubr
            return
          </CharString>
          <CharString index="114">
            166 -149 149 -1 -20 return
          </CharString>
          <CharString index="115">
            5 -30 -34 4 -34 hhcurveto
            -105 -114 -38 -132 hvcurveto
            -197 253 123 -105 vvcurveto
            -35 -29 -25 -29 -16 -18 7 5 -15 vhcurveto
            return
          </CharString>
          <CharString index="116">
            vvcurveto
            19 -5 return
          </CharString>
          <CharString index="117">
            107 -7 callgsubr
            return
          </CharString>
          <CharString index="118">
            193 179 126 return
          </CharString>
          <CharString index="119">
            vhcurveto
            -8 28 35 -4 27 hhcurveto
            139 79 104 124 hvcurveto
            hintmask 11101110
            111 -63 151 -113 vhcurveto
            -137 -278 rmoveto
            return
          </CharString>
          <CharString index="120">
            rrcurveto
            -2 -14 -1 -14 -16 vvcurveto
            -17 1 -19 2 -17 vhcurveto
            -2 6 55 -2 28 hhcurveto
            20 32 1 2 19 hvcurveto
            -1 -8 -1 return
          </CharString>
          <CharString index="121">
            8 -42 vhcurveto
            -40 callsubr
            return
          </CharString>
          <CharString index="122">
            46 -87 hhcurveto
            -2 -15 -33 -6 -3 hvcurveto
            -10 -22 -9 -34 -8 vvcurveto
            -11 callgsubr
            return
          </CharString>
          <CharString index="123">
            19 callgsubr
            -10 -3 -6 -8 hvcurveto
            return
          </CharString>
          <CharString index="124">
            -1 7 hhcurveto
            return
          </CharString>
          <CharString index="125">
            vhcurveto
            6 -3 -16 33 -1 hhcurveto
            -113 -18 return
          </CharString>
          <CharString index="126">
            12 callgsubr
            -5 -5 return
          </CharString>
          <CharString index="127">
            hstemhm
            23 176 -176 195 return
          </CharString>
          <CharString index="128">
            -276 21 -21 373 138 return
          </CharString>
          <CharString index="129">
            57 -57 105 6 -20 hstemhm
            return
          </CharString>
          <CharString index="130">
            -8 -25 rlineto
            -233 -115 -99 -184 -170 98 -70 137 37 39 5 8 42 hvcurveto
            9 -27 rlineto
            return
          </CharString>
          <CharString index="131">
            -44 -18 -33 -41 -10 23 -114 12 -20 hvcurveto
            53 -12 rlineto
            23 61 16 57 37 vvcurveto
            44 -23 31 -42 vhcurveto
            return
          </CharString>
          <CharString index="132">
            -11 18 25 -5 24 hhcurveto
            19 19 3 6 12 hvcurveto
            76 callsubr
            2 9 vvcurveto
            9 -1 9 -2 6 vhcurveto
            return
          </CharString>
          <CharString index="133">
            7 -18 -32 3 -35 hhcurveto
            -71 -84 -13 -24 -13 hvcurveto
            -12 -7 -6 -24 -28 vvcurveto
            -30 7 -33 16 -19 vhcurveto
            return
          </CharString>
          <CharString index="134">
            6 74 6 74 78 vvcurveto
            56 -3 59 -9 61 vhcurveto
            -1 return
          </CharString>
          <CharString index="135">
            -16 -27 -26 -7 -14 hhcurveto
            -41 -29 55 54 64 41 71 64 11 18 -2 -5 17 hvcurveto
            -7 -34 rlineto
            return
          </CharString>
          <CharString index="136">
            hvcurveto
            1 1 0 3 5 48 callsubr
            return
          </CharString>
          <CharString index="137">
            rmoveto
            -240 -170 return
          </CharString>
          <CharString index="138">
            rmoveto
            -46 callgsubr
            return
          </CharString>
          <CharString index="139">
            9 12 4 50 31 vvcurveto
            15 -1 7 -3 3 vhcurveto
            1 -7 -29 3 -8 -5 -13 -1 -57 hhcurveto
            return
          </CharString>
          <CharString index="140">
            -11 -6 -5 -29 -28 vvcurveto
            -28 5 -27 11 -4 vhcurveto
            return
          </CharString>
          <CharString index="141">
            vvcurveto
            1 -4 -6 0 -6 hhcurveto
            return
          </CharString>
          <CharString index="142">
            23 11 callsubr
            return
          </CharString>
          <CharString index="143">
            14 -7 12 -5 16 -3 return
          </CharString>
          <CharString index="144">
            198 163 return
          </CharString>
          <CharString index="145">
            6 8 1 7 hhcurveto
            4 1 2 19 3 vvcurveto
            return
          </CharString>
          <CharString index="146">
            -36 -29 -32 -17 -30 hhcurveto
            -53 -45 53 100 hvcurveto
            return
          </CharString>
          <CharString index="147">
            -1 -2 -12 hvcurveto
            return
          </CharString>
          <CharString index="148">
            -2 9 hhcurveto
            return
          </CharString>
          <CharString index="149">
            -47 -10 163 -152 -21 301 132 77 236 -160 144 return
          </CharString>
          <CharString index="150">
            5 8 hvcurveto
            57 callsubr
            return
          </CharString>
          <CharString index="151">
            -3 -7 -1 -11 -39 vvcurveto
            -38 78 callsubr
            2 16 -21 100 53 return
          </CharString>
          <CharString index="152">
            -8 124 -106 -21 297 124 -104 84 210 84 4 -20 hstemhm
            return
          </CharString>
          <CharString index="153">
            -44 0 142 -142 228 81 193 -117 117 -2 -20 return
          </CharString>
          <CharString index="154">
            134 56 134 return
          </CharString>
          <CharString index="155">
            vvcurveto
            8 -1 return
          </CharString>
          <CharString index="156">
            1 -7 -9 1 -9 hhcurveto
            -20 -20 -4 -11 -2 hvcurveto
            -5 -9 -2 -25 return
          </CharString>
          <CharString index="157">
            rmoveto
            -69 -171 94 -248 vvcurveto
            -19 1 -16 3 -18 vhcurveto
            -3 9 return
          </CharString>
          <CharString index="158">
            -20 98 callgsubr
            214 201 return
          </CharString>
          <CharString index="159">
            12 162 8 163 160 vvcurveto
            return
          </CharString>
          <CharString index="160">
            -249 72 -72 228 -206 -21 return
          </CharString>
          <CharString index="161">
            hstemhm
            26 133 return
          </CharString>
          <CharString index="162">
            5 -9 vhcurveto
            -11 2 20 -4 20 hhcurveto
            10 10 1 2 7 hvcurveto
            return
          </CharString>
          <CharString index="163">
            rmoveto
            -57 -44 -38 -18 -55 29 callsubr
            return
          </CharString>
          <CharString index="164">
            12 16 6 return
          </CharString>
          <CharString index="165">
            hvcurveto
            -18 25 31 -8 33 hhcurveto
            94 104 68 104 76 -55 61 return
          </CharString>
          <CharString index="166">
            18 callsubr
            -88 -31 -60 -48 return
          </CharString>
          <CharString index="167">
            -18 -40 -35 -15 -39 hhcurveto
            -14 -16 2 5 -16 hvcurveto
            endchar
          </CharString>
          <CharString index="168">
            216 -185 185 -79 79 return
          </CharString>
          <CharString index="169">
            -20 hstem
            95 194 vstem
            return
          </CharString>
          <CharString index="170">
            21 75 callgsubr
            return
          </CharString>
          <CharString index="171">
            hhcurveto
            -10 -9 return
          </CharString>
          <CharString index="172">
            20 -36 38 -10 40 -4 7 2 8 5 8 15 rrcurveto
            return
          </CharString>
          <CharString index="173">
            -20 36 -38 10 -40 4 -7 -2 -8 -5 -8 -15 rrcurveto
            return
          </CharString>
          <CharString index="174">
            rmoveto
            20 -7 -12 10 -18 hhcurveto
            -12 -14 -4 -9 -17 hvcurveto
            return
          </CharString>
          <CharString index="175">
            rmoveto
            9 26 1 27 15 vvcurveto
            30 -4 51 -9 12 vhcurveto
            return
          </CharString>
          <CharString index="176">
            hintmask 1010011100000000
            return
          </CharString>
          <CharString index="177">
            8 -67 vhcurveto
            return
          </CharString>
          <CharString index="178">
            -3 -1 -7 hvcurveto
            -3 -3 -1 -7 -15 vvcurveto
            -31 4 return
          </CharString>
          <CharString index="179">
            -8 8 37 -9 21 hhcurveto
            7 5 1 2 1 hvcurveto
            return
          </CharString>
          <CharString index="180">
            12 -28 hhcurveto
            -8 -6 -1 -2 -5 hvcurveto
            -16 -10 -44 return
          </CharString>
          <CharString index="181">
            3 10 35 hvcurveto
            endchar
          </CharString>
          <CharString index="182">
            100 callsubr
            -8 return
          </CharString>
          <CharString index="183">
            2 3 1 return
          </CharString>
          <CharString index="184">
            vhcurveto
            -15 13 38 -12 return
          </CharString>
          <CharString index="185">
            1 -11 3 -7 vhcurveto
            return
          </CharString>
          <CharString index="186">
            -142 -7 106 -98 -21 418 110 return
          </CharString>
          <CharString index="187">
            -58 vvcurveto
            -9 1 -9 3 -1 vhcurveto
            -6 2 return
          </CharString>
          <CharString index="188">
            -60 3 -60 1 -71 vhcurveto
            return
          </CharString>
          <CharString index="189">
            188 -188 204 return
          </CharString>
          <CharString index="190">
            vvcurveto
            12 -1 return
          </CharString>
          <CharString index="191">
            -51 -48 -45 return
          </CharString>
          <CharString index="192">
            121 0 154 393 151 return
          </CharString>
          <CharString index="193">
            hvcurveto
            -10 -2 -3 -48 -14 vvcurveto
            -23 8 return
          </CharString>
          <CharString index="194">
            2 7 3 19 5 26 rrcurveto
            51 -50 return
          </CharString>
          <CharString index="195">
            -268 -160 97 632 97 hstem
            return
          </CharString>
          <CharString index="196">
            hhcurveto
            -9 -10 return
          </CharString>
          <CharString index="197">
            hstemhm
            38 199 143 196 return
          </CharString>
          <CharString index="198">
            39 hhcurveto
            48 58 0 17 33 hvcurveto
            return
          </CharString>
          <CharString index="199">
            109 286 -20 31 -20 hstemhm
            return
          </CharString>
          <CharString index="200">
            -45 vvcurveto
            -19 1 -3 8 -11 vhcurveto
            return
          </CharString>
          <CharString index="201">
            10 41 callsubr
            9 return
          </CharString>
          <CharString index="202">
            1 4 4 hvcurveto
            3 return
          </CharString>
          <CharString index="203">
            hstemhm
            72 163 return
          </CharString>
          <CharString index="204">
            3 -36 hhcurveto
            -46 return
          </CharString>
          <CharString index="205">
            -4 -5 hvcurveto
            return
          </CharString>
          <CharString index="206">
            34 hvcurveto
            -4 return
          </CharString>
          <CharString index="207">
            546 rmoveto
            return
          </CharString>
        <CharString name=".notdef">
          -459 endchar
        </CharString>
        <CharString name="A">
          0 144 67 123 366 -103 callgsubr
          endchar
        </CharString>
        <CharString name="AE">
          356 -1 145 -145 226 -204 -21 211 123 -52 188 49 202 -134 134 hstemhm
          480 158 hintmask 10010101
          393 695 rmoveto
          -14 -1 -304 -503 -9 -55 rrcurveto
          5 -17 3 -16 -14 -13 -2 -6 -2 vhcurveto
          -41 callgsubr
          hintmask 00110101
          -9 10 85 -3 61 hhcurveto
          78 75 -74 callgsubr
          -33 -1 -3 vhcurveto
          -1 7 0 6 6 vvcurveto
          18 5 14 22 34 vhcurveto
          -4 19 47 -1 35 hhcurveto
          35 38 1 4 19 hvcurveto
          1 -8 0 -21 -20 vvcurveto
          -15 0 -13 -1 -8 -77 callgsubr
          hintmask 01001011
          -6 3 170 -6 151 hhcurveto
          106 98 3 13 -1 -82 callgsubr
          -12 -28 -30 -5 -33 hhcurveto
          -25 -28 3 7 -28 hvcurveto
          2 16 1 16 19 vvcurveto
          34 -3 39 -1 38 vhcurveto
          61 -66 callgsubr
          14 14 9 53 41 vvcurveto
          23 -3 18 -5 9 vhcurveto
          15 -3 -35 8 -29 hhcurveto
          -18 -15 -3 98 callsubr
          -5 -9 -4 -8 -10 vvcurveto
          -3 0 -3 1 -3 vhcurveto
          -3 -1 -30 0 -28 hhcurveto
          4 4 1 14 17 vvcurveto
          33 -4 42 -2 15 vhcurveto
          15 3 94 23 42 hhcurveto
          9 6 -1 -1 5 hvcurveto
          -3 -33 rlineto
          hintmask 10010101
          -74 callsubr
          12 -7 21 vhcurveto
          10 -48 -145 12 -138 hhcurveto
          -98 -95 -6 -20 -45 hvcurveto
          87 -163 rmoveto
          -70 0 -62 -1 -71 vhcurveto
          3 -18 -53 2 -26 hhcurveto
          -19 -2 -1 -3 -18 hvcurveto
          48 70 51 85 38 47 rrcurveto
          endchar
        </CharString>
        <CharString name="Aacute">
          11 callgsubr
          268 -103 callgsubr
          152 386 -101 callsubr
        </CharString>
        <CharString name="Acircumflex">
          11 callgsubr
          269 -103 callgsubr
          154 257 -104 callsubr
        </CharString>
        <CharString name="Adieresis">
          11 callgsubr
          107 155 hstem
          261 47 callsubr
          vstem
          -107 callsubr
          -24 270 -65 callsubr
          endchar
        </CharString>
        <CharString name="Agrave">
          11 callgsubr
          267 -103 callgsubr
          -179 385 -99 callgsubr
        </CharString>
        <CharString name="Aring">
          22 callgsubr
          340 26 -26 48 154 50 hstemhm
          273 66 140 43 hintmask 11011110
          418 926 rmoveto
          -85 -60 -82 -69 -53 34 -48 76 74 65 45 88 63 -34 56 -70 hvcurveto
          -79 -145 rmoveto
          41 36 54 48 34 22 -28 -34 -48 -45 -44 -41 -33 -21 28 31 vhcurveto
          187 -86 rmoveto
          hintmask 11101110
          -107 callgsubr
          endchar
        </CharString>
        <CharString name="Atilde">
          11 callgsubr
          105 21 callgsubr
          hintmask 11101010
          -107 callsubr
          188 363 -71 callsubr
          hintmask 11100100
          -83 callgsubr
          hintmask 11110010
          2 callgsubr
        </CharString>
        <CharString name="B">
          -22 -10 140 -118 -21 303 132 156 125 -1 -20 hstemhm
          46 231 -183 183 148 152 -152 181 hintmask 1010110100000000
          243 664 rmoveto
          14 -1 16 -3 10 vhcurveto
          2 -12 -61 0 -11 hhcurveto
          -62 -39 -13 -10 -5 hvcurveto
          -2 -5 -1 -35 -19 vvcurveto
          -34 3 -22 3 -4 vhcurveto
          -3 20 17 -2 18 hhcurveto
          hintmask 0111001100000000
          -9 -70 -4 -112 -71 vvcurveto
          -60 3 -59 5 -58 vhcurveto
          1 -5 -4 1 -6 hhcurveto
          -14 -22 -5 -10 -6 hvcurveto
          -5 -17 -2 -16 -17 vvcurveto
          -21 3 -20 4 -19 vhcurveto
          -8 31 39 -7 42 hhcurveto
          35 67 5 7 33 hvcurveto
          4 3 4 10 15 vvcurveto
          hintmask 1011010010000000
          -35 38 48 -6 31 hhcurveto
          119 70 92 96 62 -30 63 -72 41 hvcurveto
          hintmask 1011010100000000
          51 46 22 58 55 vvcurveto
          101 -74 103 -107 -47 -69 -20 -23 -37 vhcurveto
          182 -473 rmoveto
          -32 -18 -29 -36 -45 -49 48 53 39 26 24 33 51 38 -57 -46 vhcurveto
          293 vmoveto
          -36 -26 -22 -31 -44 -44 45 49 37 26 25 33 49 37 -54 -44 vhcurveto
          endchar
        </CharString>
        <CharString name="C">
          9 -6 55 callgsubr
          191 208 hintmask 10101100
          227 341 -47 callsubr
          hintmask 10011100
          -14 callgsubr
          hintmask 10101100
          -36 callgsubr
          hintmask 01101100
          -60 callsubr
          hintmask 10101100
          39 callsubr
          endchar
        </CharString>
        <CharString name="Ccedilla">
          9 53 callsubr
          242 55 callgsubr
          28 61 callsubr
          -53 208 hintmask 1001010100010000
          227 341 -47 callsubr
          hintmask 1001001110000000
          -14 callgsubr
          hintmask 1001010110000000
          -36 callgsubr
          hintmask 1000110100010000
          -60 callsubr
          hintmask 1001010100100000
          39 callsubr
          115 -446 -56 callgsubr
          hintmask 1001010110000000
          1 callgsubr
          hintmask 0011010110000000
          38 callsubr
          hintmask 0101010101000000
          -76 callsubr
        </CharString>
        <CharString name="D">
          43 -10 187 -187 209 291 211 -168 168 hstemhm
          108 192 178 186 hintmask 10011100
          291 526 rmoveto
          5 15 15 2 13 hhcurveto
          95 49 -106 -96 -107 -60 -47 -77 -16 -17 2 4 -17 hvcurveto
          6 54 3 57 57 vvcurveto
          57 -3 58 -6 60 vhcurveto
          -173 -329 rmoveto
          hintmask 01101100
          49 callsubr
          -30 vvcurveto
          -22 1 -38 13 -28 vhcurveto
          -31 79 62 -11 83 hhcurveto
          268 114 115 217 218 -116 161 -287 -81 -57 -13 -41 -72 86 callsubr
          -46 55 callsubr
          -8 -58 -4 -36 -56 vvcurveto
          -49 3 -48 7 -49 vhcurveto
          endchar
        </CharString>
        <CharString name="E">
          24 -27 callgsubr
          hstemhm
          93 238 hintmask 11011100
          -96 callgsubr
          hintmask 11100100
          -90 callgsubr
          hintmask 11011100
          -98 callsubr
          endchar
        </CharString>
        <CharString name="Eacute">
          24 -27 callgsubr
          236 -103 callsubr
          191 737 -101 callsubr
        </CharString>
        <CharString name="Ecircumflex">
          24 -27 callgsubr
          237 -103 callsubr
          188 608 -104 callsubr
        </CharString>
        <CharString name="Edieresis">
          21 -27 callgsubr
          76 84 callgsubr
          99 215 -203 217 -148 47 callsubr
          hintmask 1101110101000000
          299 -9 callgsubr
          13 -2 -41 8 -33 hhcurveto
          -12 -12 96 callgsubr
          -5 -9 -4 -8 -10 vvcurveto
          -3 0 -3 -76 callgsubr
          hintmask 1110011001000000
          -90 callgsubr
          hintmask 1101110101000000
          -21 callgsubr
          hintmask 1110011001000000
          -6 -87 -6 -88 -87 vvcurveto
          -35 1 -32 2 -34 -32 callgsubr
          -45 vvcurveto
          -19 1 -3 8 -11 -93 callsubr
          -2 622 rmoveto
          26 callgsubr
          hintmask 1110010011000000
          -104 callgsubr
          190 hmoveto
          9 callgsubr
          18 29 83 callsubr
          23 -16 16 vhcurveto
          14 -14 -21 3 -14 hhcurveto
          -19 -15 -28 callgsubr
          -104 callgsubr
          endchar
        </CharString>
        <CharString name="Egrave">
          24 -27 callgsubr
          235 -103 callsubr
          -96 736 -99 callgsubr
        </CharString>
        <CharString name="Eth">
          61 -10 180 340 -20 44 167 hstem
          112 201 187 186 vstem
          120 197 rmoveto
          49 callsubr
          -27 vvcurveto
          -37 4 -35 10 -19 vhcurveto
          -29 73 89 -13 71 hhcurveto
          209 184 112 218 225 -195 156 -219 -65 -85 -14 -40 -69 86 callsubr
          -26 55 callsubr
          -7 -23 -3 -23 -24 vvcurveto
          -19 2 -20 5 -20 vhcurveto
          -47 -6 rlineto
          -71 callgsubr
          16 -3 18 -2 16 -2 rrcurveto
          -6 -13 -2 -14 -14 vvcurveto
          -15 2 -16 4 -15 vhcurveto
          258 94 -25 callgsubr
          5 -14 -31 1 -20 hhcurveto
          142 vlineto
          5 16 4 3 17 hhcurveto
          93 57 -88 -111 -100 -47 -65 -71 -31 -24 0 13 -14 hvcurveto
          100 vlineto
          18 2 35 2 12 4 rrcurveto
          endchar
        </CharString>
        <CharString name="Euro">
          123 -6 194 -183 -21 256 86 65 86 66 164 4 -20 hstemhm
          124 196 191 208 hintmask 10111011
          421 249 rmoveto
          9 13 6 12 13 vvcurveto
          10 -4 10 -11 10 vhcurveto
          6 -34 -108 3 -35 hhcurveto
          -41 -111 -4 -5 -41 hvcurveto
          -9 -10 72 callgsubr
          109 -4 41 hhcurveto
          29 121 2 7 27 hvcurveto
          152 vmoveto
          9 13 6 12 12 vvcurveto
          11 -4 10 -11 9 vhcurveto
          6 -19 -119 3 -40 hhcurveto
          -40 -111 -3 -6 -41 hvcurveto
          -9 -9 72 callgsubr
          111 -5 33 hhcurveto
          30 147 4 6 6 hvcurveto
          -101 -60 -47 callsubr
          hintmask 10110111
          -14 callgsubr
          hintmask 10111011
          -36 callgsubr
          hintmask 01111011
          -60 callsubr
          hintmask 10111011
          39 callsubr
          endchar
        </CharString>
        <CharString name="F">
          -11 -14 152 89 225 12 246 -178 -20 31 167 hstemhm
          101 193 -186 186 hintmask 11100100
          114 534 rmoveto
          -8 -111 -5 -60 -69 vvcurveto
          hintmask 11011010
          -43 2 -50 5 -64 vhcurveto
          -7 -9 1 -6 hhcurveto
          -10 -28 71 callsubr
          -60 9 -12 vhcurveto
          -14 27 56 -6 58 hhcurveto
          76 79 10 15 19 hvcurveto
          2 0 46 2 33 -6 34 -4 5 hvcurveto
          3 -2 -13 1 -14 hhcurveto
          -15 -8 -1 -2 -6 hvcurveto
          -2 40 -3 50 57 vvcurveto
          50 2 rlineto
          -16 3 -20 9 -12 vhcurveto
          -4 4 24 -2 26 hhcurveto
          27 27 2 4 5 hvcurveto
          18 17 8 69 51 vvcurveto
          31 -3 24 -5 4 vhcurveto
          8 -13 -70 15 -29 hhcurveto
          -8 -6 -1 -2 -3 hvcurveto
          -7 -13 -4 -8 -12 vvcurveto
          -3 0 -25 1 -4 vhcurveto
          -3 -1 -22 0 -24 hhcurveto
          5 43 8 64 13 46 rrcurveto
          -49 callgsubr
          hintmask 11100100
          -80 callsubr
          -173 18 -132 hhcurveto
          -89 -83 -8 -22 -47 hvcurveto
          -7 -9 -4 -19 -21 vvcurveto
          -35 10 -42 19 -13 vhcurveto
          hintmask 11011100
          -21 callgsubr
          endchar
        </CharString>
        <CharString name="G">
          6 -6 185 -166 -21 505 213 -151 151 8 -20 hstemhm
          32 186 204 189 hintmask 10010110
          320 388 rmoveto
          -9 -5 -3 -38 -13 vvcurveto
          -13 3 -21 6 -5 vhcurveto
          -12 2 82 0 6 hhcurveto
          11 -16 4 -14 -13 vvcurveto
          -16 -7 -15 -8 -14 vhcurveto
          -9 -19 -20 -5 -22 hhcurveto
          -66 -62 43 128 111 47 98 108 22 26 -4 -9 28 hvcurveto
          -3 -9 -2 -6 -6 vvcurveto
          -9 4 -6 5 -4 vhcurveto
          hintmask 10100110
          -6 12 30 -3 29 hhcurveto
          33 30 4 6 3 hvcurveto
          14 39 7 52 40 vvcurveto
          22 -2 21 -5 20 vhcurveto
          hintmask 10001110
          13 -16 -22 4 -24 hhcurveto
          hintmask 10100110
          -24 -26 -4 -4 -22 hvcurveto
          -6 -17 4 -31 -8 hhcurveto
          25 -50 -49 12 -45 hhcurveto
          -157 -116 -149 -215 -243 148 -109 135 5 callgsubr
          hintmask 01100110
          -4 23 26 -4 24 hhcurveto
          24 22 4 13 16 hvcurveto
          9 46 3 54 49 vvcurveto
          105 -14 97 -11 25 vhcurveto
          21 -9 -82 13 -66 hhcurveto
          -64 -39 -12 -19 -12 hvcurveto
          endchar
        </CharString>
        <CharString name="H">
          112 21 -21 285 143 270 -20 hstem
          95 191 190 193 vstem
          487 100 callsubr
          -6 -45 -3 -44 -2 -44 rrcurveto
          11 -9 -42 4 -40 hhcurveto
          -45 -41 -5 -8 -10 hvcurveto
          -1 46 -3 36 -8 53 rrcurveto
          -86 callgsubr
          -22 callgsubr
          -87 callsubr
          3 44 4 51 2 50 rrcurveto
          -6 12 47 -2 43 hhcurveto
          43 33 2 6 12 hvcurveto
          1 -47 4 -47 6 -47 rrcurveto
          -96 callsubr
        </CharString>
        <CharString name="I">
          -269 21 -21 698 32 callgsubr
          -96 callsubr
        </CharString>
        <CharString name="Iacute">
          -269 63 callsubr
          270 62 callsubr
          341 922 -101 callgsubr
          -234 -376 rmoveto
          -22 callgsubr
          -96 callsubr
        </CharString>
        <CharString name="Icircumflex">
          -268 63 callsubr
          271 32 callgsubr
          19 callsubr
          -2 -20 -32 vvcurveto
          -23 1 -22 8 -10 vhcurveto
          -21 16 50 -7 88 hhcurveto
          57 43 -62 callsubr
          222 247 -104 callsubr
        </CharString>
        <CharString name="Idieresis">
          -268 63 callsubr
          109 84 callgsubr
          42 126 -73 194 -65 134 hintmask 11101000
          10 callsubr
          12 callgsubr
          hintmask 11110100
          -5 -5 -2 -20 -32 vvcurveto
          -23 1 -22 8 -10 vhcurveto
          -21 16 50 -7 88 hhcurveto
          57 43 -23 callgsubr
          hintmask 11101000
          -61 callgsubr
          hintmask 11110100
          -2 callsubr
          44 260 -65 callsubr
          endchar
        </CharString>
        <CharString name="Igrave">
          -268 63 callsubr
          269 32 callgsubr
          19 callsubr
          -2 -22 -23 vvcurveto
          -28 3 -28 4 -7 vhcurveto
          -20 9 80 -7 73 hhcurveto
          48 46 -62 callsubr
          -81 375 -91 callsubr
          -22 53 -42 45 rrcurveto
          1 -9 -9 1 -42 callgsubr
        </CharString>
        <CharString name="J">
          -38 -10 182 388 139 hstem
          339 202 vstem
          193 274 rmoveto
          9 -12 -64 73 callsubr
          -192 80 callsubr
          30 -2 30 hhcurveto
          21 42 95 callsubr
          5 10 18 5 hvcurveto
          -29 54 73 -19 42 hhcurveto
          139 77 202 220 50 -4 52 -9 51 hvcurveto
          -3 6 8 -2 23 hhcurveto
          17 3 1 4 3 hvcurveto
          11 13 1 29 22 vvcurveto
          22 -1 15 -2 8 vhcurveto
          17 -20 -99 8 -86 hhcurveto
          -52 -47 -3 -5 -25 hvcurveto
          -16 -27 -4 -28 -25 -13 1 -6 -9 vvcurveto
          -10 7 15 -4 15 hhcurveto
          14 15 3 7 9 hvcurveto
          9 -41 6 -64 -62 vvcurveto
          -120 -23 -120 -68 -20 -20 10 13 -20 vhcurveto
          4 28 3 23 20 vvcurveto
          2 0 6 -2 vhcurveto
          endchar
        </CharString>
        <CharString name="K">
          104 -7 156 -132 -21 549 155 -2 -20 hstemhm
          96 186 hintmask 10101000
          108 -7 callgsubr
          -40 callsubr
          -16 11 59 -18 68 hhcurveto
          46 83 8 8 6 -77 callsubr
          9 123 16 2 16 5 17 6 rlinecurve
          76 -54 53 -72 8 -18 rrcurveto
          -11 -26 -2 -11 -6 hvcurveto
          -6 -10 -2 -20 -20 vvcurveto
          -36 7 -28 15 -4 vhcurveto
          hintmask 01101000
          -8 11 67 -5 67 hhcurveto
          67 68 5 12 17 hvcurveto
          5 11 1 31 13 vvcurveto
          35 -7 29 -15 8 vhcurveto
          6 -6 -12 2 -25 hhcurveto
          -20 38 -79 119 -78 65 71 48 58 61 14 67 rrcurveto
          -1 4 5 0 4 hhcurveto
          21 18 7 6 14 hvcurveto
          4 10 2 20 19 vvcurveto
          28 -4 27 -8 9 vhcurveto
          19 -2 -100 10 -76 hhcurveto
          -42 -36 -3 -7 -7 hvcurveto
          -5 -12 -6 -38 -33 vvcurveto
          -19 2 -17 7 -7 vhcurveto
          -9 11 12 -5 15 hhcurveto
          4 5 0 1 4 hvcurveto
          -42 -67 -90 -31 -72 -17 -1 53 -3 5 -8 56 rrcurveto
          -69 callsubr
          hintmask 10011000
          -6 callsubr
          endchar
        </CharString>
        <CharString name="L">
          -5 -2 167 409 133 hstemhm
          99 194 -180 180 170 177 hintmask 11101000
          49 698 rmoveto
          -7 -11 -7 -41 -34 vvcurveto
          -13 1 -14 4 -5 vhcurveto
          -4 11 13 -2 14 hhcurveto
          10 11 1 2 10 hvcurveto
          -6 -71 -4 -15 -63 vvcurveto
          hintmask 11011000
          -63 4 -59 10 -132 vhcurveto
          hintmask 11101000
          1 -5 -4 1 -5 -16 callgsubr
          -50 93 callsubr
          -22 47 83 -8 89 hhcurveto
          132 173 18 18 53 -20 callgsubr
          63 -13 43 vhcurveto
          3 -16 -15 2 -15 hhcurveto
          -36 -35 -10 -22 -38 hvcurveto
          3 -63 rlineto
          -10 -15 -30 -3 -29 hhcurveto
          -32 -31 4 5 -2 hvcurveto
          -26 95 -7 71 105 vvcurveto
          40 1 53 2 38 vhcurveto
          -3 11 12 -1 11 hhcurveto
          22 19 4 4 11 hvcurveto
          4 4 2 12 15 vvcurveto
          30 -8 45 -7 12 vhcurveto
          6 -9 -77 3 -73 hhcurveto
          -73 -70 -3 -6 -22 hvcurveto
          endchar
        </CharString>
        <CharString name="M">
          156 0 149 549 -20 hstemhm
          98 182 -182 194 226 194 hintmask 11101000
          292 360 rmoveto
          -54 40 36 -27 36 hhcurveto
          37 37 28 54 40 hvcurveto
          -75 4 -67 70 callsubr
          -1 -10 40 callsubr
          -14 -2 -14 -3 -7 -4 rrcurveto
          -10 -11 -4 -23 -22 vvcurveto
          -26 6 -23 8 -8 vhcurveto
          -12 17 32 -15 117 hhcurveto
          30 59 1 8 18 hvcurveto
          14 4 11 48 41 vvcurveto
          13 -1 14 -4 9 vhcurveto
          9 -18 -16 2 -14 hhcurveto
          -6 -5 0 -1 -6 -15 callsubr
          7 10 4 27 25 vvcurveto
          21 -3 20 -8 8 vhcurveto
          22 -30 -78 5 -46 hhcurveto
          -68 -60 -11 -16 -11 -1 callsubr
          5 -3 11 -3 11 -2 -31 -35 -32 -38 -32 -39 -32 39 -31 37 -31 35 11 1 11 4 13 6 rrcurveto
          4 6 1 10 10 vvcurveto
          30 -8 39 -8 18 vhcurveto
          8 -8 -81 17 -62 hhcurveto
          -48 -73 -10 -17 -10 hvcurveto
          -5 -7 -2 -25 -25 vvcurveto
          -25 2 -25 5 -6 -31 callgsubr
          -22 callgsubr
          12 callgsubr
          -9 -11 -4 -23 -22 vvcurveto
          -26 5 -25 8 -6 vhcurveto
          -16 11 58 -11 76 hhcurveto
          38 74 0 26 38 hvcurveto
          10 11 4 19 19 vvcurveto
          26 -7 26 -9 11 -68 callsubr
          hintmask 11011000
          5 64 5 78 2 70 rrcurveto
          endchar
        </CharString>
        <CharString name="N">
          85 callsubr
          hstem
          100 193 187 194 vstem
          -97 callsubr
          endchar
        </CharString>
        <CharString name="Ntilde">
          85 callsubr
          87 21 callgsubr
          100 193 187 194 hintmask 11010111
          -97 callsubr
          67 353 -72 callgsubr
          endchar
        </CharString>
        <CharString name="O">
          7 callgsubr
          -4 callsubr
          438 702 -92 callgsubr
          endchar
        </CharString>
        <CharString name="OE">
          264 -15 171 111 186 11 248 -169 169 hstemhm
          31 197 hintmask 11011000
          541 -9 callgsubr
          11 -48 10 -30 -13 -10 -2 -3 -4 vhcurveto
          -6 -11 -3 -6 -10 99 callgsubr
          -4 -4 callgsubr
          5 41 2 40 2 44 rrcurveto
          -49 callgsubr
          hintmask 11101000
          -80 callsubr
          -114 20 -128 hhcurveto
          -311 -233 -119 -279 -264 208 -65 256 149 133 22 23 93 -90 callsubr
          -166 81 rmoveto
          -28 0 -34 2 -28 vhcurveto
          -96 10 -53 57 70 vvcurveto
          75 60 102 96 45 vhcurveto
          -9 -88 0 -92 -89 vvcurveto
          endchar
        </CharString>
        <CharString name="Oacute">
          7 callgsubr
          246 -20 -4 callsubr
          593 922 -101 callgsubr
          -155 -220 -92 callgsubr
          endchar
        </CharString>
        <CharString name="Ocircumflex">
          7 callgsubr
          247 -20 -4 callsubr
          546 793 -105 callgsubr
          -108 -91 -92 callgsubr
          endchar
        </CharString>
        <CharString name="Odieresis">
          7 callgsubr
          85 84 callgsubr
          28 212 7 47 callsubr
          -31 170 hintmask 11111100
          364 806 -65 callsubr
          -116 -104 -42 callsubr
          hvcurveto
          hintmask 11111010
          -88 callsubr
          endchar
        </CharString>
        <CharString name="Ograve">
          7 callgsubr
          245 -20 -4 callsubr
          438 702 -92 callgsubr
          18 616 -99 callgsubr
        </CharString>
        <CharString name="Oslash">
          89 -75 -21 86 187 332 -20 21 192 63 -20 -4 callsubr
          666 735 67 callsubr
          -20 -20 -19 -21 -19 -21 rrcurveto
          8 -24 -25 4 -33 hhcurveto
          -252 -166 -230 -199 -94 37 -89 84 -52 hvcurveto
          -12 -31 -12 -31 -11 -33 69 callgsubr
          22 24 22 23 21 25 rrcurveto
          -5 26 29 -3 31 hhcurveto
          203 162 124 251 99 -25 98 -56 63 hvcurveto
          14 36 11 37 12 37 rrcurveto
          -426 -430 rmoveto
          89 77 116 100 vhcurveto
          9 -2 -1 4 hhcurveto
          -61 -90 -53 -97 -48 -101 rrcurveto
          -17 23 -9 30 31 vvcurveto
          120 -128 rmoveto
          69 105 43 77 46 97 rrcurveto
          14 -22 8 -26 -31 vvcurveto
          -107 -98 -93 -82 vhcurveto
          endchar
        </CharString>
        <CharString name="Otilde">
          7 callgsubr
          83 21 callgsubr
          28 212 300 170 hintmask 11010111
          575 899 -72 callgsubr
          -137 -197 -92 callgsubr
          endchar
        </CharString>
        <CharString name="P">
          -3 -1 131 86 147 156 -20 40 165 2 -20 hstemhm
          116 217 154 152 hintmask 11101110
          463 706 56 callsubr
          12 -4 15 vhcurveto
          hintmask 11110110
          26 callsubr
          14 callgsubr
          -20 -29 83 callgsubr
          -8 -11 -5 -19 -19 vvcurveto
          -17 -8 callsubr
          3 18 3 32 26 vvcurveto
          15 -1 4 -1 4 12 callsubr
          hintmask 11110110
          -1 callgsubr
        </CharString>
        <CharString name="Q">
          94 -176 -21 187 187 333 192 -4 callsubr
          438 702 30 callsubr
          -230 -200 -148 94 -134 222 38 36 4 8 33 hvcurveto
          9 -18 9 -20 10 -19 rrcurveto
          -19 -31 -11 -21 -6 hvcurveto
          -1 -4 0 -4 -4 vvcurveto
          -35 26 -50 19 -8 vhcurveto
          -4 9 12 -1 11 hhcurveto
          74 124 45 37 33 hvcurveto
          5 8 3 14 17 vvcurveto
          36 -15 43 -19 9 vhcurveto
          3 -6 -7 77 callgsubr
          -17 -16 -7 -9 -11 hvcurveto
          -8 31 -9 31 -9 31 rrcurveto
          61 65 35 88 122 vvcurveto
          174 -71 160 -201 vhcurveto
          -75 callsubr
          endchar
        </CharString>
        <CharString name="R">
          62 -1 131 -109 -21 515 189 -165 165 2 -20 hstemhm
          114 190 -190 210 141 161 hintmask 10001101
          441 706 rmoveto
          -56 -45 -39 -17 -55 68 callgsubr
          hintmask 10100011
          6 -15 -29 4 -36 hhcurveto
          -60 -75 -11 -26 -18 hvcurveto
          -11 -12 -5 -27 -27 vvcurveto
          -32 7 -33 14 -10 vhcurveto
          -8 8 16 -3 16 hhcurveto
          12 12 2 3 7 4 callgsubr
          -20 -29 83 callgsubr
          -4 -9 0 -14 -24 vvcurveto
          -24 0 -13 4 -9 vhcurveto
          -13 4 77 52 callgsubr
          4 9 0 13 24 vvcurveto
          35 -1 5 -3 7 vhcurveto
          12 -11 -20 6 -18 hhcurveto
          -7 -7 -1 -2 -5 hvcurveto
          3 14 2 17 18 vvcurveto
          17 -2 20 -3 15 vhcurveto
          5 -2 119 -4 46 -110 rrcurveto
          2 -6 -6 2 -7 hhcurveto
          -6 -6 -2 98 callsubr
          -8 -8 -3 -14 -14 vvcurveto
          -26 10 -26 14 -5 vhcurveto
          hintmask 01001101
          -11 32 49 -6 91 callsubr
          8 8 5 19 20 9 callsubr
          20 -10 9 vhcurveto
          4 -10 -8 2 -8 hhcurveto
          -8 -6 -2 -2 -4 hvcurveto
          -4 21 -67 85 -83 58 rrcurveto
          63 32 38 79 77 vvcurveto
          114 -85 126 -100 vhcurveto
          -137 -278 rmoveto
          hintmask 10010101
          -1 callgsubr
        </CharString>
        <CharString name="S">
          42 callsubr
          90 callsubr
          hintmask 01110110
          86 235 41 callgsubr
          hintmask 10101110
          -26 callgsubr
          hintmask 10110110
          -10 callsubr
          hintmask 10101110
          -28 callsubr
        </CharString>
        <CharString name="Scaron">
          42 callsubr
          229 -20 90 callsubr
          hintmask 01110111
          447 931 -88 callgsubr
          -361 -696 41 callgsubr
          hintmask 10101111
          -26 callgsubr
          hintmask 10110111
          -10 callsubr
          hintmask 10101111
          -28 callsubr
        </CharString>
        <CharString name="T">
          87 21 -21 459 229 -139 139 -139 151 hstemhm
          270 201 hintmask 10101000
          223 27 rmoveto
          -16 11 59 -11 79 hhcurveto
          78 57 11 16 11 hvcurveto
          4 5 2 27 27 vvcurveto
          26 -2 24 -4 4 vhcurveto
          -7 4 -15 3 -13 2 rrcurveto
          2 -12 -10 1 -1 hhcurveto
          8 42 3 43 81 vvcurveto
          80 -3 87 -3 64 vhcurveto
          67 -2 13 -4 8 -5 17 -62 rcurveline
          hintmask 11001000
          -13 23 25 -4 26 hhcurveto
          28 28 5 5 25 hvcurveto
          5 19 2 27 27 vvcurveto
          43 -5 76 -9 27 vhcurveto
          hintmask 10011000
          3 -77 -130 9 -145 hhcurveto
          hintmask 11001000
          -146 -120 -9 -3 -77 hvcurveto
          -9 -27 -5 -76 -43 40 callgsubr
          5 -19 vhcurveto
          -5 25 28 -5 28 hhcurveto
          26 25 4 13 23 hvcurveto
          17 62 rlineto
          hintmask 10101000
          8 5 13 4 67 2 rrcurveto
          -3 -64 -3 -87 -80 vvcurveto
          -81 3 -43 14 callsubr
          endchar
        </CharString>
        <CharString name="Thorn">
          3 -1 131 36 147 176 167 -137 -20 205 -20 hstemhm
          116 210 161 152 hintmask 11101110
          463 656 56 callsubr
          62 -4 15 vhcurveto
          26 callsubr
          hintmask 11011110
          14 callgsubr
          -18 -27 -5 -13 -11 hvcurveto
          -6 -7 -7 -20 -23 vvcurveto
          -16 -8 callsubr
          4 11 2 11 10 vvcurveto
          6 -1 6 -1 5 12 callsubr
          -1 callgsubr
        </CharString>
        <CharString name="U">
          -38 callgsubr
          98 callgsubr
          214 201 hintmask 10011011
          -94 callgsubr
          hintmask 10100111
          -87 callgsubr
          hintmask 11000011
          -79 callsubr
          endchar
        </CharString>
        <CharString name="Uacute">
          -38 callgsubr
          266 -100 callgsubr
          -121 397 -101 callsubr
        </CharString>
        <CharString name="Ucircumflex">
          -38 callgsubr
          267 -100 callgsubr
          -158 268 -104 callsubr
        </CharString>
        <CharString name="Udieresis">
          -38 callgsubr
          105 155 98 callgsubr
          -53 134 60 130 -57 201 hintmask 1001101101000000
          -94 callsubr
          hintmask 1010011100100000
          -53 callsubr
          -87 callgsubr
          hintmask 1100001100100000
          -79 callsubr
          -340 281 rmoveto
          hintmask 1100001011000000
          -106 callsubr
          endchar
        </CharString>
        <CharString name="Ugrave">
          -38 callgsubr
          265 -100 callgsubr
          -471 396 -99 callgsubr
        </CharString>
        <CharString name="V">
          153 8 -21 573 140 hstem
          82 224 197 228 vstem
          528 5 rmoveto
          30 13 173 483 67 vvcurveto
          -3 2 14 -5 17 hhcurveto
          8 8 1 3 7 hvcurveto
          11 11 6 29 28 vvcurveto
          23 -4 22 -8 11 vhcurveto
          9 -10 -85 3 -61 hhcurveto
          -78 -95 -5 -6 hvcurveto
          -16 -10 -6 -40 -30 vvcurveto
          -12 1 -10 2 -6 vhcurveto
          -7 10 -9 16 6 23 1 3 vhcurveto
          4 0 -6 -2 -177 -48 -110 -51 -110 hvcurveto
          -50 128 -48 100 169 vvcurveto
          2 0 6 4 vhcurveto
          -3 23 -1 6 16 10 9 7 vhcurveto
          2 6 1 10 12 vvcurveto
          30 -6 40 -16 10 vhcurveto
          6 -95 5 -78 -61 -85 -3 -9 -10 vhcurveto
          -10 -16 -5 -23 -22 vvcurveto
          -27 7 -27 13 -9 vhcurveto
          -3 8 8 -2 8 hhcurveto
          12 12 4 5 13 hvcurveto
          -1 -1 0 -2 -2 vvcurveto
          -57 170 -489 29 -12 vhcurveto
          -9 12 53 -9 58 hhcurveto
          44 46 5 13 34 hvcurveto
          endchar
        </CharString>
        <CharString name="W">
          254 63 callsubr
          21 -20 hstemhm
          78 242 hintmask 11010000
          453 446 rmoveto
          -46 -48 -72 -36 -39 hvcurveto
          -2 70 -51 107 -19 35 rrcurveto
          -1 6 5 0 6 hhcurveto
          14 16 2 9 18 hvcurveto
          2 3 1 6 8 vvcurveto
          29 -15 70 -8 13 vhcurveto
          -6 callsubr
          7 -131 44 -137 59 -126 rrcurveto
          -11 -21 -6 -6 -6 hvcurveto
          -5 -5 -2 -22 -23 vvcurveto
          -28 3 -28 4 -7 vhcurveto
          -19 15 12 -8 94 hhcurveto
          47 52 2 7 13 65 callgsubr
          -13 6 -11 4 -11 1 31 35 21 47 32 39 32 -39 22 -48 31 -35 -11 -2 -11 -3 -5 -3 -38 callsubr
          -16 12 52 -11 88 hhcurveto
          37 40 2 7 4 65 callgsubr
          -14 8 -12 -3 -19 5 59 119 43 149 8 134 rrcurveto
          -59 callgsubr
          76 callsubr
          1 26 vvcurveto
          25 -1 37 -22 37 vhcurveto
          hintmask 10110000
          5 -21 -75 5 -68 hhcurveto
          -53 -49 -3 -9 -7 -27 callsubr
          11 -8 vhcurveto
          20 -12 5 -3 26 -9 -20 -56 -43 -78 -9 -75 rrcurveto
          38 -37 -51 71 -45 hhcurveto
          endchar
        </CharString>
        <CharString name="X">
          79 -4 134 452 121 hstem
          364 263 rmoveto
          36 -45 25 -58 53 -33 rrcurveto
          2 -6 -6 77 callgsubr
          -8 -8 -2 -5 -5 hvcurveto
          -6 -12 -6 -28 -25 vvcurveto
          -20 4 -19 12 -7 vhcurveto
          -8 49 33 -8 51 hhcurveto
          44 45 6 17 44 hvcurveto
          6 4 3 10 12 vvcurveto
          31 -17 46 -18 12 vhcurveto
          -7 -12 -1 -1 -3 hvcurveto
          -21 43 -7 72 -130 106 51 35 115 138 1 54 rrcurveto
          -3 10 2 0 14 hhcurveto
          14 15 7 25 24 vvcurveto
          15 -3 15 -4 11 vhcurveto
          15 -33 -49 6 -50 hhcurveto
          -36 -37 -3 -7 -33 hvcurveto
          -22 -18 -10 -22 -25 vvcurveto
          -13 3 -13 5 -14 vhcurveto
          -4 2 9 41 callsubr
          7 8 1 1 3 hvcurveto
          -43 -30 -45 -70 -33 -39 -50 72 -37 58 -22 9 rrcurveto
          -1 6 6 -1 6 hhcurveto
          6 5 1 4 7 hvcurveto
          6 8 3 12 12 vvcurveto
          30 -16 36 -26 9 vhcurveto
          6 -30 -20 3 -41 hhcurveto
          -52 -54 -5 -15 -38 hvcurveto
          -3 -12 -1 -13 -12 vvcurveto
          -33 8 -31 18 -18 vhcurveto
          9 8 1 3 10 hvcurveto
          1 -54 105 -126 54 -35 rrcurveto
          -54 -34 -106 -137 -50 vvcurveto
          1 -11 -2 1 -13 hhcurveto
          -15 -21 -14 -34 -30 vvcurveto
          -11 2 -11 4 -9 vhcurveto
          -16 36 47 -6 50 hhcurveto
          41 24 4 7 37 hvcurveto
          25 5 10 48 36 vvcurveto
          11 0 9 -2 7 vhcurveto
          5 -6 -8 1 -9 hhcurveto
          -5 -6 0 -1 -5 hvcurveto
          35 21 45 74 32 40 rrcurveto
          endchar
        </CharString>
        <CharString name="Y">
          26 20 -21 703 -20 hstem
          608 514 -89 callgsubr
        </CharString>
        <CharString name="Yacute">
          26 20 -21 703 -20 268 -20 hstem
          608 514 rmoveto
          36 callsubr
          6 15 5 13 7 26 2 7 4 17 4 28 rrcurveto
          51 -50 -124 46 -87 hhcurveto
          -15 -10 -23 -76 -1 -17 -43 callsubr
          32 -14 48 -25 22 vhcurveto
          -113 -18 -88 95 callgsubr
          8 -34 14 -37 -83 callsubr
          -100 410 rmoveto
          17 -24 -27 9 -30 hhcurveto
          -10 -8 0 -2 -9 hvcurveto
          -42 -45 -23 -99 callsubr
          endchar
        </CharString>
        <CharString name="Ydieresis">
          26 20 -21 703 -20 105 155 hstem
          194 134 36 134 vstem
          311 806 rmoveto
          -106 callgsubr
          170 hmoveto
          -106 callgsubr
          127 -292 -89 callgsubr
        </CharString>
        <CharString name="Z">
          50 callgsubr
          hstemhm
          hintmask 10110100
          325 186 -19 callgsubr
          hintmask 10111000
          -66 callsubr
          hintmask 01110100
          -33 callgsubr
        </CharString>
        <CharString name="Zcaron">
          50 callgsubr
          270 -20 hstemhm
          hintmask 10110110
          540 946 -88 callgsubr
          -215 -760 -19 callgsubr
          hintmask 10111010
          -66 callsubr
          hintmask 01110110
          -33 callgsubr
        </CharString>
        <CharString name="a">
          -30 -16 165 -136 -21 355 166 -149 149 -1 -12 callgsubr
          hintmask 10100110
          182 -16 rmoveto
          43 49 41 15 47 -48 callsubr
          hintmask 01100101
          -91 callgsubr
          hintmask 10010110
          -97 callgsubr
          hintmask 10001110
          -10 callgsubr
          -166 -138 -114 46 -110 110 hvcurveto
          -11 290 rmoveto
          hintmask 10100110
          44 19 37 29 40 hhcurveto
          -41 callsubr
          14 3 16 9 17 hvcurveto
          endchar
        </CharString>
        <CharString name="aacute">
          -45 callsubr
          256 -100 callsubr
          232 375 -101 callsubr
        </CharString>
        <CharString name="acircumflex">
          -45 callsubr
          257 -100 callsubr
          206 246 -104 callsubr
        </CharString>
        <CharString name="acute">
          179 608 78 callgsubr
          572 722 -101 callsubr
        </CharString>
        <CharString name="adieresis">
          -45 callsubr
          95 155 54 callsubr
          5 134 40 180 -164 134 -134 234 hintmask 0110011101000000
          281 606 -65 callsubr
          -296 -622 -65 callgsubr
          hintmask 1010011100100000
          -91 callgsubr
          hintmask 1001011110000000
          -97 callgsubr
          hintmask 0100111110000000
          -63 callsubr
          hintmask 1010011110000000
          -69 callgsubr
          endchar
        </CharString>
        <CharString name="ae">
          169 -16 141 -141 165 -165 215 -188 -21 23 -21 29 -21 201 92 54 163 -104 104 2 -20 23 -20 54 callsubr
          179 144 -144 173 150 108 hintmask 0010001100011010
          -53 callgsubr
          hintmask 0000101100011010
          -2 8 85 -2 19 hhcurveto
          23 7 3 4 20 hvcurveto
          hintmask 0001001100011010
          -5 23 27 -4 27 hhcurveto
          58 32 18 29 30 hvcurveto
          hintmask 0000011100011010
          -13 7 24 -24 29 hhcurveto
          29 16 37 41 4 34 rrcurveto
          hintmask 0010001100011010
          57 -9 -39 51 -24 hhcurveto
          hintmask 1000001100011010
          -29 -37 -74 -87 hhcurveto
          -56 -51 31 71 58 callsubr
          -109 -24 -24 -3 -6 -23 hvcurveto
          hintmask 1000001000111010
          9 -26 -19 5 -39 hhcurveto
          -48 -28 -8 -22 -25 hvcurveto
          1 -17 0 -17 -17 vvcurveto
          hintmask 0010001001011010
          -63 callsubr
          hintmask 0100001100010110
          -69 callgsubr
          244 -21 rmoveto
          hintmask 1000001010010110
          -45 callgsubr
          endchar
        </CharString>
        <CharString name="agrave">
          -45 callsubr
          255 -100 callsubr
          -112 374 -99 callgsubr
        </CharString>
        <CharString name="ampersand">
          107 -12 154 -136 -21 607 137 hstemhm
          26 162 -113 175 124 129 hintmask 10101100
          464 265 rmoveto
          -20 25 -38 37 -38 39 rrcurveto
          91 44 44 78 77 vvcurveto
          85 -54 79 -139 -145 -90 -86 -107 -51 21 -58 46 -67 vhcurveto
          hintmask 10110100
          -73 -40 -43 -86 -80 vvcurveto
          -87 50 -79 117 60 74 20 44 74 vhcurveto
          hintmask 01101100
          28 -31 24 -25 10 -11 158 110 rcurveline
          -9 8 -19 21 -24 26 37 35 36 44 34 50 rrcurveto
          -14 3 16 -24 16 hhcurveto
          4 2 64 49 8 vvcurveto
          -2 30 -117 131 -47 24 -28 -12 -23 -19 -24 -21 5 -9 26 -24 8 -10 -13 -31 -45 -49 -55 -45 rrcurveto
          -214 266 rmoveto
          34 23 27 37 32 32 -20 -28 -26 -25 -35 -58 -35 vhcurveto
          -24 31 -17 22 30 vvcurveto
          -19 -255 rmoveto
          24 -33 30 -31 28 -33 rrcurveto
          hintmask 10110100
          -26 -25 -27 -11 -21 hhcurveto
          -31 -21 22 31 24 12 29 31 28 hvcurveto
          endchar
        </CharString>
        <CharString name="aring">
          -45 callsubr
          45 50 124 52 54 callsubr
          70 65 44 107 -107 180 -180 250 -180 37 hintmask 1010011110001000
          359 763 rmoveto
          -76 -54 -73 -63 -47 30 -43 70 65 51 38 82 54 -22 52 -64 hvcurveto
          -65 -129 rmoveto
          34 30 43 39 29 16 -23 -27 vhcurveto
          hintmask 0110011110010000
          -40 -36 -34 -34 -27 -17 22 25 vhcurveto
          -119 -650 -65 callgsubr
          hintmask 1010011110010000
          -91 callgsubr
          hintmask 1001011110100000
          -97 callgsubr
          hintmask 0100111111000000
          -63 callsubr
          hintmask 1010011111000000
          -69 callgsubr
          endchar
        </CharString>
        <CharString name="asciicircum">
          179 516 -21 164 -20 hstem
          454 503 -104 callsubr
        </CharString>
        <CharString name="asciitilde">
          -70 165 71 callgsubr
          552 279 -71 callsubr
          hintmask 01010000
          -66 -166 -84 callgsubr
          hintmask 10001000
          72 167 -20 callsubr
          endchar
        </CharString>
        <CharString name="asterisk">
          -250 330 -21 22 -21 205 -20 22 -20 122 -20 hstemhm
          168 65 hintmask 01101100
          360 486 rmoveto
          2 5 1 5 4 vvcurveto
          8 -4 5 -9 2 vhcurveto
          -41 -40 -5 -16 -38 hvcurveto
          1 11 1 12 12 vvcurveto
          27 -5 28 -11 28 vhcurveto
          4 -6 -5 3 -6 hhcurveto
          -5 -6 -2 -5 -5 hvcurveto
          -8 -22 -8 -23 -35 vvcurveto
          hintmask 01011100
          -18 2 -6 -11 vvcurveto
          2 -3 -63 18 -35 hhcurveto
          hintmask 01101100
          -8 -5 -1 -1 -4 hvcurveto
          -7 -6 -4 -9 -7 -4 1 -1 -2 vvcurveto
          32 -27 36 -19 40 -6 -31 -29 -14 -38 -12 -40 rrcurveto
          -12 3 8 -5 14 hhcurveto
          32 21 30 24 21 42 24 -48 29 -23 29 -16 rrcurveto
          hintmask 10101100
          -1 2 3 0 2 hhcurveto
          10 9 7 11 hvcurveto
          -12 44 -18 38 -28 25 40 10 40 13 29 29 rrcurveto
          endchar
        </CharString>
        <CharString name="at">
          271 -175 117 80 144 172 146 106 118 hstemhm
          46 121 44 117 158 160 -160 224 57 121 hintmask 1111111010000000
          341 16 rmoveto
          52 31 35 15 48 hvcurveto
          -2 -3 -1 -3 -4 vvcurveto
          -10 4 -12 3 -7 vhcurveto
          -3 27 26 -2 24 hhcurveto
          215 120 113 201 227 -149 145 -217 -274 -202 -232 -279 -237 146 -135 237 100 88 24 31 68 hvcurveto
          -47 108 rlineto
          -28 -54 -70 -18 -75 hhcurveto
          -160 -112 82 188 219 151 159 189 143 117 -90 -178 -91 -31 -65 -53 -13 -15 4 12 -17 hvcurveto
          3 4 5 68 56 vvcurveto
          25 -1 15 -2 4 vhcurveto
          -1 5 7 -1 8 hhcurveto
          16 19 5 12 9 hvcurveto
          hintmask 1111110110000000
          2 6 1 5 79 callgsubr
          -1 6 -2 6 vhcurveto
          15 -16 -71 1 -18 hhcurveto
          -44 -36 -4 -21 -25 hvcurveto
          1 -15 0 -15 -15 vvcurveto
          -2 -20 69 -84 hhcurveto
          -123 -58 -149 -119 -105 45 -95 85 hvcurveto
          82 322 rmoveto
          38 25 -32 -39 -55 -51 -50 -46 -38 -23 33 36 49 44 58 51 hvcurveto
          endchar
        </CharString>
        <CharString name="atilde">
          -45 callsubr
          93 105 -57 57 -57 105 6 -12 callgsubr
          hintmask 0110010011100000
          -53 callgsubr
          hintmask 1010010011010000
          -91 callgsubr
          hintmask 1001010011100000
          -97 callgsubr
          hintmask 0100110011100000
          -63 callsubr
          hintmask 1010001011100000
          -69 callgsubr
          254 352 -71 callsubr
          hintmask 1010000101100000
          -83 callgsubr
          hintmask 1010010011100000
          2 callgsubr
        </CharString>
        <CharString name="b">
          -43 80 callgsubr
          96 150 hstemhm
          14 248 -169 188 160 145 hintmask 01110110
          410 -8 rmoveto
          113 63 151 111 91 callgsubr
          -36 45 callgsubr
          -66 6 -53 hhcurveto
          -99 -17 -21 2 hvcurveto
          -4 -9 0 -23 -24 vvcurveto
          -39 78 callsubr
          -11 7 39 86 callgsubr
          -44 -2 -67 -87 vvcurveto
          -88 2 -101 8 -45 vhcurveto
          1 -3 -9 101 callgsubr
          -15 -31 -3 -4 -18 hvcurveto
          hintmask 10111010
          59 callgsubr
          53 87 callgsubr
          4 15 1 12 8 vvcurveto
          5 0 3 -1 1 vhcurveto
          hintmask 01111010
          -17 54 35 -39 57 hhcurveto
          31 254 rmoveto
          hintmask 10111010
          -40 -26 -37 -43 74 callgsubr
          vhcurveto
          endchar
        </CharString>
        <CharString name="backslash">
          94 callgsubr
          24 702 rmoveto
          95 -303 154 -271 223 -235 rrcurveto
          -15 18 16 -7 12 hhcurveto
          17 11 13 26 6 hvcurveto
          -107 307 -146 277 -219 225 rrcurveto
          9 -17 -14 4 -12 hhcurveto
          -18 -12 -10 -20 -7 hvcurveto
          endchar
        </CharString>
        <CharString name="bar">
          -425 -177 -21 929 -20 hstemhm
          54 101 -80 80 -80 100 hintmask 11100000
          155 -173 rmoveto
          hintmask 11001000
          52 callsubr
          hintmask 11010000
          -6 callgsubr
          hintmask 11100000
          10 callgsubr
          endchar
        </CharString>
        <CharString name="braceleft">
          -230 -123 87 658 87 hstemhm
          -9 156 -21 105 -72 72 -72 126 hintmask 11010000
          407 -104 rmoveto
          6 13 6 13 11 vvcurveto
          12 -6 11 -17 8 vhcurveto
          -143 -22 24 33 hvcurveto
          hintmask 11100100
          52 54 44 48 78 -138 33 16 15 138 32 81 vvcurveto
          hintmask 11010000
          50 -54 43 51 vvcurveto
          34 24 24 146 vhcurveto
          9 13 7 12 12 vvcurveto
          10 -4 11 -12 10 vhcurveto
          11 -36 -46 8 -42 hhcurveto
          -79 -72 -28 -78 hvcurveto
          hintmask 11101000
          -53 33 -83 -43 vvcurveto
          -73 -96 -4 -49 vhcurveto
          -15 -12 -8 -19 -19 vvcurveto
          -24 12 -23 22 -10 vhcurveto
          88 -13 46 -9 -55 vvcurveto
          hintmask 11010000
          -46 -33 -81 -53 vvcurveto
          -78 72 -28 81 43 48 8 11 37 vhcurveto
          endchar
        </CharString>
        <CharString name="braceright">
          -229 -123 87 658 87 hstemhm
          140 126 -72 72 -72 105 -21 156 hintmask 11010100
          18 690 rmoveto
          -6 -13 -6 -13 -11 vvcurveto
          -12 6 -11 17 -8 vhcurveto
          143 22 -24 -33 hvcurveto
          hintmask 11100100
          -52 -54 -44 -48 -78 138 -33 -16 -15 -138 -32 -81 vvcurveto
          hintmask 11001000
          -50 54 -43 -51 vvcurveto
          -34 -24 -24 -146 vhcurveto
          -9 -13 -7 -12 -12 vvcurveto
          -10 4 -11 12 -10 vhcurveto
          -11 36 46 -8 42 hhcurveto
          79 72 28 78 hvcurveto
          hintmask 11100100
          53 -33 83 43 vvcurveto
          73 96 4 49 vhcurveto
          15 12 8 19 19 vvcurveto
          24 -12 23 -22 10 vhcurveto
          -88 13 -46 9 55 vvcurveto
          hintmask 11001000
          46 33 81 53 vvcurveto
          78 -72 28 -81 -43 -48 -8 -11 -37 vhcurveto
          endchar
        </CharString>
        <CharString name="bracketleft">
          88 callsubr
          51 148 vstem
          371 -144 rmoveto
          5 12 4 11 10 vvcurveto
          13 -6 12 -14 10 vhcurveto
          8 -32 -32 5 -32 hhcurveto
          -28 -29 -4 -9 -29 hvcurveto
          14 111 7 113 110 vvcurveto
          110 -7 106 -14 108 vhcurveto
          -9 29 28 -4 29 hhcurveto
          33 34 5 8 33 hvcurveto
          8 11 4 11 11 vvcurveto
          12 -4 11 -8 12 vhcurveto
          12 -39 -38 4 -39 hhcurveto
          -52 -52 -7 -9 -51 hvcurveto
          -28 -132 -14 -131 -130 vvcurveto
          -135 15 -133 27 -133 vhcurveto
          -9 55 54 -7 53 hhcurveto
          40 38 4 12 38 hvcurveto
          endchar
        </CharString>
        <CharString name="bracketright">
          88 callsubr
          187 148 vstem
          15 -144 rmoveto
          -12 38 38 -4 40 hhcurveto
          53 54 7 9 55 hvcurveto
          27 133 15 133 135 vvcurveto
          130 -14 131 -28 132 vhcurveto
          9 -51 -52 7 -52 hhcurveto
          -39 -38 -4 -12 -39 hvcurveto
          -8 -12 -4 -11 -12 vvcurveto
          -11 4 -11 8 -11 vhcurveto
          -8 33 34 -5 33 hhcurveto
          29 28 4 9 29 hvcurveto
          -14 -108 -7 -106 -110 vvcurveto
          -110 7 -113 14 -111 vhcurveto
          9 -29 -29 4 -28 hhcurveto
          -32 -32 -5 -8 -32 hvcurveto
          -14 -10 -6 -12 -13 vvcurveto
          -10 4 -11 5 -12 vhcurveto
          endchar
        </CharString>
        <CharString name="brokenbar">
          -424 -159 -21 864 -20 hstem
          60 111 vstem
          158 669 rmoveto
          -19 callsubr
          -460 vmoveto
          -19 callsubr
          endchar
        </CharString>
        <CharString name="bullet">
          -304 177 -21 304 -20 hstem
          273 194 rmoveto
          22 41 11 40 79 callgsubr
          -10 38 -23 38 vhcurveto
          20 -33 -34 12 -32 hhcurveto
          -31 -33 -11 -21 -32 hvcurveto
          -24 -38 -10 -34 -36 vvcurveto
          -42 14 -43 20 -41 vhcurveto
          -27 32 30 -11 30 hhcurveto
          35 35 16 22 33 hvcurveto
          endchar
        </CharString>
        <CharString name="c">
          -84 -29 31 callgsubr
          hintmask 10010100
          543 17 callgsubr
          hintmask 01001100
          23 callsubr
          hintmask 10100100
          -44 callsubr
          rlineto
          hintmask 01001100
          28 callsubr
          hintmask 10100100
          -13 callsubr
          endchar
        </CharString>
        <CharString name="ccedilla">
          -84 53 callsubr
          219 31 callgsubr
          2 61 callsubr
          hintmask 1001001011000000
          543 17 callgsubr
          hintmask 1000100111000000
          23 callsubr
          hintmask 1001010011000000
          -44 callsubr
          rlineto
          hintmask 1000100111000000
          28 callsubr
          hintmask 1001010010010000
          -13 callsubr
          -257 -613 -56 callgsubr
          hintmask 1001010011000000
          1 callgsubr
          hintmask 0011010011000000
          38 callsubr
          hintmask 0100110010100000
          -76 callsubr
        </CharString>
        <CharString name="cedilla">
          179 53 callsubr
          257 -20 hstemhm
          252 61 callsubr
          hintmask 10010010
          339 -105 -56 callgsubr
          hintmask 10011000
          1 callgsubr
          hintmask 00111000
          38 callsubr
          hintmask 01010100
          -76 callsubr
        </CharString>
        <CharString name="cent">
          -41 -89 -21 81 242 104 224 -31 -20 153 -20 hstemhm
          37 171 63 56 hintmask 11101110
          554 17 callgsubr
          hintmask 11011110
          -8 -25 rlineto
          -19 -18 -1 -1 -17 hvcurveto
          -4 42 -2 43 -5 42 rrcurveto
          6 -11 1 2 -8 hhcurveto
          -16 1 -10 -8 -11 hvcurveto
          -5 -42 -4 -42 -3 -42 rrcurveto
          -152 -31 -75 -93 -148 vvcurveto
          -169 97 -70 135 -1 vhcurveto
          7 -87 rlineto
          -7 11 0 -3 9 hhcurveto
          14 1 7 14 9 hvcurveto
          2 26 2 27 1 26 21 3 22 3 22 4 9 -27 rcurveline
          -44 callsubr
          -6 -4 -6 -3 -6 -3 rlinecurve
          2 54 1 54 54 vvcurveto
          68 vlineto
          9 -1 10 -2 10 -3 -7 -34 rcurveline
          hintmask 11101110
          -13 callsubr
          -283 -212 rmoveto
          -56 1 -55 2 -56 vhcurveto
          -39 3 -27 53 53 vvcurveto
          49 24 52 39 23 vhcurveto
          endchar
        </CharString>
        <CharString name="circumflex">
          179 606 -21 164 -20 hstem
          454 593 -104 callsubr
        </CharString>
        <CharString name="colon">
          -386 -21 189 151 189 hstem
          53 162 vstem
          194 3 -62 callgsubr
          340 vmoveto
          -93 callgsubr
          endchar
        </CharString>
        <CharString name="comma">
          -419 -73 -21 258 -20 hstem
          205 156 rmoveto
          -46 callsubr
        </CharString>
        <CharString name="copyright">
          135 -1 129 66 111 90 150 -100 100 -39 -20 55 -20 78 134 hstemhm
          43 143 56 120 253 128 hintmask 1110001111000000
          464 733 rmoveto
          -248 -173 -238 -204 -154 98 -138 224 211 167 122 269 176 -72 167 -207 hvcurveto
          -278 -426 rmoveto
          128 110 164 146 95 78 -69 -132 -153 -105 -117 -145 -129 -50 93 86 vhcurveto
          252 106 rmoveto
          -1 -2 0 -2 -2 99 callgsubr
          -2 1 -1 vhcurveto
          -4 11 9 -3 13 hhcurveto
          13 14 3 4 12 hvcurveto
          11 16 3 20 20 vvcurveto
          16 -2 47 -3 16 vhcurveto
          4 -5 -22 1 -14 hhcurveto
          hintmask 1100111111000000
          -14 -6 -1 -4 hhcurveto
          -2 -7 1 -33 -3 hhcurveto
          hintmask 1101001111000000
          28 -33 -28 11 -24 hhcurveto
          -66 -52 -87 -87 -88 53 -89 67 23 28 11 26 32 hvcurveto
          -7 3 -28 6 -1 vhcurveto
          4 10 -1 15 hhcurveto
          14 18 95 callsubr
          17 2 46 16 vvcurveto
          20 -3 20 -11 16 vhcurveto
          4 -12 -14 3 -14 hhcurveto
          -11 -11 -2 -5 -10 hvcurveto
          -1 -1 0 -1 -2 -3 1 -2 -2 vvcurveto
          -12 -18 -13 -6 -11 hhcurveto
          -24 -10 24 29 41 20 46 22 10 14 -9 -23 10 hvcurveto
          endchar
        </CharString>
        <CharString name="currency">
          64 20 -21 78 159 37 callsubr
          53 -20 hstem
          100 11 callsubr
          vstem
          403 597 rmoveto
          -58 -57 -19 -31 -45 hvcurveto
          -12 16 -14 16 -12 13 -18 19 -30 23 92 callgsubr
          -9 -9 -7 -12 -4 -17 15 -29 12 -17 28 -29 17 -18 10 -8 16 -12 rrcurveto
          -46 -58 -25 -72 -67 vvcurveto
          -44 11 -43 24 -34 vhcurveto
          -14 -11 -12 -11 -11 -11 -23 -23 -18 -24 -14 -28 4 -17 7 -12 9 -9 9 -9 12 -6 14 -3 29 16 26 20 22 22 10 10 12 14 15 19 rrcurveto
          -15 32 41 -8 46 hhcurveto
          51 46 10 21 39 hvcurveto
          13 -18 15 -18 15 -15 22 -22 26 -20 29 -16 14 3 12 6 9 9 9 9 7 12 4 17 -15 30 -19 24 -21 21 -14 14 -16 13 -15 12 rrcurveto
          35 44 21 61 76 vvcurveto
          45 -7 43 -14 38 vhcurveto
          18 13 17 15 15 15 23 23 18 24 14 28 -4 17 -7 12 -9 9 -9 9 -12 6 -14 3 -29 -16 -27 -21 -21 -21 -5 -5 -15 -17 -9 -12 rrcurveto
          24 -29 -37 15 -52 hhcurveto
          -110 -284 -75 callgsubr
          endchar
        </CharString>
        <CharString name="d">
          -24 80 callgsubr
          246 -20 hstemhm
          25 153 142 223 -186 186 hintmask 01111100
          201 -8 rmoveto
          57 35 39 17 54 hvcurveto
          -1 -1 0 -3 -5 vvcurveto
          -8 1 -12 4 -15 vhcurveto
          hintmask 10111100
          -1 27 43 -3 42 hhcurveto
          107 28 19 12 11 -48 callgsubr
          4 -18 -21 3 -15 hhcurveto
          -5 -9 0 -1 -3 hvcurveto
          8 45 2 101 88 87 -2 66 44 vvcurveto
          -1 4 6 0 6 hhcurveto
          20 29 7 11 7 -55 callsubr
          -16 21 -100 -53 -91 -6 -24 -28 vhcurveto
          -5 -10 0 -46 -53 -71 3 -30 -18 vvcurveto
          8 -28 -26 4 -24 hhcurveto
          -143 -77 -135 -123 hvcurveto
          hintmask 01111010
          -111 63 -151 113 vhcurveto
          85 375 rmoveto
          43 28 -36 -44 hvcurveto
          hintmask 10111100
          -15 callgsubr
          56 50 64 58 vhcurveto
          endchar
        </CharString>
        <CharString name="dagger">
          -302 -177 -21 416 111 402 -20 hstemhm
          39 198 -121 101 -101 197 -176 80 -80 100 hintmask 11101000
          217 -173 rmoveto
          hintmask 11100001
          52 callsubr
          hintmask 11100010
          -6 callgsubr
          hintmask 11101000
          54 callgsubr
          hintmask 11100010
          -7 callsubr
          81 404 rmoveto
          hintmask 11100100
          -72 callsubr
          8 -37 -36 97 callsubr
          -46 -5 -6 -45 hvcurveto
          hintmask 11110000
          -71 callgsubr
          -7 47 45 -6 48 hhcurveto
          34 37 74 callsubr
        </CharString>
        <CharString name="daggerdbl">
          -162 -177 -21 416 111 59 111 232 -20 hstemhm
          186 101 -80 80 -80 100 hintmask 11111000
          287 -173 rmoveto
          hintmask 11110010
          52 callsubr
          hintmask 11110100
          -6 callgsubr
          hintmask 11111000
          10 callgsubr
          156 404 rmoveto
          -82 callsubr
          170 vmoveto
          -82 callsubr
          endchar
        </CharString>
        <CharString name="degree">
          -39 callgsubr
        </CharString>
        <CharString name="dieresis">
          179 587 155 hstem
          196 47 callsubr
          vstem
          313 606 -65 callsubr
          endchar
        </CharString>
        <CharString name="divide">
          -16 -21 189 35 111 35 189 hstem
          246 162 cntrmask 11100000
          591 216 -25 callgsubr
          2 -39 -45 9 -128 hhcurveto
          -95 -188 -5 -6 -51 -67 callgsubr
          -5 74 119 -8 87 hhcurveto
          61 199 4 9 6 hvcurveto
          -204 -213 -62 callgsubr
          370 vmoveto
          -93 callgsubr
          endchar
        </CharString>
        <CharString name="dollar">
          -34 -111 -21 132 216 -206 -21 732 -20 144 -20 hstemhm
          40 196 22 71 -54 82 22 199 hintmask 1101110110000000
          275 -110 rmoveto
          -14 8 14 -8 13 hhcurveto
          9 13 4 6 11 hvcurveto
          3 41 3 41 2 40 rrcurveto
          117 8 110 101 141 vvcurveto
          147 -120 24 -99 5 vhcurveto
          41 -1 45 -1 45 vhcurveto
          28 27 -10 -24 20 hvcurveto
          1 -14 -1 -7 7 -17 rrcurveto
          -7 10 47 -3 34 hhcurveto
          30 52 13 57 59 vvcurveto
          23 -2 24 -4 25 vhcurveto
          3 -11 -26 3 -30 hhcurveto
          -17 -10 -1 -3 -7 hvcurveto
          -13 -6 -11 -13 -4 -15 -27 20 -30 11 -30 4 -8 108 rcurveline
          9 -11 -12 10 -16 hhcurveto
          -7 -11 -2 -7 -11 hvcurveto
          -3 -30 -3 -42 -2 -48 rrcurveto
          -136 -18 -91 -106 -134 vvcurveto
          -126 80 -35 72 vhcurveto
          hintmask 1101111010000000
          12 31 1 23 hhcurveto
          -51 1 -52 2 -51 vhcurveto
          -23 2 -24 9 -20 17 rrcurveto
          10 0 8 -6 15 vhcurveto
          7 -10 -41 4 -23 -11 -2 -1 -5 hhcurveto
          -32 -7 -9 -73 -63 vvcurveto
          -29 2 -29 4 -12 vhcurveto
          hintmask 1011110110000000
          -8 8 26 -5 24 hhcurveto
          19 18 3 7 7 hvcurveto
          14 11 10 8 7 18 23 -13 25 -10 25 -6 2 -38 4 -39 2 -40 rrcurveto
          104 350 rmoveto
          hintmask 1101111010000000
          -27 -18 -32 -32 -20 vhcurveto
          1 45 1 45 43 vvcurveto
          34 -9 14 -21 -24 vvcurveto
          -143 243 rmoveto
          28 18 23 27 11 vhcurveto
          -1 -38 -1 -37 -34 vvcurveto
          -31 11 -12 14 22 vvcurveto
          endchar
        </CharString>
        <CharString name="e">
          -12 callsubr
          6 callgsubr
          hintmask 10111010
          -61 callsubr
          hintmask 01111010
          -85 callsubr
          hintmask 10111010
          -70 callgsubr
          hintmask 10110110
          -109 -184 rmoveto
          -45 callgsubr
          endchar
        </CharString>
        <CharString name="eacute">
          -12 callsubr
          238 -95 callgsubr
          237 396 -101 callsubr
        </CharString>
        <CharString name="ecircumflex">
          -12 callsubr
          239 -95 callgsubr
          221 267 -104 callsubr
        </CharString>
        <CharString name="edieresis">
          -12 callsubr
          77 155 20 callsubr
          -88 47 callsubr
          -86 135 hintmask 1011110010000000
          -61 callsubr
          hintmask 0111110010000000
          -85 callsubr
          hintmask 1011110001000000
          -70 callgsubr
          hintmask 1011101010000000
          -109 -184 rmoveto
          43 65 37 37 vhcurveto
          hintmask 1011101001000000
          -30 callgsubr
          hvcurveto
          29 280 rmoveto
          hintmask 1011100110000000
          -106 callsubr
          endchar
        </CharString>
        <CharString name="egrave">
          -12 callsubr
          237 -95 callgsubr
          -77 395 -99 callgsubr
        </CharString>
        <CharString name="eight">
          -62 -10 153 181 132 130 126 hstemhm
          32 186 -142 165 117 153 -129 179 hintmask 11101100
          318 712 rmoveto
          -165 -77 -107 -93 -38 13 -39 49 -35 hvcurveto
          hintmask 11110010
          -70 -58 -36 -80 -72 vvcurveto
          -107 81 -93 149 175 124 127 134 66 -31 68 -74 56 vhcurveto
          hintmask 11110100
          35 20 20 24 58 vvcurveto
          105 -66 64 -127 vhcurveto
          -100 -499 rmoveto
          47 40 64 56 vhcurveto
          hintmask 11110010
          40 28 -32 -41 -58 -54 -50 -47 -39 -24 34 36 hvcurveto
          hintmask 11101100
          23 293 rmoveto
          34 30 46 41 29 17 -24 -28 -42 -37 -36 -34 -29 -17 25 25 vhcurveto
          endchar
        </CharString>
        <CharString name="ellipsis">
          1212 -19 155 hstem
          33 134 699 134 699 134 cntrmask 01110000
          150 hmoveto
          -106 callgsubr
          833 hmoveto
          -106 callgsubr
          833 hmoveto
          -106 callgsubr
          endchar
        </CharString>
        <CharString name="emdash">
          5 216 111 hstem
          602 229 -25 callgsubr
          2 -39 -45 9 -128 hhcurveto
          -95 -188 -5 -6 -51 -67 callgsubr
          -5 74 119 -8 87 hhcurveto
          61 199 4 9 6 hvcurveto
          endchar
        </CharString>
        <CharString name="endash">
          -165 217 111 hstem
          432 230 -25 callgsubr
          8 -37 -86 97 callsubr
          -126 -63 callgsubr
          125 -6 49 hhcurveto
          34 86 74 callsubr
        </CharString>
        <CharString name="equal">
          -120 218 111 59 111 hstem
          464 231 rmoveto
          -82 callsubr
          170 vmoveto
          -82 callsubr
          endchar
        </CharString>
        <CharString name="eth">
          -103 -10 159 558 -20 hstem
          23 193 179 129 vstem
          340 670 rmoveto
          21 -17 15 -22 1 vhcurveto
          -29 -18 -25 -22 -26 -23 rrcurveto
          3 -20 -21 2 -21 hhcurveto
          -14 -15 -1 -1 -14 hvcurveto
          -11 -3 -15 -29 -18 vvcurveto
          -4 1 -3 2 -3 vhcurveto
          25 -1 22 -3 20 -5 -12 -14 -10 -15 -10 -15 rrcurveto
          -4 -1 0 -5 vvcurveto
          -21 17 -7 23 -3 vhcurveto
          23 18 23 17 22 18 26 -15 16 -17 10 -9 rrcurveto
          -162 -23 -102 -153 -132 vvcurveto
          -111 72 -97 154 171 104 119 171 153 -83 130 -132 56 vhcurveto
          12 15 11 15 8 21 rrcurveto
          -124 -444 -75 callgsubr
          endchar
        </CharString>
        <CharString name="exclam">
          -366 -8 135 577 -20 hstemhm
          36 90 callgsubr
          198 690 rmoveto
          11 -22 -16 3 -13 hhcurveto
          -23 -15 -9 -5 -18 hvcurveto
          -37 -68 -18 -72 -74 vvcurveto
          -91 27 -95 52 -95 vhcurveto
          -7 10 12 -4 11 hhcurveto
          13 12 5 9 10 hvcurveto
          44 80 25 89 92 vvcurveto
          76 -17 78 -37 77 vhcurveto
          -4 -690 rmoveto
          hintmask 11010000
          6 20 3 20 20 vvcurveto
          20 -3 19 -6 20 vhcurveto
          5 -17 -18 3 -18 hhcurveto
          -16 -15 -2 -6 -16 hvcurveto
          -4 -19 -2 -18 -20 vvcurveto
          -20 2 -21 4 -21 vhcurveto
          -7 17 23 -1 13 hhcurveto
          19 14 2 6 14 hvcurveto
          endchar
        </CharString>
        <CharString name="exclamdown">
          -380 -157 -21 577 135 hstemhm
          29 90 callgsubr
          191 -164 rmoveto
          37 77 17 78 76 vvcurveto
          92 -25 89 -44 80 vhcurveto
          9 -10 -12 5 -13 hhcurveto
          -11 -12 -4 -7 -10 hvcurveto
          -52 -95 -27 -95 -91 vvcurveto
          -74 18 -72 37 -68 vhcurveto
          -5 18 15 -9 23 hhcurveto
          13 16 3 11 22 hvcurveto
          -4 690 rmoveto
          6 -14 -14 2 -19 hhcurveto
          -13 -23 -1 -7 -17 hvcurveto
          hintmask 11010000
          -4 -21 -2 -21 -20 vvcurveto
          -20 2 -18 4 -19 vhcurveto
          -6 16 15 -2 16 hhcurveto
          18 18 3 5 17 hvcurveto
          6 20 3 19 20 vvcurveto
          20 -3 20 -6 20 vhcurveto
          endchar
        </CharString>
        <CharString name="f">
          -245 0 156 207 135 115 144 hstem
          101 183 -183 250 vstem
          457 570 68 callsubr
          18 -41 -27 8 -93 hhcurveto
          -181 -11 -30 -232 2 callsubr
          -71 1 -66 vhcurveto
          1 -5 -4 1 -5 -16 callgsubr
          -30 -31 vvcurveto
          -28 0 -7 9 -12 vhcurveto
          -24 15 68 -4 48 hhcurveto
          80 34 11 23 51 -58 callsubr
          -7 209 78 3 15 5 10 6 rlinecurve
          32 callsubr
          38 callgsubr
        </CharString>
        <CharString name="five">
          -15 -11 166 -139 -21 311 124 108 146 36 -20 27 -20 hstemhm
          55 175 178 185 hintmask 10110111
          85 300 rmoveto
          4 26 33 2 34 hhcurveto
          105 125 -19 -66 -40 -46 -26 -49 -33 -35 12 28 -20 hvcurveto
          10 0 8 -6 15 vhcurveto
          11 -18 -28 4 -25 hhcurveto
          -22 -19 -3 -2 -10 hvcurveto
          -30 -10 -12 -94 -65 vvcurveto
          -32 3 -24 4 -8 vhcurveto
          hintmask 01110111
          -7 19 25 -3 26 hhcurveto
          21 21 2 5 20 hvcurveto
          14 11 10 8 7 18 rrcurveto
          hintmask 10110111
          -35 42 46 -15 44 hhcurveto
          123 113 117 123 103 -79 98 -200 -14 -34 0 -1 -12 hvcurveto
          -17 6 -7 23 15 vvcurveto
          14 5 31 9 12 vhcurveto
          5 15 34 3 35 hhcurveto
          47 50 -5 -9 14 hvcurveto
          -5 -7 -2 -9 -8 vvcurveto
          -9 3 -9 7 -6 vhcurveto
          -7 18 36 -4 17 hhcurveto
          19 20 5 10 22 hvcurveto
          19 11 7 33 42 vvcurveto
          83 -26 72 -3 2 vhcurveto
          2 -6 -12 2 -20 hhcurveto
          -32 -49 -5 -6 -5 hvcurveto
          -6 -15 -1 -5 -2 -22 rrcurveto
          7 -26 -44 3 -41 hhcurveto
          -34 -32 -2 -4 -16 hvcurveto
          -1 13 -3 14 -4 1 rrcurveto
          hintmask 10111011
          8 -19 -59 6 -28 hhcurveto
          -22 -20 -4 -10 -14 hvcurveto
          -16 -43 -9 -94 -86 vvcurveto
          -91 10 -82 25 -10 vhcurveto
          endchar
        </CharString>
        <CharString name="florin">
          -218 -174 172 265 135 115 144 hstemhm
          82 179 -179 196 hintmask 11101000
          445 470 68 callsubr
          12 -63 -66 14 -59 hhcurveto
          -96 -76 -37 -142 -23 2 -29 5 -31 2 callsubr
          -131 1 -66 vhcurveto
          3 -9 -13 1 -11 hhcurveto
          -18 -18 -3 -8 -13 hvcurveto
          -21 -14 -10 -39 -36 vvcurveto
          -23 4 -21 6 -14 vhcurveto
          -9 26 56 -5 60 hhcurveto
          53 56 4 10 34 hvcurveto
          2 39 1 37 46 vvcurveto
          92 -4 103 -5 106 vhcurveto
          78 3 15 5 10 6 rrcurveto
          32 callsubr
          hintmask 11110000
          38 callgsubr
        </CharString>
        <CharString name="four">
          -85 17 -21 277 139 294 -20 hstem
          279 180 vstem
          445 686 rmoveto
          14 -21 -27 6 -28 hhcurveto
          -32 -34 -8 -12 -28 hvcurveto
          -122 -70 -80 -92 -55 -107 rrcurveto
          -4 -12 -2 -26 -29 vvcurveto
          -20 1 -40 5 -10 vhcurveto
          -4 12 54 -3 65 hhcurveto
          37 62 1 4 36 hvcurveto
          -3 -10 -2 -19 -23 vvcurveto
          -29 3 -19 3 -29 vhcurveto
          -1 -30 40 callsubr
          -8 -1 -21 -4 -6 -4 rrcurveto
          -10 -9 -4 -24 -25 vvcurveto
          -32 6 -33 2 -3 vhcurveto
          -9 6 82 -6 70 hhcurveto
          63 76 5 7 28 hvcurveto
          4 8 3 19 21 vvcurveto
          33 -7 38 -16 8 -68 callsubr
          7 12 7 30 35 vvcurveto
          19 -2 18 -3 21 vhcurveto
          -1 9 8 0 7 hhcurveto
          14 11 1 3 4 hvcurveto
          12 10 6 24 25 vvcurveto
          30 -9 31 -15 7 vhcurveto
          1 -5 -8 1 -8 -8 -7 -1 -7 hhcurveto
          1 22 0 22 22 vvcurveto
          91 -3 83 -11 35 vhcurveto
          -282 -269 rmoveto
          31 42 46 40 45 34 rrcurveto
          -2 -41 -2 -36 -40 vvcurveto
          2 -17 -28 1 -19 hhcurveto
          -19 -19 -1 -1 -16 hvcurveto
          endchar
        </CharString>
        <CharString name="g">
          -69 -229 -21 242 157 37 callsubr
          -163 234 hstemhm
          25 11 callsubr
          hintmask 11011100
          295 -8 rmoveto
          123 9 105 98 167 vvcurveto
          36 -5 40 -12 34 vhcurveto
          22 15 63 54 1 13 rrcurveto
          41 -119 82 -23 -15 -22 -34 -44 -28 vhcurveto
          hintmask 11101100
          4 -16 -17 3 -24 hhcurveto
          -182 -121 -168 -146 -74 31 -69 72 -36 hvcurveto
          -9 -13 -3 -4 -13 -98 176 5 -9 vvcurveto
          -5 -59 -17 -113 -27 vhcurveto
          -41 6 8 -45 49 hhcurveto
          58 314 64 101 81 -205 -31 -55 27 hvcurveto
          -77 234 -75 callgsubr
          endchar
        </CharString>
        <CharString name="germandbls">
          134 -68 -21 86 165 425 163 hstemhm
          59 198 -182 182 205 189 -56 174 hintmask 11110100
          75 41 rmoveto
          -16 -2 -19 -1 -14 -8 rrcurveto
          -4 -2 -1 -21 -23 vvcurveto
          -23 1 -23 4 -4 vhcurveto
          -14 15 89 -9 74 hhcurveto
          36 33 2 5 17 hvcurveto
          7 12 12 60 24 vvcurveto
          7 -1 6 -1 2 vhcurveto
          6 -4 -5 3 -27 hhcurveto
          -10 29 -4 135 0 vvcurveto
          190 10 195 97 35 63 -26 -42 -7 -2 -13 -4 -13 vhcurveto
          -27 -1 -25 -19 -11 -23 rrcurveto
          -56 34 -59 43 -8 vhcurveto
          19 3 18 10 10 14 rrcurveto
          hintmask 11110010
          56 -22 22 -27 -27 vvcurveto
          -55 -93 -54 -70 -14 -11 2 3 -10 vhcurveto
          -14 -12 -5 -81 -24 vvcurveto
          -22 4 -19 4 -2 vhcurveto
          -7 23 23 -3 23 hhcurveto
          159 155 145 128 75 -53 70 -137 31 hvcurveto
          hintmask 11110100
          50 31 22 39 39 vvcurveto
          96 -131 99 -166 -247 -48 -220 -214 vhcurveto
          hintmask 11101100
          -102 11 -81 5 -92 vhcurveto
          endchar
        </CharString>
        <CharString name="grave">
          179 607 78 callgsubr
          223 721 -99 callgsubr
        </CharString>
        <CharString name="greater">
          -80 81 -21 512 -20 hstem
          75 60 rmoveto
          162 55 152 70 133 97 rrcurveto
          13 11 8 11 12 vvcurveto
          11 -6 11 -15 12 vhcurveto
          -144 94 -148 82 -155 46 rrcurveto
          -7 -14 -4 -14 -14 vvcurveto
          -14 4 -15 7 -15 vhcurveto
          110 -80 121 -51 124 -38 -123 -38 -122 -48 -110 -84 rrcurveto
          -10 -14 -5 -14 -14 vvcurveto
          -15 6 -15 9 -15 vhcurveto
          endchar
        </CharString>
        <CharString name="guillemotleft">
          -192 -29 callgsubr
          170 hmoveto
          -64 callgsubr
          endchar
        </CharString>
        <CharString name="guillemotright">
          -192 63 callgsubr
          195 477 rmoveto
          -64 callsubr
          -170 hmoveto
          -64 callsubr
          endchar
        </CharString>
        <CharString name="guilsinglleft">
          -362 -29 callgsubr
          endchar
        </CharString>
        <CharString name="guilsinglright">
          -362 63 callgsubr
          25 477 rmoveto
          -64 callsubr
          endchar
        </CharString>
        <CharString name="h">
          49 39 callgsubr
          80 162 hstemhm
          82 188 37 callsubr
          hintmask 10111100
          93 19 callgsubr
          -20 -3 -6 -8 hvcurveto
          -21 -11 -6 -30 -45 vvcurveto
          -19 1 -3 8 -11 -67 callsubr
          hintmask 01111100
          -81 callgsubr
          6 19 4 56 60 vvcurveto
          73 -6 77 -16 24 vhcurveto
          9 -41 -29 4 -35 hhcurveto
          -64 -46 -13 -7 -12 hvcurveto
          -20 -9 -8 -43 -36 vvcurveto
          -23 3 -20 6 -7 vhcurveto
          -3 14 13 -1 14 hhcurveto
          13 22 1 4 13 hvcurveto
          -5 -26 -2 -68 -76 vvcurveto
          -106 4 -121 7 -44 vhcurveto
          endchar
        </CharString>
        <CharString name="hyphen">
          -34 callsubr
        </CharString>
        <CharString name="i">
          21 callsubr
          229 30 callgsubr
          -148 196 hintmask 11101000
          -11 callsubr
          -1 -10 40 callsubr
          -14 -2 -14 -3 -7 -4 rrcurveto
          hintmask 11110000
          -12 -5 -8 -26 -26 vvcurveto
          -23 6 -23 14 -10 vhcurveto
          -15 13 44 -12 112 hhcurveto
          hintmask 11100100
          64 34 4 5 9 hvcurveto
          10 16 14 54 35 76 callgsubr
          9 -3 5 -68 callsubr
          hintmask 11110000
          -17 callsubr
          10 -2 18 hhcurveto
          12 13 1 3 2 hvcurveto
          8 10 8 34 29 vvcurveto
          15 -73 callgsubr
          110 185 rmoveto
          hintmask 11100100
          3 callgsubr
          endchar
        </CharString>
        <CharString name="iacute">
          21 callsubr
          237 -98 callgsubr
          271 330 -101 callsubr
        </CharString>
        <CharString name="icircumflex">
          21 callsubr
          238 -98 callgsubr
          245 201 -104 callsubr
        </CharString>
        <CharString name="idieresis">
          21 callsubr
          76 155 97 callgsubr
          -224 133 -90 181 -35 123 hintmask 11100100
          -33 callsubr
          -20 -3 -6 -1 -9 -6 -50 callgsubr
          16 15 11 44 40 -73 callsubr
          hintmask 11101010
          -70 callsubr
          63 214 -65 callsubr
          endchar
        </CharString>
        <CharString name="igrave">
          21 callsubr
          236 -98 callgsubr
          -63 329 -99 callgsubr
        </CharString>
        <CharString name="j">
          -137 -250 172 463 127 228 -20 hstemhm
          257 169 -169 185 -185 199 -199 244 hintmask 11100100
          347 577 rmoveto
          3 callgsubr
          -246 -553 rmoveto
          9 -12 -44 73 callsubr
          -172 80 callsubr
          29 -2 30 hhcurveto
          22 22 95 callsubr
          -1 6 13 6 19 rrcurveto
          -39 66 56 -22 56 hhcurveto
          hintmask 11101000
          131 67 119 254 hvcurveto
          hintmask 11110000
          103 -11 71 -5 81 vhcurveto
          -4 8 14 -3 13 hhcurveto
          10 10 2 4 6 hvcurveto
          hintmask 11100010
          8 11 6 33 28 vvcurveto
          16 -2 14 -4 8 vhcurveto
          16 -19 -76 9 -124 hhcurveto
          -42 -22 -1 -11 -23 hvcurveto
          -27 -14 -2 -22 -30 vvcurveto
          -22 1 -6 6 -10 vhcurveto
          -6 16 18 -5 16 hhcurveto
          10 9 2 5 6 hvcurveto
          5 -36 10 -93 -135 vvcurveto
          -120 -8 -86 -79 -28 -19 11 18 -26 vhcurveto
          4 25 2 21 12 vvcurveto
          9 -1 6 -1 vhcurveto
          endchar
        </CharString>
        <CharString name="k">
          50 0 156 359 -20 108 149 hstemhm
          88 169 -169 186 -186 249 67 224 hintmask 11100110
          88 154 rmoveto
          1 -3 -5 1 -6 hhcurveto
          -15 -22 -5 -5 -7 hvcurveto
          -11 -6 -4 -21 -23 vvcurveto
          -33 8 -37 9 -14 vhcurveto
          -11 28 29 -1 44 hhcurveto
          87 75 4 10 38 hvcurveto
          1 6 3 37 36 vvcurveto
          30 -2 30 -9 3 -26 callsubr
          hintmask 11101010
          1 19 0 20 19 vvcurveto
          24 0 25 -1 24 vhcurveto
          56 -15 103 -28 32 -100 rrcurveto
          2 -6 -5 1 -6 hhcurveto
          -6 -7 -1 -4 -6 hvcurveto
          -8 -12 -3 -16 -18 vvcurveto
          -29 9 -32 15 -18 vhcurveto
          -11 32 39 -4 91 callsubr
          10 15 5 24 28 vvcurveto
          17 -2 34 -15 7 vhcurveto
          3 -8 -8 3 -9 hhcurveto
          -6 -7 -1 -3 -6 hvcurveto
          31 -84 140 -145 60 vhcurveto
          84 66 59 70 1 12 rrcurveto
          -2 2 20 -6 14 hhcurveto
          4 3 0 1 3 hvcurveto
          16 5 7 25 23 vvcurveto
          9 -1 9 -3 6 vhcurveto
          13 -33 -78 10 -59 hhcurveto
          -33 -32 -3 -8 -27 hvcurveto
          -4 -2 -1 -7 -8 vvcurveto
          -17 5 -22 4 -4 vhcurveto
          -2 1 4 -1 4 hhcurveto
          9 13 4 3 3 hvcurveto
          3 -3 1 -4 -4 vvcurveto
          -32 -75 -62 -62 -40 vhcurveto
          hintmask 11110010
          -4 68 -5 69 -1 69 rrcurveto
          10 23 3 89 callgsubr
          hintmask 11100110
          6 6 5 25 26 vvcurveto
          26 -5 28 -15 7 vhcurveto
          14 -24 -57 6 -58 hhcurveto
          -62 -35 -7 -13 -27 hvcurveto
          -14 -9 -11 -28 -29 vvcurveto
          -19 5 -18 11 -15 vhcurveto
          -7 9 12 -4 13 hhcurveto
          11 13 3 5 11 hvcurveto
          -1 -3 -1 -22 -45 vvcurveto
          -46 1 -111 5 -230 vhcurveto
          endchar
        </CharString>
        <CharString name="l">
          -316 21 -21 754 -20 hstemhm
          38 228 -191 176 hintmask 11010000
          85 632 rmoveto
          -5 -62 -5 -118 -105 vvcurveto
          -81 3 -72 14 callsubr
          -14 12 36 -13 112 hhcurveto
          31 63 1 8 14 -77 callsubr
          hintmask 11100000
          3 132 12 133 133 vvcurveto
          66 -3 65 -8 67 vhcurveto
          9 -25 -29 1 -28 hhcurveto
          -28 -47 -1 -9 -39 hvcurveto
          -15 -23 -6 -26 -27 vvcurveto
          -11 1 -11 1 -10 vhcurveto
          -4 16 13 0 16 hhcurveto
          endchar
        </CharString>
        <CharString name="less">
          -80 83 -21 512 -20 hstem
          499 62 rmoveto
          9 15 6 15 15 vvcurveto
          14 -5 14 -10 14 vhcurveto
          -110 84 -122 48 -123 38 124 38 121 51 110 80 rrcurveto
          7 15 4 15 14 vvcurveto
          14 -4 14 -7 14 vhcurveto
          -155 -46 -148 -82 -144 -94 rrcurveto
          -15 -12 -6 -11 -11 vvcurveto
          -12 8 -11 13 -11 vhcurveto
          133 -97 152 -70 162 -55 rrcurveto
          endchar
        </CharString>
        <CharString name="logicalnot">
          -124 273 -21 149 66 hstem
          47 454 rmoveto
          -5 -8 -3 -8 -8 vvcurveto
          -7 3 -7 5 -6 vhcurveto
          -6 26 79 -3 80 hhcurveto
          66 65 2 3 50 hvcurveto
          -1 -14 0 -14 -8 vvcurveto
          -23 2 -65 4 -23 vhcurveto
          -4 6 7 -3 7 hhcurveto
          8 8 3 4 8 hvcurveto
          4 24 3 65 23 vvcurveto
          19 -2 44 -5 18 vhcurveto
          11 -62 -87 4 -81 hhcurveto
          -90 -80 -5 -8 -15 hvcurveto
          endchar
        </CharString>
        <CharString name="m">
          402 -1 157 -157 171 -149 -21 339 171 -9 -20 hstemhm
          41 232 -175 244 127 223 129 163 hintmask 1001001110000000
          98 16 callsubr
          -22 -13 -5 -24 -40 vvcurveto
          -26 2 -7 7 -9 vhcurveto
          -21 18 47 -8 52 hhcurveto
          76 64 17 18 37 -58 callsubr
          hintmask 0101010110000000
          -4 19 -2 18 17 vvcurveto
          86 52 45 51 48 45 -39 -97 -15 -1 -7 -3 -17 vhcurveto
          -35 callsubr
          3 21 2 47 1 31 rrcurveto
          44 19 39 23 37 hhcurveto
          29 callgsubr
          hvcurveto
          -35 callsubr
          2 27 5 42 41 vvcurveto
          160 -77 67 -94 -72 -81 -40 -39 -58 vhcurveto
          53 -32 -54 26 -58 hhcurveto
          -69 -70 -36 -44 -58 hvcurveto
          1 6 4 10 18 vvcurveto
          12 -2 8 -5 5 vhcurveto
          hintmask 1000110110000000
          9 -23 -27 3 -27 hhcurveto
          -54 -52 -18 callsubr
          hintmask 1001001110000000
          81 callsubr
          endchar
        </CharString>
        <CharString name="mu">
          122 -229 -21 248 156 -136 -5 callgsubr
          hstemhm
          40 245 -161 161 20 callgsubr
          hintmask 1100100101000000
          670 -92 callsubr
          -52 84 callsubr
          46 35 callgsubr
          hintmask 1101001010000000
          -58 callgsubr
          hintmask 1100011010000000
          -52 callgsubr
          hintmask 1101000110000000
          -33 3 -25 6 -7 28 callgsubr
          -4 -26 -3 -67 -37 vvcurveto
          -21 1 8 1 -92 vhcurveto
          -12 2 -171 -9 66 callgsubr
          hintmask 1101001010000000
          44 callsubr
          46 53 callgsubr
          vvcurveto
          52 -2 69 -1 19 vhcurveto
          -17 22 22 -14 27 hhcurveto
          46 54 43 29 35 hvcurveto
          -22 callsubr
          hintmask 1011001001000000
          -84 callsubr
          hintmask 1101001010000000
          37 callgsubr
          endchar
        </CharString>
        <CharString name="multiply">
          -180 140 -21 389 -20 hstem
          428 451 rmoveto
          -5 15 -6 12 -9 9 -8 8 -11 6 -13 2 -28 -20 -26 -22 -24 -24 -21 -21 -20 -23 -18 -26 -17 30 -25 32 -21 21 -21 21 -27 21 92 callgsubr
          rrcurveto
          -9 -9 -7 -12 -4 -17 14 -28 18 -24 23 -23 24 -24 29 -22 32 -19 -27 -17 -25 -21 -22 -22 -23 -23 -21 -26 -18 -28 2 -18 5 -12 8 -8 8 -8 14 -5 15 -1 rrcurveto
          28 17 25 20 22 22 24 24 20 26 18 27 17 -29 20 -23 23 -23 27 -27 17 -14 36 -24 14 3 12 8 8 8 7 7 9 15 5 14 -18 31 -22 29 -25 25 rrcurveto
          -22 22 -24 19 -29 14 28 16 20 15 25 25 25 25 20 26 18 30 rrcurveto
          endchar
        </CharString>
        <CharString name="n">
          63 39 callgsubr
          -9 -20 hstemhm
          40 244 -187 187 37 callsubr
          hintmask 10101010
          -54 callgsubr
          hintmask 01101010
          -57 callsubr
          hintmask 10011010
          0 callsubr
          hintmask 10100110
          81 callsubr
          endchar
        </CharString>
        <CharString name="nine">
          14 -15 157 -120 -21 244 132 193 141 hstemhm
          44 166 180 243 -174 174 hintmask 01111100
          221 201 rmoveto
          9 -12 -51 18 -31 hhcurveto
          -5 -5 0 -1 -5 hvcurveto
          -18 -13 -46 -59 -3 -132 rrcurveto
          -13 3 75 -9 30 hhcurveto
          3 8 18 3 2 hvcurveto
          hintmask 10111010
          -25 50 57 -12 53 hhcurveto
          203 104 177 179 184 -110 186 -200 -143 -136 -95 -157 -123 84 -91 132 79 73 32 62 43 hvcurveto
          3 -5 1 -11 -11 vvcurveto
          -59 -30 -111 -123 -28 -35 6 11 -26 vhcurveto
          3 3 4 11 12 vvcurveto
          5 -1 6 -2 5 vhcurveto
          59 176 rmoveto
          -48 -22 35 38 55 45 65 63 hvcurveto
          hintmask 10111100
          39 33 -24 -49 -58 -46 -62 -64 hvcurveto
          endchar
        </CharString>
        <CharString name="ntilde">
          63 39 callgsubr
          -9 -20 104 21 callgsubr
          40 244 -187 187 37 callsubr
          hintmask 1010100110100000
          -54 callgsubr
          hintmask 0110100110100000
          -57 callsubr
          hintmask 1001100110100000
          0 callsubr
          hintmask 1010010101100000
          81 callsubr
          438 545 -71 callsubr
          hintmask 1010001010100000
          -83 callgsubr
          hintmask 1010100110100000
          2 callgsubr
        </CharString>
        <CharString name="numbersign">
          1 17 215 -95 95 192 95 -95 215 -118 -20 hstemhm
          hintmask 10100000
          140 233 rmoveto
          -87 -4 rlineto
          -7 -13 -2 -12 -11 vvcurveto
          -15 4 -15 5 -14 vhcurveto
          24 -3 25 -2 24 -1 -5 -37 -5 -36 -4 -36 rrcurveto
          72 callsubr
          hintmask 01100000
          30 117 rlineto
          -1 41 41 -1 62 hhcurveto
          -13 -101 rlineto
          hintmask 10100000
          72 callsubr
          hintmask 01010000
          30 117 45 2 46 4 46 6 rlinecurve
          8 15 4 14 13 vvcurveto
          49 callgsubr
          -8 12 vhcurveto
          -116 6 13 66 9 61 11 61 rlinecurve
          87 4 rlineto
          7 13 2 12 11 vvcurveto
          15 -4 15 -5 14 vhcurveto
          -24 3 -25 2 -24 1 5 37 5 36 4 36 rrcurveto
          44 callgsubr
          rlineto
          hintmask 10001000
          1 -41 -41 1 -62 hhcurveto
          13 101 rlineto
          hintmask 10010000
          44 callgsubr
          -45 -2 -46 -4 -46 -6 rlinecurve
          -8 -15 -4 -14 -13 vvcurveto
          -13 4 -13 8 -12 vhcurveto
          116 -6 -13 -66 -9 -61 -11 -61 rlinecurve
          135 186 rmoveto
          69 34 1 34 hhcurveto
          -32 -183 rlineto
          -69 -34 -1 -34 hhcurveto
          endchar
        </CharString>
        <CharString name="o">
          6 callsubr
          -89 callsubr
          endchar
        </CharString>
        <CharString name="oacute">
          6 callsubr
          238 -20 -89 callsubr
          242 496 -101 callsubr
        </CharString>
        <CharString name="ocircumflex">
          6 callsubr
          239 -20 -89 callsubr
          236 367 -104 callsubr
        </CharString>
        <CharString name="odieresis">
          6 callsubr
          77 84 callgsubr
          23 193 -73 47 callsubr
          -72 126 hintmask 11110010
          -95 callsubr
          44 380 rmoveto
          hintmask 11101100
          -106 callsubr
          endchar
        </CharString>
        <CharString name="oe">
          234 -10 134 -134 159 -148 -21 27 -21 215 92 54 163 -104 104 hstemhm
          23 193 179 154 -154 183 150 108 hintmask 1000110110100000
          673 70 callgsubr
          -79 -66 -32 -48 -48 hvcurveto
          50 -33 -46 30 -76 hhcurveto
          -179 -123 -168 -145 -110 70 -97 159 81 69 25 50 48 hvcurveto
          hintmask 0001110110100000
          -49 46 69 -30 76 hhcurveto
          36 37 7 14 37 hvcurveto
          hintmask 0010110110100000
          -85 callsubr
          hintmask 1000110110100000
          -2 -10 -10 -1 -9 hhcurveto
          -57 -49 36 67 -3 58 callsubr
          -108 hvcurveto
          -457 -285 rmoveto
          53 45 69 62 45 27 -37 -41 vhcurveto
          hintmask 0100101101100000
          -53 -46 -67 -62 -46 -25 37 39 vhcurveto
          362 101 rmoveto
          -45 callgsubr
          endchar
        </CharString>
        <CharString name="ograve">
          6 callsubr
          237 -20 -89 callsubr
          -52 495 -99 callgsubr
        </CharString>
        <CharString name="one">
          -240 22 75 callgsubr
          hstem
          129 196 vstem
          141 547 rmoveto
          -22 callgsubr
          -2 -1 0 -3 -20 hvcurveto
          -19 -3 -30 -2 -7 -4 -38 callsubr
          -16 14 63 -11 108 hhcurveto
          56 41 3 6 12 -77 callsubr
          6 39 8 162 137 vvcurveto
          97 -4 85 -10 21 vhcurveto
          5 -11 -12 4 -33 hhcurveto
          -128 -78 -62 -15 -16 -27 callsubr
          4 -4 vhcurveto
          50 5 25 10 33 23 rrcurveto
          endchar
        </CharString>
        <CharString name="onehalf">
          195 9 -21 24 -21 30 -21 294 102 306 -20 hstemhm
          45 82 callgsubr
          292 142 29 112 hintmask 1001101110000000
          558 595 -60 callgsubr
          -471 10 -2 callgsubr
          hintmask 1001110110000000
          -86 callsubr
          599 -336 50 callsubr
          13 41 callsubr
          13 25 3 2 6 hvcurveto
          2 1 0 2 2 9 rrcurveto
          hintmask 0011110110000000
          42 callgsubr
          hintmask 0101110110000000
          -5 3 16 -1 22 hhcurveto
          21 7 1 2 3 hvcurveto
          11 7 3 37 24 vvcurveto
          30 -44 callgsubr
          -13 -17 vvcurveto
          -33 7 -53 12 -9 3 callsubr
        </CharString>
        <CharString name="onequarter">
          166 -1 239 -100 100 464 -20 hstemhm
          45 82 callgsubr
          390 135 hintmask 01110100
          741 387 rmoveto
          8 -15 -46 4 -28 hhcurveto
          -20 -40 -2 -6 -14 hvcurveto
          -59 -32 -39 -67 -25 -53 13 callsubr
          -8 -10 vvcurveto
          -10 1 -11 1 -14 vhcurveto
          -13 -1 -16 2 -13 -7 rrcurveto
          -6 -3 -2 -10 -10 vvcurveto
          -14 3 -25 2 -7 vhcurveto
          hintmask 10101100
          -29 callsubr
          7 6 3 16 17 vvcurveto
          21 60 callgsubr
          -59 callsubr
          -471 10 -2 callgsubr
          hintmask 10110100
          -86 callsubr
          endchar
        </CharString>
        <CharString name="onesuperior">
          -377 316 -21 408 -20 hstemhm
          40 82 callgsubr
          hintmask 11010000
          82 606 -2 callgsubr
          hintmask 11100000
          -86 callsubr
          endchar
        </CharString>
        <CharString name="ordfeminine">
          -145 288 107 163 118 9 -20 hstemhm
          25 115 149 137 -137 176 hintmask 11010100
          271 318 rmoveto
          2 -10 4 -13 -2 vvcurveto
          -1 10 13 0 15 hhcurveto
          54 75 5 13 20 hvcurveto
          5 1 12 18 vvcurveto
          17 -1 36 -3 2 vhcurveto
          1 -7 -13 4 -10 hhcurveto
          -4 -2 -1 -1 -4 hvcurveto
          hintmask 10111000
          2 3 3 66 58 vvcurveto
          2 0 39 -1 2 vhcurveto
          3 5 -1 5 hhcurveto
          9 13 3 8 4 hvcurveto
          3 4 1 18 26 vvcurveto
          25 -1 6 -3 4 vhcurveto
          11 -20 -35 8 -34 hhcurveto
          -32 -31 -7 -17 -21 hvcurveto
          1 -9 0 -11 -9 vvcurveto
          hintmask 11011000
          36 -27 -27 8 -29 hhcurveto
          -110 -74 -115 -105 -88 52 -80 109 44 25 17 13 16 hvcurveto
          -41 240 rmoveto
          37 22 -28 -35 -52 -47 -48 -44 -34 -24 28 37 49 42 49 48 hvcurveto
          endchar
        </CharString>
        <CharString name="ordmasculine">
          -39 callgsubr
        </CharString>
        <CharString name="oslash">
          -106 -25 -21 57 -21 357 163 9 -20 hstemhm
          35 callsubr
          hintmask 11011100
          484 500 rmoveto
          12 -5 -8 7 -11 hhcurveto
          hintmask 11101100
          -8 -9 -3 -6 -12 hvcurveto
          -18 -19 rlineto
          12 -25 -30 7 -35 hhcurveto
          -5 callsubr
          -77 35 -71 75 -35 hvcurveto
          -11 -34 rlineto
          -17 4 7 -9 12 hhcurveto
          8 9 4 11 13 hvcurveto
          8 9 8 8 7 9 rrcurveto
          -3 17 17 -2 22 hhcurveto
          148 119 88 189 69 -16 67 -38 46 hvcurveto
          6 16 5 17 6 18 rrcurveto
          -268 -275 rmoveto
          52 45 70 63 vhcurveto
          -35 -53 -32 -56 -28 -58 rrcurveto
          -9 13 -4 16 16 vvcurveto
          179 41 rmoveto
          -59 -52 -52 -49 -6 vhcurveto
          34 52 30 54 27 55 rrcurveto
          6 -12 4 -15 -17 vvcurveto
          endchar
        </CharString>
        <CharString name="otilde">
          6 callsubr
          75 21 callgsubr
          35 callsubr
          hintmask 11010111
          -95 callsubr
          285 473 -72 callgsubr
          endchar
        </CharString>
        <CharString name="p">
          57 callgsubr
          13 240 -161 188 152 153 hintmask 11011010
          409 516 rmoveto
          -57 -35 -39 -17 -54 68 callgsubr
          hintmask 11101010
          2 -10 -83 2 -22 hhcurveto
          -67 -53 -18 -13 -8 hvcurveto
          -2 -8 -1 -25 -23 vvcurveto
          -39 3 -42 5 -4 vhcurveto
          -4 18 31 -3 15 hhcurveto
          5 9 0 1 3 hvcurveto
          hintmask 11010110
          -8 -45 -2 -101 -87 -88 2 -66 -44 66 callgsubr
          -3 -7 -1 -11 -39 vvcurveto
          -24 0 -23 4 -9 vhcurveto
          2 17 -21 99 53 66 53 callgsubr
          71 -3 30 18 vvcurveto
          -8 28 36 -4 24 hhcurveto
          143 77 135 123 111 -63 151 -113 hvcurveto
          -85 -375 rmoveto
          hintmask 11101010
          -43 -28 36 44 62 57 56 53 43 26 -37 -41 -56 -50 -64 -58 hvcurveto
          endchar
        </CharString>
        <CharString name="paragraph">
          111 -169 -21 753 167 hstem
          221 182 64 183 vstem
          515 563 rmoveto
          -35 -93 -13 -94 -119 vvcurveto
          -154 22 -154 27 -111 vhcurveto
          -20 10 13 -8 14 hhcurveto
          18 19 12 16 19 hvcurveto
          21 126 20 173 167 vvcurveto
          91 -6 88 -15 79 vhcurveto
          29 2 28 5 27 7 rrcurveto
          9 16 6 6 16 vvcurveto
          13 -4 3 -11 13 vhcurveto
          8 -37 -35 3 -35 hhcurveto
          51 -65 -91 25 -90 hhcurveto
          -195 -135 -117 -127 -77 50 -107 141 -32 hvcurveto
          -164 22 -157 27 -111 vhcurveto
          -15 18 18 -10 17 hhcurveto
          14 14 7 18 12 hvcurveto
          20 126 20 174 173 vvcurveto
          103 -7 60 -21 89 vhcurveto
          endchar
        </CharString>
        <CharString name="parenleft">
          85 callgsubr
          16 181 vstem
          379 -145 rmoveto
          -142 129 -40 103 148 vvcurveto
          143 37 113 113 81 vhcurveto
          14 17 9 16 14 vvcurveto
          15 -11 13 -26 9 vhcurveto
          -163 -103 -154 -147 -176 vvcurveto
          -186 169 -100 108 -108 vhcurveto
          -10 21 17 -5 14 hhcurveto
          20 12 11 23 2 hvcurveto
          endchar
        </CharString>
        <CharString name="parenright">
          85 callgsubr
          182 181 vstem
          -145 vmoveto
          -23 2 12 -11 20 hhcurveto
          14 17 5 10 21 hvcurveto
          108 108 169 100 186 vvcurveto
          176 -154 147 -163 103 vhcurveto
          -26 -9 -11 -13 -15 vvcurveto
          -14 9 -16 14 -17 vhcurveto
          113 -81 37 -113 -143 vvcurveto
          -148 -40 -103 -142 -129 vhcurveto
          endchar
        </CharString>
        <CharString name="percent">
          232 45 callsubr
          36 64 callgsubr
          162 64 callgsubr
          hintmask 1010101111000000
          362 -14 callsubr
          hintmask 1010011111000000
          14 -10 -15 7 -19 hhcurveto
          hintmask 0110101111000000
          -34 callgsubr
          hintmask 1001101111000000
          -51 callsubr
          endchar
        </CharString>
        <CharString name="period">
          -426 -21 189 hstem
          33 162 vstem
          174 3 -62 callgsubr
          endchar
        </CharString>
        <CharString name="periodcentered">
          -444 235 155 hstem
          38 134 vstem
          155 254 rmoveto
          -106 callgsubr
          endchar
        </CharString>
        <CharString name="perthousand">
          603 45 callsubr
          37 64 callgsubr
          162 64 callgsubr
          44 64 callgsubr
          hintmask 1010101111110000
          363 -14 callsubr
          hintmask 1010011111110000
          14 -10 -15 7 -19 hhcurveto
          hintmask 0110101111110000
          -34 callgsubr
          hintmask 1001101111110000
          -51 callsubr
          441 -20 rmoveto
          -51 callsubr
          endchar
        </CharString>
        <CharString name="plus">
          -101 86 -21 198 93 203 -20 hstem
          225 106 vstem
          510 274 -79 callgsubr
          endchar
        </CharString>
        <CharString name="plusminus">
          -77 -10 111 252 93 203 -20 hstem
          238 106 vstem
          523 364 -79 callgsubr
          -4 -359 -25 callgsubr
          7 -37 -109 2 -41 hhcurveto
          -93 -142 -10 -5 -41 -67 callgsubr
          -2 50 39 -7 130 hhcurveto
          130 82 7 8 32 hvcurveto
          endchar
        </CharString>
        <CharString name="q">
          57 callgsubr
          25 153 152 188 -161 161 -161 245 hintmask 11011100
          201 516 rmoveto
          -113 -63 -151 -111 -123 77 -135 143 24 36 4 8 28 hvcurveto
          -18 -3 -30 -71 vvcurveto
          -53 0 -46 5 -10 vhcurveto
          -24 28 66 -6 53 hhcurveto
          99 17 21 -2 hvcurveto
          hintmask 11101001
          3 7 1 11 38 vvcurveto
          39 -1 11 -3 7 vhcurveto
          11 -7 -39 7 -20 hhcurveto
          -6 -6 0 -1 -4 hvcurveto
          hintmask 11101010
          44 2 66 88 vvcurveto
          87 -2 101 -8 45 vhcurveto
          -1 3 9 0 5 hhcurveto
          15 31 3 4 18 hvcurveto
          5 4 3 42 39 vvcurveto
          23 -1 25 -2 8 vhcurveto
          13 -8 -53 18 -67 hhcurveto
          -22 -83 -2 -2 -10 hvcurveto
          -4 -15 -1 -12 -8 vvcurveto
          -5 0 -3 1 -1 vhcurveto
          hintmask 11011100
          17 -54 -35 39 -57 hhcurveto
          -23 -254 rmoveto
          hintmask 11101010
          40 26 37 43 52 58 -55 -64 -44 -28 -35 -44 -62 -45 70 51 vhcurveto
          endchar
        </CharString>
        <CharString name="question">
          -96 -5 146 347 224 -137 137 hstemhm
          171 141 -141 153 -15 215 hintmask 11000100
          524 538 rmoveto
          119 -113 55 -119 -82 -84 -26 -47 -51 vhcurveto
          -26 -25 -17 -37 -31 vvcurveto
          -32 18 -26 44 13 16 2 5 18 vhcurveto
          hintmask 10100100
          56 11 35 24 36 hhcurveto
          44 42 -35 -49 -44 -35 -49 -94 -25 hvcurveto
          hintmask 11010000
          -6 -26 -3 -25 -42 vvcurveto
          -25 1 -30 13 -25 vhcurveto
          -2 4 27 -3 32 hhcurveto
          19 21 1 4 15 hvcurveto
          4 17 5 26 28 vvcurveto
          19 -2 20 -7 17 vhcurveto
          hintmask 11000100
          123 56 98 45 110 vvcurveto
          -219 -528 rmoveto
          hintmask 11001000
          14 24 5 18 17 vvcurveto
          22 -9 18 -10 20 vhcurveto
          7 -15 -17 5 -18 hhcurveto
          -16 -37 -4 -8 -17 hvcurveto
          -9 -20 -4 -20 -20 vvcurveto
          -19 4 -20 9 -20 vhcurveto
          -11 14 35 -4 16 hhcurveto
          18 19 6 9 18 hvcurveto
          endchar
        </CharString>
        <CharString name="questiondown">
          -103 -245 137 -137 224 347 146 hstemhm
          31 215 -15 153 -141 141 hintmask 01110000
          31 -71 rmoveto
          -119 113 -55 119 82 84 26 47 51 vhcurveto
          26 25 17 37 31 vvcurveto
          32 -18 26 -44 -13 -16 -2 -5 -18 vhcurveto
          hintmask 10110000
          -56 -11 -35 -24 -36 hhcurveto
          -44 -42 35 49 44 35 49 94 25 hvcurveto
          hintmask 10100100
          6 26 3 25 42 vvcurveto
          25 -1 30 -13 25 vhcurveto
          2 -4 -27 3 -32 hhcurveto
          -19 -21 -1 -4 -15 hvcurveto
          -4 -17 -5 -26 -28 vvcurveto
          -19 2 -20 7 -17 vhcurveto
          hintmask 10110000
          -123 -56 -98 -45 -110 vvcurveto
          219 528 rmoveto
          hintmask 10101000
          -14 -24 -5 -18 -17 vvcurveto
          -22 9 -18 10 -20 vhcurveto
          -7 15 17 -5 18 hhcurveto
          16 37 4 8 17 hvcurveto
          9 20 4 20 20 vvcurveto
          19 -4 20 -9 20 vhcurveto
          11 -14 -35 4 -16 hhcurveto
          -18 -19 -6 -9 -18 hvcurveto
          endchar
        </CharString>
        <CharString name="quotedbl">
          -284 419 -21 230 -20 hstem
          31 127 53 127 vstem
          93 628 rmoveto
          24 callsubr
          180 hmoveto
          24 callsubr
          endchar
        </CharString>
        <CharString name="quotedblbase">
          -243 -15 78 callgsubr
          197 99 -101 callgsubr
          190 hmoveto
          -102 callgsubr
          endchar
        </CharString>
        <CharString name="quotedblleft">
          -218 47 callgsubr
          220 406 rmoveto
          -43 callgsubr
          -200 hmoveto
          -43 callgsubr
          endchar
        </CharString>
        <CharString name="quotedblright">
          -220 -18 callgsubr
          200 hmoveto
          -46 callsubr
        </CharString>
        <CharString name="quoteleft">
          -418 47 callgsubr
          20 406 rmoveto
          -43 callgsubr
          endchar
        </CharString>
        <CharString name="quoteright">
          -420 -18 callgsubr
          endchar
        </CharString>
        <CharString name="quotesinglbase">
          -446 -59 78 callgsubr
          180 55 -101 callsubr
        </CharString>
        <CharString name="quotesingle">
          -473 406 -21 219 -20 hstem
          37 105 vstem
          139 597 rmoveto
          4 -18 -18 3 -18 hhcurveto
          -15 -16 -2 -5 -16 hvcurveto
          -1 -9 0 -9 -9 vvcurveto
          -56 10 -56 15 -57 vhcurveto
          -11 11 12 -5 12 hhcurveto
          6 6 1 3 6 hvcurveto
          16 52 11 54 55 vvcurveto
          16 -1 15 -2 16 vhcurveto
          endchar
        </CharString>
        <CharString name="r">
          -117 13 -21 349 171 -148 148 1 -20 hstemhm
          33 239 -166 166 hintmask 10101000
          424 315 rmoveto
          52 22 42 35 17 75 rrcurveto
          39 -32 -42 26 -55 -96 -21 -78 -2 hhcurveto
          17 0 17 1 17 vhcurveto
          hintmask 10011000
          24 -28 -24 4 -55 hhcurveto
          -102 -34 -14 -4 -8 hvcurveto
          -3 -7 -1 -11 -38 vvcurveto
          -39 78 callsubr
          hintmask 10100100
          -13 10 21 -5 19 hhcurveto
          8 8 1 89 callgsubr
          -2 -4 -1 -18 -29 vvcurveto
          -64 5 -75 4 -6 vhcurveto
          2 -5 -5 77 callgsubr
          -18 -22 -6 -3 -14 hvcurveto
          59 callgsubr
          83 87 callgsubr
          21 19 12 47 38 vvcurveto
          25 -5 21 -10 7 vhcurveto
          -1 3 -49 9 -9 hhcurveto
          -2 15 -1 14 14 vvcurveto
          hintmask 11001000
          74 30 63 55 19 23 -8 -18 25 vhcurveto
          endchar
        </CharString>
        <CharString name="registered">
          168 -19 123 104 165 80 78 -4 -20 116 128 hstemhm
          42 139 115 101 71 91 95 123 hintmask 1101111110000000
          383 502 rmoveto
          0 0 2 3 vvcurveto
          4 0 5 -1 6 vhcurveto
          2 -6 -14 3 -19 hhcurveto
          -25 -31 -5 -11 -11 hvcurveto
          -3 -9 -3 -11 -13 vvcurveto
          -13 3 -12 5 -6 vhcurveto
          -2 11 0 -1 11 hhcurveto
          -4 -21 0 -45 -44 vvcurveto
          -67 vlineto
          -16 -1 -1 -6 -4 hvcurveto
          -2 -5 -3 -9 -10 vvcurveto
          -6 1 -8 4 -4 vhcurveto
          -6 1 35 -4 38 hhcurveto
          39 27 4 6 2 hvcurveto
          4 5 2 8 8 vvcurveto
          7 -2 9 -4 5 vhcurveto
          7 -7 -4 0 -12 hhcurveto
          6 45 rlineto
          34 27 -10 -31 14 hvcurveto
          -11 -1 -11 -2 -5 -4 rrcurveto
          -1 -2 -1 -5 -6 vvcurveto
          -15 5 -21 7 -2 vhcurveto
          -5 14 36 -3 30 hhcurveto
          18 15 1 4 8 hvcurveto
          5 6 4 11 9 vvcurveto
          7 -3 8 -4 5 vhcurveto
          3 -6 -3 2 -4 hhcurveto
          -3 -1 0 -1 -3 hvcurveto
          41 -6 39 -37 11 vhcurveto
          29 21 12 26 27 vvcurveto
          hintmask 1110111110000000
          54 -49 52 -57 -24 -24 -9 -20 -22 vhcurveto
          14 -100 rmoveto
          28 23 23 19 17 12 -16 -18 -26 -25 -20 -21 -15 -10 11 18 vhcurveto
          87 349 rmoveto
          -260 -182 -250 -214 -161 103 -145 236 222 174 128 282 185 -75 175 -218 hvcurveto
          -303 -450 rmoveto
          142 122 180 160 102 89 -72 -148 -170 -116 -129 -160 -141 -56 101 96 vhcurveto
          endchar
        </CharString>
        <CharString name="s">
          79 callsubr
          13 -20 hstemhm
          16 174 -148 148 -148 170 83 194 hintmask 10100011
          489 166 0 callgsubr
          hintmask 10011001
          66 callsubr
          hintmask 10100101
          8 callsubr
          81 callgsubr
          vhcurveto
          hintmask 01101001
          -65 -23 -85 -49 -2 hvcurveto
          65 callsubr
          hintmask 10101001
          51 callgsubr
        </CharString>
        <CharString name="scaron">
          79 callsubr
          243 -20 hstemhm
          16 174 -148 170 83 194 hintmask 10110110
          388 743 -88 callgsubr
          101 -577 0 callgsubr
          66 callsubr
          8 callsubr
          hintmask 01111010
          81 callgsubr
          -65 -23 -85 -49 -2 vhcurveto
          65 callsubr
          hintmask 10111010
          51 callgsubr
        </CharString>
        <CharString name="section">
          -176 0 104 -84 -21 188 82 83 80 98 92 8 -20 hstemhm
          48 127 -88 127 52 126 -87 126 hintmask 1011100110000000
          87 460 rmoveto
          -20 3 -13 4 -12 vhcurveto
          hintmask 1011101010000000
          -28 -28 -18 -43 -44 vvcurveto
          -102 94 -9 54 -2 vhcurveto
          32 -1 38 -3 -32 vvcurveto
          -27 -26 -20 -46 -18 -19 3 20 -15 vhcurveto
          -1 9 1 4 -5 11 rrcurveto
          5 -7 -30 1 -22 hhcurveto
          -19 -33 -8 -36 -39 vvcurveto
          -14 1 -15 3 -16 vhcurveto
          hintmask 0111101010000000
          -3 11 15 -2 14 hhcurveto
          9 9 1 2 7 hvcurveto
          6 6 7 5 5 11 rrcurveto
          hintmask 1011101010000000
          -16 23 21 -8 35 hhcurveto
          98 77 65 108 17 -2 11 -4 11 hvcurveto
          hintmask 1011100101000000
          27 28 18 46 46 vvcurveto
          76 -50 24 -49 vhcurveto
          -10 -41 -1 -10 hhcurveto
          -43 -14 17 20 31 33 31 37 15 18 -5 -13 16 hvcurveto
          -7 0 -4 4 -10 vhcurveto
          -6 8 13 -2 13 hhcurveto
          9 8 1 1 7 hvcurveto
          20 5 7 48 38 vvcurveto
          20 -2 17 -3 8 vhcurveto
          hintmask 1011011010000000
          7 -5 -11 2 -12 hhcurveto
          -14 -14 -3 -4 -8 hvcurveto
          -5 -3 -11 -11 -4 -10 rrcurveto
          hintmask 1011100101000000
          15 -28 -30 8 -29 hhcurveto
          -81 -78 -62 -100 hvcurveto
          218 -149 rmoveto
          -15 -12 -19 -21 -6 vhcurveto
          -1 -8 -11 -1 -13 hhcurveto
          hintmask 1011101001000000
          -30 -35 6 32 16 8 16 14 12 hvcurveto
          5 1 1 12 hhcurveto
          29 61 -6 -35 hvcurveto
          endchar
        </CharString>
        <CharString name="semicolon">
          -389 -73 -21 258 155 0 189 hstemhm
          59 162 hintmask 10110000
          200 343 -62 callgsubr
          24 -187 rmoveto
          hintmask 11010000
          -46 callsubr
        </CharString>
        <CharString name="seven">
          -204 16 -21 487 228 -157 157 hstemhm
          hintmask 11000000
          262 560 rmoveto
          -86 -144 -76 -245 -44 -162 rrcurveto
          -10 1 30 -4 35 hhcurveto
          30 34 3 3 22 hvcurveto
          69 61 112 374 64 241 rrcurveto
          27 -39 -74 6 -72 hhcurveto
          -82 -109 -8 -10 -19 hvcurveto
          -20 -13 -16 -40 -74 vvcurveto
          -19 1 -7 3 -19 vhcurveto
          -18 15 56 -20 38 hhcurveto
          9 8 1 3 6 hvcurveto
          hintmask 10100000
          8 16 2 22 1 29 39 2 38 4 16 1 rrcurveto
          endchar
        </CharString>
        <CharString name="six">
          7 -15 141 188 132 108 157 -12 -20 hstemhm
          35 204 -204 243 175 166 hintmask 11011010
          437 495 rmoveto
          -9 12 51 -18 31 hhcurveto
          5 5 0 1 5 hvcurveto
          43 42 25 80 61 12 -1 2 7 vvcurveto
          14 -11 -35 12 -33 hhcurveto
          -10 -10 -1 -3 -9 hvcurveto
          -3 -8 -18 -3 -2 hvcurveto
          hintmask 11101010
          25 -50 -47 12 -53 hhcurveto
          -203 -104 -177 -179 -184 109 -186 202 142 131 91 155 113 -70 102 -151 -64 -49 -18 -39 -45 hvcurveto
          8 -1 3 12 vvcurveto
          96 56 46 69 25 26 -6 -11 26 vhcurveto
          -3 -3 -4 -11 -12 vvcurveto
          -5 1 -6 2 -5 vhcurveto
          -55 -181 rmoveto
          49 22 -35 -39 -53 -40 -61 -63 hvcurveto
          hintmask 11100110
          -40 -32 24 50 56 41 58 63 hvcurveto
          endchar
        </CharString>
        <CharString name="slash">
          94 callgsubr
          576 702 67 callsubr
          -219 -225 -146 -277 -107 -307 69 callgsubr
          223 235 154 271 95 303 rrcurveto
          endchar
        </CharString>
        <CharString name="space">
          -459 endchar
        </CharString>
        <CharString name="sterling">
          20 -9 165 -165 220 -198 -21 316 137 204 108 hstemhm
          118 183 hintmask 00111100
          301 308 rmoveto
          56 2 66 5 20 4 rrcurveto
          9 16 6 16 16 vvcurveto
          15 -5 44 -10 10 vhcurveto
          -22 5 -58 3 -50 1 rrcurveto
          135 22 54 69 89 hhcurveto
          24 25 -5 -11 28 hvcurveto
          6 9 7 18 21 vvcurveto
          17 -5 19 -16 16 vhcurveto
          16 -53 -48 8 -43 hhcurveto
          -171 -80 -127 -187 -25 hvcurveto
          -27 -2 -25 -3 -18 -2 rrcurveto
          -9 -11 -4 -48 -12 vvcurveto
          -14 5 -16 8 -16 vhcurveto
          16 -3 22 -2 23 -2 rrcurveto
          -124 -3 -42 -43 -106 vhcurveto
          -27 14 73 -21 31 hhcurveto
          9 10 2 4 11 hvcurveto
          2 2 11 13 14 25 rrcurveto
          hintmask 01011100
          -5 85 148 -42 67 hhcurveto
          64 19 38 76 11 hvcurveto
          47 -5 -35 59 -28 hhcurveto
          -4 -3 -1 -2 -3 hvcurveto
          hintmask 10011100
          -45 -11 -4 -7 -24 hhcurveto
          -48 -132 29 9 -49 hvcurveto
          4 25 2 28 61 vvcurveto
          endchar
        </CharString>
        <CharString name="t">
          -205 -10 154 225 135 2 -20 21 -20 213 -20 hstemhm
          75 184 hintmask 11001100
          367 171 rmoveto
          -5 -1 -18 -2 -9 vvcurveto
          -13 -1 -1 -2 -14 hhcurveto
          -44 -25 18 61 hvcurveto
          12 1 124 10 vvcurveto
          57 13 -1 5 hhcurveto
          8 29 3 1 7 hvcurveto
          3 3 1 7 15 vvcurveto
          31 -4 50 -9 12 vhcurveto
          -10 6 -15 5 -71 3 -10 190 rcurveline
          4 -35 -28 2 -25 hhcurveto
          -32 -21 -3 -3 -37 hvcurveto
          hintmask 10101100
          -188 vlineto
          hintmask 10011100
          -2 -21 1 -14 hhcurveto
          -5 -30 71 callsubr
          -50 9 -12 vhcurveto
          9 -5 22 -5 28 -3 rrcurveto
          -344 48 -38 160 93 11 13 23 43 vhcurveto
          9 12 4 51 30 vvcurveto
          15 -1 27 -9 26 vhcurveto
          endchar
        </CharString>
        <CharString name="thorn">
          -68 -220 150 62 177 198 145 96 150 hstemhm
          56 181 -181 210 150 145 hintmask 11110110
          384 -8 rmoveto
          115 62 152 110 91 callgsubr
          -26 45 callgsubr
          -76 6 -53 hhcurveto
          -100 -16 -21 2 hvcurveto
          -3 -8 -1 -8 -40 vvcurveto
          -40 1 -9 3 -8 vhcurveto
          -11 7 29 86 callgsubr
          -1 -144 -3 -136 -140 vvcurveto
          -81 1 -98 3 -83 vhcurveto
          1 -4 -6 77 callgsubr
          -19 -29 83 callgsubr
          44 callsubr
          76 53 callgsubr
          vvcurveto
          56 -2 44 -1 19 vhcurveto
          -22 48 27 -24 46 hhcurveto
          32 254 rmoveto
          -40 -26 -37 -43 vhcurveto
          hintmask 11111010
          74 callgsubr
          hvcurveto
          endchar
        </CharString>
        <CharString name="three">
          -72 -20 167 386 -20 61 139 hstemhm
          343 188 -188 201 hintmask 11110000
          461 354 rmoveto
          47 34 23 53 56 vvcurveto
          104 -82 112 -139 -45 -36 -12 -25 -39 vhcurveto
          -8 8 -36 -1 -12 -9 -9 -16 rlinecurve
          -31 32 -67 29 -23 vhcurveto
          -3 4 2 -1 6 hhcurveto
          18 13 9 12 6 hvcurveto
          -1 5 -1 4 5 vvcurveto
          4 9 10 2 10 hhcurveto
          48 33 -42 -43 -16 -5 -14 -9 -10 hvcurveto
          6 -6 -18 0 -11 hhcurveto
          -32 -35 -8 -4 -4 hvcurveto
          -4 -16 -4 -34 -25 vvcurveto
          -29 5 -38 14 -16 vhcurveto
          -4 9 15 -2 18 hhcurveto
          12 16 1 3 12 hvcurveto
          19 -15 7 -19 -21 vvcurveto
          -51 -41 -30 -45 -14 -14 3 6 -14 vhcurveto
          8 8 5 7 1 6 -1 23 -29 43 -22 10 -112 -33 -59 -72 -5 -16 rrcurveto
          -1 -3 0 -2 -2 vvcurveto
          -25 15 -36 22 -19 vhcurveto
          3 11 4 8 15 hvcurveto
          -55 48 66 -22 74 hhcurveto
          hintmask 11101000
          144 147 85 133 55 -26 57 -57 44 hvcurveto
          endchar
        </CharString>
        <CharString name="threequarters">
          206 -1 239 -100 100 65 92 callsubr
          199 118 283 214 -166 135 hintmask 01101101
          776 387 rmoveto
          7 -14 -36 5 -46 hhcurveto
          -21 -26 -1 -8 -19 hvcurveto
          -54 -22 -47 -79 -23 -50 13 callsubr
          -9 -10 vvcurveto
          -10 1 -10 1 -14 vhcurveto
          -25 -1 -8 1 -10 -4 rrcurveto
          hintmask 10101110
          -4 -3 -3 -6 -16 vvcurveto
          -14 3 -25 2 -7 vhcurveto
          -29 callsubr
          6 4 4 16 20 vvcurveto
          20 60 callgsubr
          hintmask 10101101
          -59 callsubr
          -308 -85 46 callgsubr
          hintmask 10110110
          -30 callsubr
          -3 -5 -1 -21 -10 vvcurveto
          -14 -49 callsubr
        </CharString>
        <CharString name="threesuperior">
          -316 303 92 callsubr
          121 180 -118 118 hintmask 10101000
          269 510 46 callgsubr
          hintmask 11001000
          -30 callsubr
          hintmask 10110000
          -3 -7 -1 -16 -11 vvcurveto
          -16 -49 callsubr
        </CharString>
        <CharString name="tilde">
          179 585 71 callgsubr
          493 699 -71 callsubr
          hintmask 01010000
          -83 callgsubr
          hintmask 10001000
          2 callgsubr
        </CharString>
        <CharString name="trademark">
          217 292 74 -55 -21 211 123 -80 80 2 -20 hstemhm
          62 232 -117 117 -117 231 46 106 87 163 -138 112 hintmask 1001010011000000
          157 306 rmoveto
          -9 9 42 -5 31 hhcurveto
          31 35 5 9 8 hvcurveto
          3 6 1 10 10 vvcurveto
          11 -1 11 -3 6 vhcurveto
          3 -8 -8 3 -13 hhcurveto
          8 2 2 45 45 vvcurveto
          45 -2 37 -1 4 vhcurveto
          10 14 0 -7 8 hvcurveto
          8 -29 rlineto
          hintmask 1010000111000000
          -6 11 13 -1 13 hhcurveto
          13 12 1 4 12 hvcurveto
          2 7 1 13 16 vvcurveto
          22 -2 51 -3 2 vhcurveto
          4 -55 -55 3 -55 hhcurveto
          -56 -56 -3 -4 -57 hvcurveto
          hintmask 1010010011000000
          -4 -12 -3 -45 -21 vvcurveto
          -12 1 -14 2 -7 vhcurveto
          -4 12 14 -1 13 hhcurveto
          12 13 1 6 10 hvcurveto
          8 29 0 0 0 vvcurveto
          hintmask 1001001010100000
          3 3 3 3 29 1 rrcurveto
          -1 -32 -4 -28 -34 vvcurveto
          -29 3 -28 7 -27 vhcurveto
          -2 -6 -1 -1 -4 hvcurveto
          -16 -3 4 0 -6 -1 rrcurveto
          -2 -2 0 -7 -10 vvcurveto
          -13 1 -16 1 -6 vhcurveto
          462 102 rmoveto
          16 14 19 15 18 16 rrcurveto
          -34 2 -22 2 -31 vhcurveto
          -6 -13 -4 -2 -7 hvcurveto
          hintmask 0110010011000000
          -2 -2 -1 -8 -9 vvcurveto
          -13 2 -17 1 -5 vhcurveto
          -11 11 41 -5 36 hhcurveto
          27 24 3 5 11 hvcurveto
          6 16 4 17 18 vvcurveto
          10 vlineto
          3 -6 -9 88 callgsubr
          hintmask 1001010010100000
          2 36 4 39 35 vvcurveto
          24 -2 23 -4 24 vhcurveto
          hintmask 1000110011000000
          11 10 0 4 11 hvcurveto
          21 -4 29 -6 22 vhcurveto
          4 -9 -17 2 -21 hhcurveto
          -37 -49 -6 -9 -17 67 callgsubr
          hintmask 1001010011000000
          2 -2 7 0 4 -1 -14 -18 -12 -5 -18 -11 -18 11 -11 5 -16 18 rrcurveto
          6 5 1 3 6 hvcurveto
          21 -2 30 -7 21 vhcurveto
          2 -5 -19 2 -24 hhcurveto
          -33 -63 -4 -9 -6 67 callgsubr
          -4 7 11 0 10 hhcurveto
          -4 -29 -2 -28 -30 vvcurveto
          -30 2 -30 4 -30 vhcurveto
          -5 -17 -4 -2 -6 hvcurveto
          -4 -4 -1 -6 -7 vvcurveto
          -15 4 -13 1 -9 vhcurveto
          -10 7 36 -4 35 hhcurveto
          30 30 3 3 12 hvcurveto
          6 14 4 16 16 vvcurveto
          5 0 5 -1 5 vhcurveto
          3 -6 -8 88 callgsubr
          2 32 2 27 1 31 20 -16 17 -15 17 -14 rrcurveto
          endchar
        </CharString>
        <CharString name="two">
          6 16 -21 24 165 260 250 -148 162 hstemhm
          40 228 143 201 hintmask 11011100
          326 411 rmoveto
          -266 -34 -8 -91 -12 -286 rrcurveto
          -3 9 24 -2 26 hhcurveto
          31 33 3 9 7 61 callgsubr
          -2 36 50 -4 49 hhcurveto
          60 59 6 24 29 hvcurveto
          1 -8 9 -36 0 vvcurveto
          -7 2 24 -3 26 hhcurveto
          25 26 3 2 10 hvcurveto
          3 2 26 32 83 vvcurveto
          42 -7 73 -19 11 vhcurveto
          6 -11 -18 4 -18 hhcurveto
          -18 -17 -4 -6 -10 hvcurveto
          -6 -12 -8 -8 -12 99 callgsubr
          -2 1 -3 vhcurveto
          -14 -36 -35 -6 -35 hhcurveto
          -34 -35 6 8 -39 hvcurveto
          2 76 27 2 83 5 rrcurveto
          88 5 144 9 166 vvcurveto
          150 -117 97 -127 -58 -61 -20 -44 -51 vhcurveto
          -7 18 6 17 -14 11 rrcurveto
          hintmask 11101100
          3 -3 -10 1 -13 hhcurveto
          -32 -49 -7 -9 -11 hvcurveto
          -4 -12 -2 -29 -29 vvcurveto
          -63 9 -93 32 -7 vhcurveto
          5 2 -1 11 hhcurveto
          23 41 4 7 10 hvcurveto
          6 15 0 8 10 vvcurveto
          hintmask 11011100
          39 13 46 19 45 hhcurveto
          55 54 -28 -57 -44 -33 1 -52 -7 hvcurveto
          endchar
        </CharString>
        <CharString name="twosuperior">
          -277 313 -21 310 98 hstem
          45 142 29 112 vstem
          216 573 50 callsubr
          12 -2 13 hhcurveto
          16 16 3 6 11 hvcurveto
          1 1 0 2 1 5 rrcurveto
          42 callgsubr
          -5 3 17 -1 17 hhcurveto
          17 16 1 1 2 hvcurveto
          10 10 4 28 29 vvcurveto
          32 -44 callgsubr
          -14 -17 vvcurveto
          -31 7 -55 12 -8 3 callsubr
        </CharString>
        <CharString name="u">
          63 -10 171 -143 -21 333 170 -156 156 4 callsubr
          hintmask 10011010
          620 -37 callgsubr
          19 11 10 33 30 vvcurveto
          18 -4 17 -7 10 vhcurveto
          21 -15 -50 7 -65 hhcurveto
          -73 -48 -9 -25 -55 hvcurveto
          -68 callgsubr
          -16 callsubr
          -45 84 callsubr
          39 35 callgsubr
          hintmask 10101100
          -58 callgsubr
          -52 callgsubr
          -85 callgsubr
          hintmask 01101010
          -84 callsubr
          hintmask 10101100
          37 callgsubr
          endchar
        </CharString>
        <CharString name="uacute">
          -13 callgsubr
          268 -102 callsubr
          -124 376 -101 callsubr
        </CharString>
        <CharString name="ucircumflex">
          -13 callgsubr
          269 -102 callsubr
          -146 247 -104 callsubr
        </CharString>
        <CharString name="udieresis">
          -13 callgsubr
          107 155 96 callsubr
          -65 134 53 137 -61 187 -187 244 hintmask 1001011001000000
          620 -81 callsubr
          hintmask 1001011010000000
          -68 callgsubr
          hintmask 1010011000100000
          -16 callsubr
          -45 84 callsubr
          39 81 17 2 18 56 callgsubr
          hintmask 1000110110000000
          57 callsubr
          22 19 vvcurveto
          29 -13 52 -10 7 vhcurveto
          -52 callgsubr
          hintmask 1010011010000000
          -85 callgsubr
          hintmask 0110011000100000
          -84 callsubr
          hintmask 1010010101000000
          37 callgsubr
          -333 260 rmoveto
          -106 callgsubr
          190 hmoveto
          hintmask 1010011010000000
          -106 callgsubr
          endchar
        </CharString>
        <CharString name="ugrave">
          -13 callgsubr
          267 -102 callsubr
          -449 375 -99 callgsubr
        </CharString>
        <CharString name="underscore">
          106 -212 111 hstem
          655 -199 -25 callgsubr
          2 -39 -45 9 -128 hhcurveto
          -95 -188 -5 -6 -51 -67 callgsubr
          -5 74 119 -8 87 hhcurveto
          61 199 4 9 6 hvcurveto
          endchar
        </CharString>
        <CharString name="uni00AD">
          -34 callsubr
        </CharString>
        <CharString name="v">
          8 22 -21 524 -20 hstem
          593 337 rmoveto
          36 callsubr
          7 17 4 11 7 26 87 callsubr
          -119 15 callsubr
          -19 -66 -29 -91 -45 -55 -34 29 -45 138 -14 45 15 callgsubr
          -83 95 callgsubr
          3 -13 1 -4 8 -29 3 -8 7 -17 36 callgsubr
          14 -66 61 -92 37 -60 rrcurveto
          -2 -15 -4 -8 -13 hvcurveto
          -10 -6 -14 -11 -4 -6 rrcurveto
          93 callgsubr
          97 -6 121 hhcurveto
          50 26 0 9 22 hvcurveto
          39 16 4 22 5 36 -5 7 -16 12 -7 4 rrcurveto
          8 -13 -15 4 -2 hhcurveto
          38 66 56 72 18 80 rrcurveto
          endchar
        </CharString>
        <CharString name="w">
          390 18 -21 524 -20 hstem
          347 -3 rmoveto
          45 83 122 85 46 hvcurveto
          -85 47 83 -122 45 hhcurveto
          83 90 6 2 5 hvcurveto
          25 20 22 23 32 vvcurveto
          -10 13 -22 17 -16 5 22 37 21 30 29 62 18 39 11 31 1 19 36 callsubr
          14 33 8 35 6 38 -60 48 -88 31 -113 18 rrcurveto
          -15 -10 -24 -81 -10 vvcurveto
          -13 47 -13 9 -1 vhcurveto
          -7 -39 -46 -113 -25 -40 -52 52 -40 148 -25 78 rrcurveto
          15 -35 -20 3 -27 hhcurveto
          -51 -26 -11 -7 -10 hvcurveto
          -21 -44 -38 -180 -58 -44 -33 60 -38 83 -7 39 rrcurveto
          11 42 14 12 3 hvcurveto
          32 -21 43 -18 27 vhcurveto
          -113 -18 -88 95 callgsubr
          8 -34 14 -37 36 callgsubr
          1 -20 14 -37 15 -32 27 -58 23 -34 22 -37 rrcurveto
          -8 -34 -28 -7 -6 hvcurveto
          93 callgsubr
          90 -6 83 hhcurveto
          endchar
        </CharString>
        <CharString name="x">
          28 -3 104 289 111 -1 -20 hstemhm
          hintmask 11000000
          340 192 rmoveto
          50 -72 -6 1 36 -23 rrcurveto
          2 -5 -7 77 callgsubr
          -11 -13 -3 -8 -6 hvcurveto
          -24 16 -50 22 -11 vhcurveto
          -5 29 39 -3 41 hhcurveto
          58 60 6 14 28 hvcurveto
          5 vlineto
          28 -7 37 -21 16 vhcurveto
          1 -5 -7 1 -7 -7 -5 -1 -5 hhcurveto
          46 -63 69 -52 33 vhcurveto
          51 35 63 57 1 54 rrcurveto
          -3 7 8 -5 8 hhcurveto
          4 5 1 4 4 hvcurveto
          19 19 8 40 28 vvcurveto
          12 -28 -61 7 -60 hhcurveto
          -39 -38 -3 -5 -28 hvcurveto
          -14 -14 -24 -54 -17 vvcurveto
          -6 3 10 -3 15 hhcurveto
          6 8 0 2 7 hvcurveto
          -32 -30 -13 -15 -35 -42 -47 67 -7 5 -25 15 rrcurveto
          -1 5 6 -1 6 hhcurveto
          11 13 3 6 8 hvcurveto
          21 -25 62 -14 2 vhcurveto
          hintmask 10100000
          5 -28 -39 2 -36 hhcurveto
          -62 -61 -6 -12 -28 hvcurveto
          1 -31 7 -31 20 -25 rrcurveto
          18 9 1 2 9 hvcurveto
          1 -54 62 -57 54 -35 -54 -33 -63 -68 -2 -50 rrcurveto
          2 -5 -5 77 callgsubr
          -5 -5 0 -1 -7 hvcurveto
          -23 -30 -6 -28 -28 vvcurveto
          -14 28 60 -6 58 hhcurveto
          41 39 3 5 29 hvcurveto
          14 2 24 71 1 14 rrcurveto
          5 -4 -10 2 -13 hhcurveto
          -7 -7 0 -1 -8 hvcurveto
          37 27 10 27 32 40 rrcurveto
          endchar
        </CharString>
        <CharString name="y">
          -24 callsubr
          hstemhm
          74 162 198 82 callsubr
          hintmask 0100110011000000
          -3 callsubr
          -116 -68 vvcurveto
          -13 1 -11 2 -8 vhcurveto
          -5 2 32 -3 32 hhcurveto
          hintmask 0010110011000000
          18 20 43 callgsubr
          hintmask 0001110010100000
          18 callgsubr
          hintmask 1000101011000000
          34 callgsubr
          14 12 6 3 2 hvcurveto
          8 10 3 32 28 -3 callgsubr
          33 callsubr
          hintmask 1000110011000000
          -25 callsubr
          hintmask 1000100111000000
          -47 callgsubr
          endchar
        </CharString>
        <CharString name="yacute">
          -24 callsubr
          258 -20 hstemhm
          74 162 198 82 callsubr
          hintmask 0100110011100000
          24 callgsubr
          -15 5 -7 vhcurveto
          -9 8 15 -1 31 hhcurveto
          hintmask 0010110011100000
          31 17 43 callgsubr
          hintmask 0001110011010000
          18 callgsubr
          hintmask 1000101011100000
          -9 callsubr
          33 callsubr
          hintmask 1000110011100000
          -25 callsubr
          hintmask 1000100111100000
          -47 callgsubr
          367 758 -101 callsubr
        </CharString>
        <CharString name="ydieresis">
          -24 callsubr
          97 84 callgsubr
          74 162 -63 132 54 138 -63 82 callsubr
          hintmask 0100110011010000
          24 callgsubr
          -14 5 -8 vhcurveto
          -9 8 15 -1 31 hhcurveto
          hintmask 0010110011010000
          31 17 43 callgsubr
          hintmask 0001110011000100
          18 callgsubr
          hintmask 1000101011001000
          -9 callsubr
          hintmask 1000110011010000
          33 callsubr
          33 callgsubr
          hintmask 1000110011001000
          -16 callsubr
          -45 84 callsubr
          39 81 17 2 28 56 callgsubr
          hintmask 1000100110110000
          57 callsubr
          27 26 vvcurveto
          30 -8 29 -15 17 vhcurveto
          -39 callsubr
          hintmask 1000110011010000
          -54 callsubr
          163 642 rmoveto
          26 callgsubr
          hintmask 1000110010110000
          -105 callsubr
          endchar
        </CharString>
        <CharString name="yen">
          82 -1 243 -54 54 460 -20 hstemhm
          hintmask 01100000
          554 284 rmoveto
          73 callgsubr
          -2 2 -45 4 -35 4 107 69 24 66 33 48 36 callsubr
          7 17 3 8 8 29 87 callsubr
          -124 15 callsubr
          -8 -41 -45 -126 -35 -35 -37 60 -52 100 -9 42 15 callgsubr
          -88 -31 -60 -48 rrcurveto
          8 -47 2 -3 -2 vvcurveto
          7 -26 5 -14 6 -14 5 callsubr
          -39 -4 -38 -3 -22 58 callgsubr
          23 -4 41 -4 40 -2 2 -32 rcurveline
          -41 -2 -42 -3 -23 58 callgsubr
          24 -4 42 -3 41 -2 2 -37 rcurveline
          -17 callgsubr
          hintmask 10100000
          -56 callsubr
          1 9 1 13 14 vvcurveto
          38 2 38 3 16 5 rrcurveto
          73 callgsubr
          -3 3 -42 3 -45 2 2 32 rcurveline
          36 2 36 3 16 5 rrcurveto
          endchar
        </CharString>
        <CharString name="z">
          46 callsubr
          hstemhm
          hintmask 10100000
          283 149 13 callgsubr
          hintmask 10001000
          27 callgsubr
          hintmask 10100000
          25 callsubr
          hintmask 10010000
          -37 callsubr
          hintmask 01100000
          25 callgsubr
          hintmask 10100000
          60 callsubr
        </CharString>
        <CharString name="zcaron">
          46 callsubr
          269 -20 hstemhm
          hintmask 10100100
          457 741 -88 callgsubr
          -174 -592 13 callgsubr
          hintmask 10001100
          27 callgsubr
          hintmask 10100100
          25 callsubr
          hintmask 10010100
          -37 callsubr
          hintmask 01100100
          25 callgsubr
          hintmask 10100100
          60 callsubr
        </CharString>
        <CharString name="zero">
          98 -10 184 331 197 hstem
          33 199 297 186 vstem
          443 702 -42 callsubr
          -55 callgsubr
          -211 -400 rmoveto
          87 74 116 104 74 45 -59 -73 -108 -97 -91 -86 -70 -44 61 67 vhcurveto
          endchar
        </CharString>
      <CharString index="0">
        4 -49 -23 1 -38 hhcurveto
        -53 -50 -2 -3 -34 hvcurveto
        -14 -1 -174 -503 -9 -55 rrcurveto
        5 -3 -12 3 -16 hhcurveto
        -15 -16 -3 -5 hvcurveto
        -41 callgsubr
        -9 10 85 -3 61 hhcurveto
        78 95 -74 callgsubr
        -23 -1 -3 vhcurveto
        -3 -1 4 7 14 3 26 7 99 callsubr
        19 36 -1 35 hhcurveto
        35 33 1 4 19 hvcurveto
        6 -34 4 -26 -14 vvcurveto
        -7 -1 -4 -3 -77 callgsubr
        -6 95 -5 78 61 85 3 9 10 vhcurveto
        8 3 3 22 25 vvcurveto
        34 -6 38 -10 2 vhcurveto
        5 -16 3 -15 -16 100 callgsubr
        -5 vhcurveto
        -9 57 -174 501 -14 1 rrcurveto
        -124 -159 rmoveto
        22 -57 23 -77 18 -73 rrcurveto
        3 -18 -24 2 -25 hhcurveto
        -26 -19 -2 -2 -14 hvcurveto
        18 72 23 77 22 57 rrcurveto
        return
      </CharString>
      <CharString index="1">
        26 callgsubr
        -104 callgsubr
        return
      </CharString>
      <CharString index="2">
        rmoveto
        -25 50 -30 49 -44 42 rrcurveto
        9 -15 -15 6 -15 hhcurveto
        -13 -13 -5 -10 -13 hvcurveto
        -49 -47 -23 -47 -27 -47 rrcurveto
        -4 9 94 callsubr
        9 2 4 10 hvcurveto
        36 16 26 26 23 29 21 -31 30 -22 34 -18 rrcurveto
        -5 10 10 -3 9 hhcurveto
        9 9 3 5 9 hvcurveto
        return
      </CharString>
      <CharString index="3">
        -13 -19 -5 -18 -18 vvcurveto
        -21 7 -22 11 -21 vhcurveto
        -14 16 15 -5 15 hhcurveto
        18 18 8 11 17 hvcurveto
        return
      </CharString>
      <CharString index="4">
        -20 hstem
        -107 callsubr
        return
      </CharString>
      <CharString index="5">
        17 -24 -27 9 -30 48 callgsubr
        -9 hvcurveto
        -42 -45 -22 -99 callsubr
        return
      </CharString>
      <CharString index="6">
        rmoveto
        -102 callgsubr
        return
      </CharString>
      <CharString index="7">
        51 callsubr
        hintmask 1001101110000000
        -94 callgsubr
        hintmask 1010011110000000
        -87 callgsubr
        hintmask 1100001110000000
        -79 callsubr
        return
      </CharString>
      <CharString index="8">
        -91 callsubr
        -23 53 -42 45 rrcurveto
        2 -8 -9 0 -42 callgsubr
      </CharString>
      <CharString index="9">
        30 callgsubr
        hintmask 11101000
        -33 callsubr
        -22 -3 -5 -2 -8 -5 -50 callgsubr
        17 16 10 46 37 -73 callsubr
        -70 callsubr
        return
      </CharString>
      <CharString index="10">
        4 6 5 75 64 vvcurveto
        29 -1 18 -2 4 vhcurveto
        -1 6 8 -1 8 hhcurveto
        19 21 5 13 10 -55 callsubr
        -13 20 -107 -48 -42 -4 -24 -28 vhcurveto
        1 -17 0 -17 -17 vvcurveto
        return
      </CharString>
      <CharString index="11">
        302 -78 callsubr
        15 15 6 30 32 vvcurveto
        36 -8 39 -12 20 vhcurveto
        4 -9 -26 3 -23 hhcurveto
        -14 -14 96 callgsubr
        -6 -11 -3 -6 -10 99 callgsubr
        -4 -76 callgsubr
        return
      </CharString>
      <CharString index="12">
        -20 6 callgsubr
        hintmask 10111101
        -61 callsubr
        hintmask 01111101
        -85 callsubr
        hintmask 10111101
        -70 callgsubr
        hintmask 10111011
        -109 -184 rmoveto
        -45 callgsubr
        return
      </CharString>
      <CharString index="13">
        -94 callsubr
        -53 callsubr
        return
      </CharString>
      <CharString index="14">
        14 25 7 24 25 vvcurveto
        23 -6 24 -15 23 vhcurveto
        13 -20 -20 8 -21 hhcurveto
        -20 -19 -7 -14 -19 hvcurveto
        -16 -23 -6 -22 -22 vvcurveto
        -26 8 -26 14 -25 vhcurveto
        -17 19 18 -7 19 hhcurveto
        21 22 10 14 20 hvcurveto
        return
      </CharString>
      <CharString index="15">
        -42 callsubr
        -88 callsubr
        return
      </CharString>
      <CharString index="16">
        -2 7 106 -2 21 hhcurveto
        60 58 17 14 8 -48 callgsubr
        3 -14 -22 6 -18 23 callgsubr
        -5 hvcurveto
        return
      </CharString>
      <CharString index="17">
        -80 callsubr
        -114 20 -129 hhcurveto
        -92 -142 -10 -22 -47 hvcurveto
        -9 -12 0 -7 -28 vvcurveto
        -31 6 -50 21 -11 vhcurveto
        return
      </CharString>
      <CharString index="18">
        rmoveto
        36 callsubr
        6 15 4 12 7 26 2 7 4 18 5 28 rrcurveto
        51 -50 -124 46 -87 hhcurveto
        -2 -15 -33 -6 -3 hvcurveto
        -10 -22 -9 -34 -8 vvcurveto
        -43 callsubr
        8 -8 30 -11 25 59 callsubr
        2 -18 6 -28 2 -6 7 -26 5 -14 6 -14 -83 callsubr
        endchar
      </CharString>
      <CharString index="19">
        rmoveto
        5 -9 -9 3 -9 hhcurveto
        -9 100 callgsubr
        -10 hvcurveto
        -34 -18 -30 -22 -21 -31 -23 29 -26 26 -36 16 rrcurveto
        4 -10 -9 2 -9 89 callsubr
        -2 -4 -9 hvcurveto
        27 -47 23 -47 49 -47 rrcurveto
        -10 13 13 -5 13 hhcurveto
        15 15 6 9 15 hvcurveto
        44 42 30 49 25 50 rrcurveto
        return
      </CharString>
      <CharString index="20">
        -3 9 7 -2 8 hhcurveto
        6 7 1 43 callsubr
        30 31 vvcurveto
        35 -8 36 -15 17 vhcurveto
        14 -41 -52 7 -51 hhcurveto
        -56 -56 -8 -15 -41 hvcurveto
        -13 -22 -8 -35 -34 vvcurveto
        -30 6 -30 14 -19 vhcurveto
        return
      </CharString>
      <CharString index="21">
        -40 callgsubr
        -15 -66 1 -32 hhcurveto
        -109 -78 callgsubr
        return
      </CharString>
      <CharString index="22">
        -21 callsubr
        7 2 1 1 hvcurveto
        -2 -26 -5 -43 -41 vvcurveto
        -161 77 -66 98 71 67 35 45 60 vhcurveto
        -22 callsubr
        return
      </CharString>
      <CharString index="23">
        48 -75 hhcurveto
        -57 -24 -27 -87 -12 hvcurveto
        -25 11 29 -22 22 hhcurveto
        6 5 2 3 5 hvcurveto
        47 10 7 4 21 hhcurveto
        return
      </CharString>
      <CharString index="24">
        -66 -26 -84 callgsubr
        return
      </CharString>
      <CharString index="25">
        -20 callgsubr
        33 -13 43 vhcurveto
        4 -16 -15 2 -16 hhcurveto
        -38 -38 -12 -21 -32 hvcurveto
        3 -33 rlineto
        return
      </CharString>
      <CharString index="26">
        -57 callgsubr
        -35 callgsubr
        1 callsubr
        26 5 43 41 vvcurveto
        161 -77 66 -98 -71 -67 -35 -45 -60 vhcurveto
        return
      </CharString>
      <CharString index="27">
        4 -16 -17 4 -18 hhcurveto
        -29 -36 -10 -16 -30 hvcurveto
        -32 -77 -6 -77 -1 -77 rrcurveto
        -1 5 6 0 4 hhcurveto
        24 19 16 15 18 hvcurveto
        52 64 41 71 16 84 rrcurveto
        return
      </CharString>
      <CharString index="28">
        rmoveto
        7 14 4 13 13 vvcurveto
        11 -3 12 -8 11 vhcurveto
        5 -34 -34 3 -35 hhcurveto
        -29 -30 -2 -6 -31 hvcurveto
        9 34 5 35 35 vvcurveto
        31 -4 32 -10 32 vhcurveto
        8 -11 -13 4 -13 hhcurveto
        -13 -13 -4 -8 -15 hvcurveto
        -10 -30 -4 -30 -32 vvcurveto
        -35 5 -36 9 -36 vhcurveto
        7 -31 -31 3 -33 hhcurveto
        -32 -33 -3 -7 -33 hvcurveto
        -11 -14 -5 -12 -12 vvcurveto
        -13 6 -12 10 -11 vhcurveto
        -8 32 32 -3 30 hhcurveto
        35 32 4 7 32 hvcurveto
        -8 -33 -3 -32 -31 vvcurveto
        -35 4 -34 7 -34 vhcurveto
        -7 12 13 -3 12 hhcurveto
        14 13 4 6 14 hvcurveto
        9 35 5 36 35 vvcurveto
        31 -4 31 -10 31 vhcurveto
        -9 31 30 -4 30 hhcurveto
        34 34 5 8 34 hvcurveto
        return
      </CharString>
      <CharString index="29">
        -38 -12 -15 -13 -27 callsubr
        4 -4 -31 callgsubr
        return
      </CharString>
      <CharString index="30">
        vhcurveto
        3 -23 1 -6 -16 -10 -9 -7 vhcurveto
        -2 -6 -1 -10 -12 vvcurveto
        -30 6 -40 16 -10 vhcurveto
        return
      </CharString>
      <CharString index="31">
        -4 callgsubr
        9 23 4 24 25 vvcurveto
        17 -2 18 -2 18 vhcurveto
        -49 callgsubr
        return
      </CharString>
      <CharString index="32">
        rmoveto
        51 45 70 62 44 28 -35 -44 -64 -58 -55 -52 -43 -26 37 40 vhcurveto
        return
      </CharString>
      <CharString index="33">
        5 6 hvcurveto
        16 10 6 40 30 83 callsubr
        10 -2 6 vhcurveto
        7 -10 9 -16 -6 return
      </CharString>
      <CharString index="34">
        -2 13 -6 9 vhcurveto
        10 -64 14 -74 -40 -83 -4 -3 -16 vhcurveto
        -16 -24 -11 -22 -25 vvcurveto
        -12 3 -12 5 -13 vhcurveto
        -4 16 13 0 16 hhcurveto
        return
      </CharString>
      <CharString index="35">
        -71 callsubr
        hintmask 11001011
        -83 callgsubr
        hintmask 11100111
        -24 callgsubr
        return
      </CharString>
      <CharString index="36">
        -9 -13 -4 -13 -13 vvcurveto
        -16 5 -16 8 -16 vhcurveto
        return
      </CharString>
      <CharString index="37">
        -2 -10 -7 -1 -19 hhcurveto
        -46 -74 6 67 -2 hvcurveto
        -3 16 17 -2 20 hhcurveto
        118 133 70 119 84 -67 45 -109 hvcurveto
        return
      </CharString>
      <CharString index="38">
        92 363 rmoveto
        -41 callsubr
        56 50 64 58 hvcurveto
        return
      </CharString>
      <CharString index="39">
        -12 -7 -5 -27 -27 vvcurveto
        -29 6 -28 11 -4 vhcurveto
        -5 3 8 callgsubr
        14 15 4 4 7 hvcurveto
        return
      </CharString>
      <CharString index="40">
        hvcurveto
        -71 callgsubr
        return
      </CharString>
      <CharString index="41">
        5 rlineto
        -13 2 -8 7 -9 vhcurveto
        -5 4 21 -2 20 hhcurveto
        20 21 2 5 6 hvcurveto
        return
      </CharString>
      <CharString index="42">
        rmoveto
        58 33 38 18 55 -48 callsubr
        return
      </CharString>
      <CharString index="43">
        10 -3 -7 7 -15 hhcurveto
        -12 -18 -5 -12 -27 hvcurveto
        -72 -71 -49 -82 -40 -85 36 -97 55 -82 73 -65 rrcurveto
        -4 12 12 -8 13 hhcurveto
        12 11 7 21 13 hvcurveto
        -24 84 -41 78 -75 66 70 74 41 82 35 82 rrcurveto
        return
      </CharString>
      <CharString index="44">
        -5 -6 -45 -67 callgsubr
        -7 47 return
      </CharString>
      <CharString index="45">
        rmoveto
        -93 callgsubr
        return
      </CharString>
      <CharString index="46">
        27 callsubr
        5 6 -1 6 hhcurveto
        15 18 5 7 15 hvcurveto
        4 7 2 13 16 vvcurveto
        36 -10 48 -16 9 vhcurveto
        6 -17 -46 3 -48 hhcurveto
        -73 -80 -7 -20 -9 hvcurveto
        return
      </CharString>
      <CharString index="47">
        rmoveto
        15 -5 -8 6 -13 hhcurveto
        -8 -11 -2 -7 -11 hvcurveto
        -153 -157 -102 -194 -75 -213 rrcurveto
        -19 4 8 -9 11 hhcurveto
        8 13 4 11 12 hvcurveto
        157 164 106 189 67 212 rrcurveto
        return
      </CharString>
      <CharString index="48">
        -1 6 5 0 6 hhcurveto
        14 16 2 9 18 hvcurveto
        return
      </CharString>
      <CharString index="49">
        -50 callsubr
        22 19 vvcurveto
        29 -13 52 -10 7 vhcurveto
        return
      </CharString>
      <CharString index="50">
        3 -8 2 3 -11 hhcurveto
        -9 -11 -2 -5 -8 hvcurveto
        -12 -16 -6 -22 -19 vvcurveto
        -29 13 -52 10 -7 vhcurveto
        return
      </CharString>
      <CharString index="51">
        rmoveto
        14 9 7 6 7 hhcurveto
        14 13 -26 -25 -21 -10 -20 -26 -15 -17 6 7 -12 hvcurveto
        1 2 0 1 2 vvcurveto
        1 -1 2 0 vhcurveto
        2 -8 -8 77 callgsubr
        -8 -8 -1 -2 -8 hvcurveto
        return
      </CharString>
      <CharString index="52">
        207 161 121 258 172 -71 161 -201 hvcurveto
        return
      </CharString>
      <CharString index="53">
        97 16 callsubr
        -21 -11 -6 -30 -31 vvcurveto
        -28 0 -7 9 -12 -67 callsubr
        return
      </CharString>
      <CharString index="54">
        175 -16 -65 callgsubr
        return
      </CharString>
      <CharString index="55">
        -51 callgsubr
        -7 -11 -3 -41 -33 vvcurveto
        return
      </CharString>
      <CharString index="56">
        12 -34 -47 6 -39 hhcurveto
        -44 -48 -8 -12 -45 hvcurveto
        return
      </CharString>
      <CharString index="57">
        rrcurveto
        hintmask 11110000
        -11 -8 -9 -13 -32 vvcurveto
        -27 6 -22 14 -10 vhcurveto
        -20 21 48 -7 115 hhcurveto
        61 17 2 11 11 hvcurveto
        return
      </CharString>
      <CharString index="58">
        5 2 31 4 32 hhcurveto
        29 30 -3 -10 15 hvcurveto
        -3 -33 rlineto
        return
      </CharString>
      <CharString index="59">
        hvcurveto
        2 8 1 25 23 vvcurveto
        39 -3 42 -5 4 vhcurveto
        return
      </CharString>
      <CharString index="60">
        -39 callsubr
        -54 callsubr
        return
      </CharString>
      <CharString index="61">
        125 -72 74 -91 -91 -72 -74 -125 -124 72 -75 91 91 72 75 124 vhcurveto
        return
      </CharString>
      <CharString index="62">
        43 65 37 37 -30 callgsubr
        vhcurveto
        return
      </CharString>
      <CharString index="63">
        -5 33 -9 12 vhcurveto
        3 -4 -8 1 -10 hhcurveto
        -14 -16 -2 -2 -8 hvcurveto
        -2 -5 -4 -3 -9 vvcurveto
        -5 -11 -16 -4 -15 hhcurveto
        -10 -10 2 5 -10 hvcurveto
        75 141 -54 135 vvcurveto
        94 -69 28 -48 -26 -46 -8 -18 -23 vhcurveto
        -1 8 -6 3 -5 5 rrcurveto
        4 -4 -8 2 -8 hhcurveto
        -12 -14 -4 -4 -7 hvcurveto
        -3 -5 -2 return
      </CharString>
      <CharString index="64">
        -4 16 17 -4 18 hhcurveto
        29 36 10 16 30 hvcurveto
        32 77 6 77 1 77 rrcurveto
        1 -5 -6 0 -4 hhcurveto
        -24 -19 -16 -15 -18 hvcurveto
        -52 -64 -41 -71 -16 -84 rrcurveto
        return
      </CharString>
      <CharString index="65">
        -10 hhcurveto
        -30 -27 -9 -17 -24 hvcurveto
        endchar
      </CharString>
      <CharString index="66">
        -10 -2 -6 -38 -34 vvcurveto
        -25 3 -22 8 -3 vhcurveto
        return
      </CharString>
      <CharString index="67">
        -69 callsubr
        8 return
      </CharString>
      <CharString index="68">
        -231 305 115 156 119 hstem
        24 120 140 112 vstem
        248 695 rmoveto
        -132 -92 -128 -107 -82 55 -73 118 110 89 64 143 95 -39 88 -109 hvcurveto
        -104 -216 rmoveto
        41 37 56 48 34 21 -28 -34 -49 -45 -45 -41 -32 -22 28 31 vhcurveto
        endchar
      </CharString>
      <CharString index="69">
        110 -10 195 317 199 -191 -20 24 -20 29 178 1 -20 return
      </CharString>
      <CharString index="70">
        346 rmoveto
        -1 5 5 -1 5 hhcurveto
        9 10 3 6 8 hvcurveto
        return
      </CharString>
      <CharString index="71">
        39 -40 -69 5 -31 hhcurveto
        -178 -109 -165 -198 -236 155 -114 138 5 callgsubr
        return
      </CharString>
      <CharString index="72">
        -12 34 47 -6 39 hhcurveto
        44 48 8 12 45 hvcurveto
        7 11 3 41 33 vvcurveto
        return
      </CharString>
      <CharString index="73">
        -7 -9 -1 -3 -9 hvcurveto
        -70 -112 -103 -86 -71 -111 -71 -112 -41 -140 -73 -112 rrcurveto
        -15 9 13 -7 17 hhcurveto
        9 9 2 3 11 hvcurveto
        31 511 -36 callsubr
        559 -314 rmoveto
        return
      </CharString>
      <CharString index="74">
        -8 3 46 -2 46 hhcurveto
        32 33 1 2 4 hvcurveto
        3 2 26 52 83 vvcurveto
        42 -7 93 -19 11 vhcurveto
        5 -9 -29 2 -30 hhcurveto
        -31 -32 -2 -5 -11 hvcurveto
        -9 -17 -5 -11 -15 vvcurveto
        -4 0 -7 1 -5 vhcurveto
        -15 -40 -62 -6 -55 hhcurveto
        -23 -22 1 2 -18 hvcurveto
        endchar
      </CharString>
      <CharString index="75">
        vhcurveto
        1 -2 -1 0 -2 -16 callgsubr
        -50 return
      </CharString>
      <CharString index="76">
        vhcurveto
        7 -4 15 -3 13 -2 rrcurveto
        -2 12 10 -1 1 hhcurveto
        return
      </CharString>
      <CharString index="77">
        38 10 -39 -15 -36 -59 -23 -43 -25 -23 8 25 return
      </CharString>
      <CharString index="78">
        63 callgsubr
        267 477 rmoveto
        -64 callgsubr
        return
      </CharString>
      <CharString index="79">
        -5 -12 -16 hvcurveto
        return
      </CharString>
      <CharString index="80">
        -13 169 111 186 11 248 -180 -20 31 169 return
      </CharString>
      <CharString index="81">
        24 24 4 6 11 hvcurveto
        6 7 4 13 17 vvcurveto
        -30 41 39 -7 41 hhcurveto
        161 116 109 153 126 -79 35 -74 hvcurveto
        -18 -63 -2 -18 hhcurveto
        -63 -24 26 33 47 51 49 58 23 29 -8 -20 24 hvcurveto
        -10 0 -8 6 -15 vhcurveto
        return
      </CharString>
      <CharString index="82">
        rmoveto
        -72 callsubr
        return
      </CharString>
      <CharString index="83">
        72 27 -20 callsubr
        return
      </CharString>
      <CharString index="84">
        3 6 17 hvcurveto
        9 17 15 53 35 76 callgsubr
        8 -3 6 vhcurveto
        8 -14 -18 3 -17 -23 callsubr
        -5 hvcurveto
        return
      </CharString>
      <CharString index="85">
        -8 -64 -4 -63 -66 vvcurveto
        -66 4 -68 70 callsubr
        return
      </CharString>
      <CharString index="86">
        -6 9 9 -3 10 hhcurveto
        5 4 1 1 5 hvcurveto
        return
      </CharString>
      <CharString index="87">
        hvcurveto
        7 21 3 42 23 vvcurveto
        42 -10 return
      </CharString>
      <CharString index="88">
        rmoveto
        129 66 240 194 21 254 rrcurveto
        3 -4 -33 1 -32 hhcurveto
        -46 -46 -2 -8 -3 hvcurveto
        -5 -2 -2 -5 -2 -14 rrcurveto
        2 -26 -55 1 -38 hhcurveto
        -54 -71 -2 -2 -51 hvcurveto
        -1 20 -3 -3 -5 1 rrcurveto
        return
      </CharString>
      <CharString index="89">
        47 callgsubr
        222 648 rmoveto
        -80 callgsubr
        return
      </CharString>
      <CharString index="90">
        19 callsubr
        -3 -38 -31 vvcurveto
        -25 2 -20 2 -5 vhcurveto
        return
      </CharString>
      <CharString index="91">
        64 callsubr
        -3 -6 -9 hvcurveto
        -21 -11 -6 return
      </CharString>
      <CharString index="92">
        -62 -57 -56 -53 -43 -26 37 41 return
      </CharString>
      <CharString index="93">
        37 -5 40 -7 41 vhcurveto
        14 -19 -27 6 -28 hhcurveto
        -22 -23 -4 -7 -16 hvcurveto
        -17 -6 -3 -17 -1 -14 rrcurveto
        return
      </CharString>
      <CharString index="94">
        63 -10 171 -143 -5 callgsubr
        return
      </CharString>
      <CharString index="95">
        -20 54 callsubr
        179 180 -180 250 return
      </CharString>
      <CharString index="96">
        1 -4 11 -6 13 -6 rrcurveto
        -8 17 8 callgsubr
        return
      </CharString>
      <CharString index="97">
        -2 -21 78 -95 hhcurveto
        -139 -67 return
      </CharString>
      <CharString index="98">
        -78 callsubr
        14 14 9 53 41 vvcurveto
        23 -3 18 -5 9 vhcurveto
        return
      </CharString>
      <CharString index="99">
        vhcurveto
        -4 26 14 17 callsubr
        return
      </CharString>
      <CharString index="100">
        546 rmoveto
        -22 callgsubr
        return
      </CharString>
      <CharString index="101">
        138 -6 136 -14 136 vhcurveto
        7 -14 -11 2 -9 hhcurveto
        -20 -12 -12 -10 -14 hvcurveto
        return
      </CharString>
      <CharString index="102">
        -21 333 171 -157 157 -1 -20 return
      </CharString>
      <CharString index="103">
        1 -3 vhcurveto
        -3 -1 -10 0 -28 hhcurveto
        return
      </CharString>
      <CharString index="104">
        vvcurveto
        16 -1 16 -2 8 vhcurveto
        15 -19 -59 8 -62 hhcurveto
        -70 -72 -10 -24 -34 hvcurveto
        return
      </CharString>
      <CharString index="105">
        rmoveto
        -2 -36 -1 -34 -38 vvcurveto
        -38 1 -41 2 -41 vhcurveto
        -8 -21 -3 -3 -6 hvcurveto
        return
      </CharString>
      <CharString index="106">
        62 50 49 49 39 23 -32 -38 -61 -58 -45 -46 -31 -26 21 44 vhcurveto
        endchar
      </CharString>
      <CharString index="107">
        rmoveto
        182 -277 -94 90 vvcurveto
        26 24 28 34 12 11 -3 -5 15 vhcurveto
        -1 -4 -1 -4 -4 vvcurveto
        -31 60 -10 23 67 21 86 48 3 vhcurveto
        return
      </CharString>
      <CharString index="108">
        -8 -13 -2 -16 -17 vvcurveto
        -16 2 -15 3 -13 vhcurveto
        -2 7 8 callgsubr
        return
      </CharString>
      <CharString index="109">
        -24 callgsubr
        endchar
      </CharString>
      <CharString index="110">
        48 28 61 26 53 vvcurveto
        36 -29 20 -27 -18 -26 -9 -12 -12 vhcurveto
        12 -23 -20 3 -11 hhcurveto
        -22 -8 -11 -17 -34 33 -55 54 -40 hvcurveto
        return
      </CharString>
      <CharString index="111">
        hvcurveto
        -8 -45 -2 -101 -87 -88 2 -26 62 callgsubr
        return
      </CharString>
      <CharString index="112">
        43 41 11 34 50 hvcurveto
        -16 7 -18 14 -5 vhcurveto
        return
      </CharString>
      <CharString index="113">
        20 callsubr
        150 135 return
      </CharString>
      <CharString index="114">
        88 -10 187 333 192 return
      </CharString>
      <CharString index="115">
        7 17 callsubr
        return
      </CharString>
      <CharString index="116">
        11 21 6 return
      </CharString>
      <CharString index="117">
        54 callgsubr
        -7 callsubr
        return
      </CharString>
      <CharString index="118">
        22 callgsubr
        366 -20 return
      </CharString>
      <CharString index="119">
        -18 -23 -4 -8 -17 hvcurveto
        return
      </CharString>
      <CharString index="120">
        rmoveto
        91 55 201 187 1 87 rrcurveto
        13 -61 -88 11 -77 hhcurveto
        -69 -62 -9 -22 -27 hvcurveto
        -1 16 -2 5 -4 1 rrcurveto
        return
      </CharString>
      <CharString index="121">
        -4 18 21 -3 15 hhcurveto
        5 9 0 1 3 4 callgsubr
        return
      </CharString>
      <CharString index="122">
        rrcurveto
        3 15 3 5 14 hvcurveto
        16 6 6 8 11 vvcurveto
        10 -6 22 -11 24 18 callsubr
        return
      </CharString>
      <CharString index="123" raw="1">
        611e8a81 b30a7d89 7d888487 080b
      </CharString>
      <CharString index="124">
        508 rmoveto
        24 -36 -35 9 -37 hhcurveto
        -18 -17 -2 -4 -18 hvcurveto
        return
      </CharString>
      <CharString index="125">
        -42 86 92 0 83 hhcurveto
        139 130 92 288 hvcurveto
        return
      </CharString>
      <CharString index="126">
        154 rmoveto
        1 -5 -5 1 -5 hhcurveto
        -9 return
      </CharString>
      <CharString index="127">
        198 187 -187 244 return
      </CharString>
      <CharString index="128">
        105 -57 22 callsubr
        return
      </CharString>
      <CharString index="129">
        0 144 67 123 return
      </CharString>
      <CharString index="130">
        hhcurveto
        -7 -5 -1 -2 return
      </CharString>
      <CharString index="131">
        -3 callsubr
        -118 -58 vvcurveto
        -16 0 return
      </CharString>
      <CharString index="132">
        5 -11 -21 3 -21 hhcurveto
        -22 -22 -3 -5 -12 hvcurveto
        -6 -11 -5 -14 -12 vvcurveto
        -3 0 -2 1 -3 vhcurveto
        return
      </CharString>
      <CharString index="133">
        9 callgsubr
        20 21 9 callsubr
        19 -12 19 vhcurveto
        11 -17 -17 6 -17 hhcurveto
        -16 -16 -28 callgsubr
        return
      </CharString>
      <CharString index="134">
        5 -22 -22 2 -20 hhcurveto
        -27 -23 -4 -3 -12 hvcurveto
        -9 -6 -5 -40 -40 vvcurveto
        -37 4 -36 10 -9 vhcurveto
        return
      </CharString>
      <CharString index="135">
        -8 callgsubr
        6 2 0 1 1 hvcurveto
        return
      </CharString>
      <CharString index="136">
        48 45 -39 -81 -17 -2 -18 -4 -20 return
      </CharString>
      <CharString index="137">
        -20 97 callgsubr
        -181 181 return
      </CharString>
      <CharString index="138">
        242 -226 142 188 193 -193 224 -168 137 hstemhm
        26 171 return
      </CharString>
      <CharString index="139">
        62 callsubr
        10 callsubr
        return
      </CharString>
      <CharString index="140">
        -4 3 10 -1 9 hhcurveto
        17 9 4 3 5 hvcurveto
        return
      </CharString>
      <CharString index="141">
        87 -12 94 -4 66 vhcurveto
        -3 6 11 -7 16 hhcurveto
        return
      </CharString>
      <CharString index="142">
        81 17 2 18 4 20 vhcurveto
        return
      </CharString>
      <CharString index="143">
        16 3 12 5 14 7 return
      </CharString>
      <CharString index="144">
        60 -3 60 -1 71 vhcurveto
        return
      </CharString>
      <CharString index="145">
        9 -1 16 11 vvcurveto
        62 34 17 46 6 6 0 -1 6 vhcurveto
        -6 -21 rlineto
        endchar
      </CharString>
      <CharString index="146">
        0 156 -156 170 169 171 return
      </CharString>
      <CharString index="147">
        vvcurveto
        -27 2 -27 return
      </CharString>
      <CharString index="148">
        rmoveto
        -30 -52 -13 -57 -59 vvcurveto
        -23 2 -24 4 -25 vhcurveto
        -11 12 24 -4 24 hhcurveto
        return
      </CharString>
      <CharString index="149">
        -2 18 21 -3 22 hhcurveto
        21 22 3 12 19 hvcurveto
        1 -9 1 -8 -1 vvcurveto
        return
      </CharString>
      <CharString index="150">
        1 4 5 hvcurveto
        3 4 18 15 4 hvcurveto
        return
      </CharString>
      <CharString index="151">
        8 -8 -37 9 -21 23 callgsubr
        -1 hvcurveto
        hintmask 10100000
        -30 -117 return
      </CharString>
      <CharString index="152">
        -4 -8 -28 hvcurveto
        18 3 30 71 vvcurveto
        53 0 46 -5 10 vhcurveto
        24 -28 return
      </CharString>
      <CharString index="153">
        rmoveto
        26 23 6 21 23 vvcurveto
        62 -46 70 -91 -24 -16 -5 -11 -16 vhcurveto
        return
      </CharString>
      <CharString index="154">
        419 -21 258 -20 hstem
        return
      </CharString>
      <CharString index="155">
        64 callsubr
        -1 -1 return
      </CharString>
      <CharString index="156">
        13 -4 13 return
      </CharString>
      <CharString index="157">
        102 -3 -21 22 -21 22 184 331 162 25 -20 23 -20 return
      </CharString>
      <CharString index="158">
        -5 30 37 -4 35 hhcurveto
        121 129 49 124 hvcurveto
        endchar
      </CharString>
      <CharString index="159">
        -7 86 hhcurveto
        86 86 7 13 4 hvcurveto
        return
      </CharString>
      <CharString index="160">
        6 24 28 vhcurveto
        5 10 0 46 53 return
      </CharString>
      <CharString index="161">
        -15 -133 -6 -135 -138 vvcurveto
        return
      </CharString>
      <CharString index="162">
        194 -183 -21 559 164 4 -20 hstemhm
        31 196 return
      </CharString>
      <CharString index="163">
        4 20 vhcurveto
        -52 callsubr
        return
      </CharString>
      <CharString index="164">
        -44 -229 -21 246 145 198 169 8 -20 hstemhm
        return
      </CharString>
      <CharString index="165">
        -3 rrcurveto
        -4 -7 -9 -7 -7 vvcurveto
        -5 3 -5 10 -6 vhcurveto
        return
      </CharString>
      <CharString index="166">
        -5 -4 -3 -42 -39 vvcurveto
        -23 1 -25 2 -8 vhcurveto
        -13 8 return
      </CharString>
      <CharString index="167">
        -4 24 -8 10 vhcurveto
        -2 -4 1 -4 -3 -2 -1 -4 hhcurveto
        return
      </CharString>
      <CharString index="168">
        hvcurveto
        4 1 3 4 1 13 rrcurveto
        return
      </CharString>
      <CharString index="169">
        -44 34 callsubr
        return
      </CharString>
      <CharString index="170">
        4 -21 511 -20 hstem
        return
      </CharString>
      <CharString index="171">
        136 119 71 return
      </CharString>
      <CharString index="172">
        hvcurveto
        8 13 15 70 29 48 callsubr
        6 -2 3 vhcurveto
        return
      </CharString>
      <CharString index="173">
        34 callsubr
        -20 -39 83 callgsubr
        return
      </CharString>
      <CharString index="174">
        hvcurveto
        -3 -6 -1 -9 -9 vvcurveto
        -11 2 -21 2 -8 vhcurveto
        return
      </CharString>
      <CharString index="175">
        29 callsubr
        12 -4 15 vhcurveto
        return
      </CharString>
      <CharString index="176">
        rrcurveto
        -26 6 11 -13 17 hhcurveto
        12 16 7 15 18 hvcurveto
        return
      </CharString>
      <CharString index="177">
        510 rmoveto
        return
      </CharString>
      <CharString index="178">
        105 -92 -21 56 22 callsubr
        hintmask 01101000
        return
      </CharString>
      <CharString index="179">
        -5 -10 -11 vvcurveto
        -12 6 -12 8 -13 vhcurveto
        -5 43 return
      </CharString>
      <CharString index="180">
        12 6 4 4 5 vvcurveto
        7 -9 7 -7 8 vhcurveto
        return
      </CharString>
      <CharString index="181">
        -52 -58 55 64 44 28 35 44 62 45 -70 -51 return
      </CharString>
      <CharString index="182">
        -21 698 -20 return
      </CharString>
      <CharString index="183">
        vvcurveto
        10 -1 return
      </CharString>
      <CharString index="184">
        1 -7 hhcurveto
        return
      </CharString>
      <CharString index="185">
        -21 161 -20 hstem
        return
      </CharString>
      <CharString index="186">
        39 vvcurveto
        38 return
      </CharString>
      <CharString index="187">
        0 169 -156 -21 375 145 return
      </CharString>
      <CharString index="188">
        1 4 1 4 4 vvcurveto
        30 -60 11 -24 return
      </CharString>
      <CharString index="189">
        178 -139 139 return
      </CharString>
      <CharString index="190">
        -7 -11 -7 hvcurveto
        return
      </CharString>
      <CharString index="191">
        155 hstemhm
        return
      </CharString>
      <CharString index="192">
        -275 -158 -21 835 -20 hstem
        return
      </CharString>
      <CharString index="193">
        -7 19 hhcurveto
        7 6 1 1 4 hvcurveto
        return
      </CharString>
      <CharString index="194">
        -18 67 hhcurveto
        22 83 2 2 10 hvcurveto
        return
      </CharString>
      <CharString index="195">
        2 -8 hhcurveto
        -3 -3 0 -1 -3 hvcurveto
        return
      </CharString>
      <CharString index="196">
        1 6 hvcurveto
        return
      </CharString>
      <CharString index="197">
        216 -164 115 hintmask 11100000
        return
      </CharString>
      <CharString index="198">
        123 -77 135 -143 -24 return
      </CharString>
      <CharString index="199">
        -29 16 -14 -3 -12 -6 -9 -9 return
      </CharString>
      <CharString index="200">
        -32 22 -23 25 -20 vhcurveto
        -2 5 return
      </CharString>
      <CharString index="201">
        -54 -108 -21 861 -20 hstem
        return
      </CharString>
      <CharString index="202">
        -31 -60 -48 6 -35 return
      </CharString>
      <CharString index="203">
        -1 98 callsubr
        return
      </CharString>
      <CharString index="204">
        hstemhm
        21 248 return
      </CharString>
      <CharString index="205">
        hstemhm
        80 198 return
      </CharString>
      <CharString index="206">
        vvcurveto
        -2 0 return
      </CharString>
      <CharString index="207">
        -10 -3 -5 return
      </CharString>
      <CharString index="208">
        0 -5 hhcurveto
        return
      </CharString>
</ttFont>
